<?xml version="1.0" encoding="UTF-8"?>
<svg width="712px" height="12px" viewBox="0 0 712 12" version="1.1" xmlns="http://www.w3.org/2000/svg" xmlns:xlink="http://www.w3.org/1999/xlink">
    <!-- Generator: Sketch 55.2 (78181) - https://sketchapp.com -->
    <title>Combined Shape</title>
    <desc>Created with Sketch.</desc>
    <g id="Page-1" stroke="none" stroke-width="1" fill="none" fill-rule="evenodd">
        <path d="M315,2.25674816 L315,12 L-397,12 L-397,2.25624406 C-389.088889,2.58043247 -379.735405,1.60552048 -373.302615,1.79929597 C-370.097633,1.1603062 -382.197413,0.671844443 -375.96845,2.27373675e-13 C-373.78968,1.28200257 -368.169628,1.62764709 -363.221501,1.92635637 C-366.502678,2.18181818 -369.765529,2.57205118 -373.20038,2.25624406 C-373.827616,2.48689725 -373.084642,2.70682237 -374.136251,2.94786836 C-367.265263,3.73101637 -360.972002,2.04402973 -353.897508,3.65625524 C-351.85923,3.25697044 -353.10213,2.89020506 -350.845879,2.48689725 C-345.374036,3.52014304 -340.374792,2.75912164 -335.042157,3.24154886 C-333.183595,2.84695759 -333.16527,2.46443538 -334.196947,2.09398223 C-331.684786,1.72453484 -328.852416,2.74604682 -326.467568,1.78622115 C-324.097186,2.07051461 -325.084497,2.38330446 -326.263097,2.69877633 C-305.677782,2.40442532 -291.810102,2.7802425 -271.482305,3.2975359 C-269.892834,2.82080796 -271.071434,2.37928144 -274.032402,1.95652903 C-270.712967,1.82142258 -267.252075,2.33636922 -263.945822,2.08090741 C-258.48459,2.63608426 -266.09823,3.3169805 -261.305064,3.87618037 C-256.319,2.91501369 -251.050664,3.27775605 -245.641835,4.17891267 C-242.591492,3.6877689 -245.437043,3.26468123 -241.489086,2.76951444 C-239.438914,3.28043806 -242.078386,3.83829692 -240.002172,4.34888529 C-233.990862,3.01592446 -234.875294,4.44711404 -226.543755,4.6724032 C-223.519775,4.18796446 -226.3769,3.75850701 -222.417048,3.26468123 C-221.455135,3.63412862 -221.378941,4.01262781 -223.262579,4.41593563 C-216.161722,5.04822037 -201.153379,3.45845672 -201.549782,1.91596357 C-190.956848,2.72392021 -209.805448,3.31195172 -203.139252,4.66838018 C-199.319893,4.62144493 -200.551219,4.01262781 -195.629133,3.45577471 C-190.32286,4.30966084 -184.234069,3.41923227 -181.850828,5.14007934 C-176.967,5.13337431 -171.404496,5.26445773 -169.866143,3.87886238 C-167.917242,4.24160474 -165.982486,4.60166508 -164.046765,4.96206068 C-167.956464,6.20215679 -165.623054,4.00592278 -169.545934,5.24735989 C-166.315876,6.92495949 -150.076528,5.64295692 -140.193455,6.77577248 C-141.898342,5.86958708 -141.002015,5.09817288 -146.230807,4.78370677 C-138.681465,3.48862938 -136.976578,6.48611499 -129.068769,6.66580991 C-124.217733,5.18332681 -118.724994,6.43917975 -113.392359,6.97088898 C-107.39423,5.66005476 -100.934112,6.2242834 -94.538294,6.55450634 C-93.0841728,5.55646198 -100.422293,6.23232944 -102.574701,5.4924289 C-100.447369,4.78907079 -105.855877,4.15812706 -104.190534,3.45845672 C-97.9101319,4.78907079 -89.0651658,4.97245348 -83.4136079,6.44052076 C-81.6707844,6.00033525 -78.9142876,6.37615243 -74.6332622,5.89942448 C-72.3770114,4.55472984 -87.9891225,5.71369503 -79.5039091,4.12493714 C-83.0409954,3.23048556 -86.1173795,4.43705649 -89.6808284,3.54226965 C-86.52182,2.44499078 -76.9534905,4.26507236 -77.607411,2.73967704 C-73.8771063,3.5322121 -69.9291497,3.16242946 -63.9178391,3.96938034 C-64.4312663,2.11476784 -57.5024095,3.91037604 -51.9466571,2.7121864 C-44.9419274,4.01765659 -38.3663934,3.58685813 -31.5031215,4.32944069 C-31.2658583,5.26043471 -36.7965341,5.97284461 -40.1934486,5.32849081 C-39.386175,6.90383863 -29.6828177,5.94669498 -25.5680051,5.86824607 C-24.6205598,5.15583617 -27.696944,4.44476728 -29.2851285,4.30966084 C-28.5804118,3.56339051 -25.3767157,3.52282505 -25.2545477,2.44767279 C-24.6456364,4.49036151 -18.6475071,2.96463094 -12.5336397,4.37268816 C-14.8464736,5.58663463 -17.7759346,4.23255294 -20.1594974,5.1320333 C-16.4304787,5.21718724 -12.5207799,6.02279712 -9.03481131,5.02207074 C-7.98352317,4.57417444 -10.957672,4.83734704 -12.5336397,4.37268816 C-10.9824271,3.91674582 -7.81666735,4.12124937 -9.36820146,3.65759625 C-5.31768793,2.93848131 -7.6764956,5.12968654 -3.75329402,3.82924512 C-4.80458216,4.60166508 -6.89397715,5.37844331 -3.21511165,6.10124602 C2.14259992,6.06973236 -2.99713815,5.33385484 0.911274671,4.69486506 C4.01402141,5.19640163 2.93669219,5.73716265 2.39850982,6.27524166 C4.2766827,6.33960999 6.05101274,5.952059 8.01309577,6.44689054 C13.7029115,5.40191093 4.33423027,4.50745935 8.43586149,3.47957758 C9.73662963,4.0780019 11.7681555,4.66201039 11.0885154,5.27619154 C15.0364721,6.26484886 18.2665308,4.22182489 22.3231528,5.62049506 C26.3919915,5.04822037 24.9822366,4.53092697 27.4943973,3.97709113 C32.5582626,4.87020171 37.2360126,4.25602056 42.0291792,4.06090406 C44.9522103,5.62049506 53.1551513,5.13337431 58.9812808,5.02877577 C61.9737548,4.54165503 53.077671,4.17891267 58.6543206,3.66396603 C63.7943801,5.04587361 69.2790822,4.30329105 76.6618898,4.39749679 C81.3409257,4.88327653 74.7653917,5.47901883 78.1491249,5.97954965 C84.6667899,6.18774096 79.1489739,4.62144493 84.4044501,4.09107672 C87.3522363,4.1370062 88.557199,4.36196011 89.0622674,4.95803766 C99.5793282,2.35715483 111.652746,6.15488629 122.445649,4.62546796 C126.457905,6.13141867 128.867508,5.87193384 136.313329,6.76906744 C138.326851,6.79521708 139.594505,5.85751802 143.953333,6.01072805 C145.016516,4.85444488 137.237305,5.44281164 134.723859,4.73677153 C141.505471,3.97977315 146.747766,4.88729955 151.681426,5.70430798 C157.180595,5.27350953 154.553018,4.75353411 157.929999,3.81851707 C162.396527,4.11320333 164.896793,3.43901212 167.049201,4.63854277 C168.44706,4.32508242 169.869675,4.00625803 171.27943,3.69045091 C169.498348,4.93054702 181.392372,5.35732246 185.789135,3.7752696 C189.493077,5.41498575 192.55628,4.68950103 198.195943,4.33312846 C202.835756,5.11895848 197.733954,4.60468235 196.170847,5.26445773 C198.914162,5.8444432 201.374884,5.25406493 204.014356,5.41230374 C208.180286,4.29926803 205.194242,4.31636587 203.578731,3.59725094 C208.397938,3.5607085 213.17278,3.26065821 217.66567,1.85964128 C216.498966,1.57266581 215.364732,1.53210035 214.275507,1.66821255 C214.871237,0.801251606 225.266451,1.1797508 229.739409,1.05939543 C218.139554,1.79527295 220.395483,3.26736325 209.193317,3.76755881 C219.908418,5.64664469 220.984783,2.32966419 229.01476,2.65955188 C228.854655,3.6495502 220.651714,4.71833268 221.914225,5.69123317 C224.804463,4.8008046 232.444145,4.91780745 234.827708,3.74140917 C238.044585,4.69620607 238.262559,5.68084036 241.094929,6.64468905 C239.620875,5.02475275 245.20942,5.08878583 249.464725,4.27948818 C251.567302,3.6495502 244.569002,3.11549422 249.04196,2.46074761 C251.080237,3.1808683 252.131525,3.1808683 251.6959,4.25602056 C254.643686,4.28619322 258.667837,3.41152148 256.257911,4.66838018 C259.565772,4.62915572 262.769468,3.96938034 265.986345,3.43230709 C266.050644,2.72894899 255.815856,3.4245963 257.822627,1.91696932 C263.885055,2.68972453 290.915698,4.50075432 285.686906,1.87003408 C289.006019,1.7651003 292.595831,2.82717774 295.741658,1.9997765 C298.812431,3.30914887 307.036388,2.50532143 315,2.25674817 Z M712,1.72252333 L712,12 L712,1.72252333 Z M-184.16977,4.70659887 C-188.348882,4.31502486 -192.194282,5.37844331 -196.474343,4.59898307 C-192.501631,4.01262781 -188.47748,3.86176454 -184.16977,4.70659887 Z M-68.9868483,6.07107336 C-63.6358881,5.58261161 -64.7382939,7.1123652 -59.996245,6.43649774 C-59.0343324,5.90881153 -70.7364232,4.56512265 -68.9868483,6.07107336 Z M-47.7164279,6.54377829 C-43.9745494,6.05397553 -47.896465,5.63625189 -45.7948532,5.15583617 C-49.2994685,4.54031402 -52.5491384,4.89769235 -55.8618213,5.02877577 C-55.7791971,5.81427055 -51.0239669,5.54372241 -47.7164279,6.54377829 Z M63.741655,6.35268481 C68.356392,5.2000894 75.2010172,7.06777672 73.4829487,5.1125887 C70.9196704,5.67447058 62.4608195,5.14276136 63.741655,6.35268481 Z M105.181054,7.07951053 C106.244238,6.83980555 107.295526,6.60278259 108.346814,6.36575962 C101.964177,5.9124993 102.989103,6.10392803 100.194991,4.84673409 C97.2983223,5.22389227 94.2727343,4.9945801 91.5046637,5.8444432 C96.195595,6.84382857 100.681734,6.94473934 105.181054,7.07951053 Z M154.137003,6.59238979 C155.924515,5.78812091 163.460997,5.93898419 161.538136,4.92518299 C158.654649,5.97954965 150.489644,5.20411242 154.137003,6.59238979 Z" id="Combined-Shape" fill="#052AB5" transform="translate(157.500000, 6.000000) scale(-1, 1) translate(-157.500000, -6.000000) "></path>
    </g>
</svg>