<svg height="255" viewBox="0 0 1200 255" width="1200" xmlns="http://www.w3.org/2000/svg"><g fill="#ebecf4" fill-rule="evenodd"><path d="m1199.56516 245.258926c-4.20964-.75968-9.00824.65877-13.28015.100911 3.995-1.180086 13.89658-1.270269 13.28015-.100911zm-229.859367 2.447673c4.661182-.844834 9.015539-.693971 13.314235-.107616-4.631265.77946-8.792203-.283958-13.314235.107616zm-124.634361 1.364474c-5.790038-.488461-4.597173 1.041292-9.728336.365425-1.040843-.527686 11.621474-1.871375 9.728336-.365425zm-23.015784.472705c-4.048922-.489802.19481-.907526-2.079251-1.387942 3.792189-.615522 7.308514-.258144 10.893022-.12706-.089404.785495-5.234829.514946-8.813771 1.515002zm-120.603877-.191093c-4.993403-1.152596-12.399671.715092-10.540624-1.240096 2.77361.561882 11.92656.030172 10.540624 1.240096zm-44.839747.726826c-1.150424-.239705-2.287976-.476728-3.425529-.713751 6.90637-.453261 5.797344-.261832 8.820729-1.519026 3.134357.377158 6.408212.147846 9.403419.997709-5.075849.999386-9.930103 1.100296-14.798619 1.235068zm-52.973073-.487121c-1.934188-.804269-10.089083-.653406-8.00844-1.667207 3.120095 1.054367 11.955086.278929 8.00844 1.667207zm-286.582881-2.172767c3.155577.229313 6.602327-.570933 9.542222.544784-2.718299.675868-11.23394.383864-9.542222-.544784zm-155.451251-.738559c2.476525.392915 1.449944-.493491 3.682609-.197799-2.981292.616864 3.703829.116668 4.576996.953791-2.323459.708052-10.23519-.101246-8.259605-.755992zm-72.9244234 4.495055-.4922437.008716-.6181746.002682c-.5089417-.004023-1.016144-.008381-1.521607-.012739-1.0112737-.016763-2.0169815-.050958-3.017819-.104599-2.0020229-.10661-3.9856084-.291333-5.9625843-.571604 2.4573918-.011063 4.871647-.057328 7.1227487-.129742 1.1257248-.035872 2.2104003-.078449 3.2394157-.126725.5973021-.023803.7994177-.049282 1.1326823-.076103.307174-.028831.6039117-.056657.8891695-.083477 2.2813668-.23233 3.8137579-.534727 3.9522124-.839806 1.1375525.392915.387881.765045 3.3149046 1.168017-2.7182983.401967-5.4091145.704029-8.0387046.76538zm-65.7272292-4.170196c4.1331076-.483098 8.3577064-.895122 12.6477057-1.104655 4.2872164-.209532 8.6391376-.216572 12.9590542.110633-3.8356741 1.566296-16.0829752 1.29139-25.6067599.994022zm4.5453399 2.234117c-5.1123768.012405-10.2831967-.182041-15.5566398-.47941 4.9231326-.477398 10.1329145-.449572 15.3200845-.351679 5.1986499.098229 10.3753837.266525 15.5260268.070068-5.1189865.529362-10.1743117.748617-15.2894715.761021zm1172.5014937-6.043247c-9.48343.67989-18.68126 1.408727-25.6419 1.602503-3.46797-.63899 9.62467-1.127452 2.88459-1.799296-2.35755 1.282003-8.43876 1.627647-13.79291 1.926356 3.55041.255462 7.081.645695 10.7977.329888.67871.230653-.12523.450578 1.01267.691624-7.4348.783148-14.24446-.903838-21.89946.708387-2.20553-.399285-.86064-.76605-3.30203-1.169358-5.92084 1.033246-11.3303.272225-17.10051.754652-2.01107-.394591-2.0309-.777114-.91456-1.147567-2.7183-.369447-5.78309.652065-8.36362-.307761-2.56489.284294-1.49656.597083-.22125.912555-22.27447-.294351-37.28007.081466-59.27588.59876-1.7199-.476728-.44459-.918255 2.75934-1.341007-3.59181-.135106-7.33669.37984-10.91424.124378-5.90936.555177 2.32903 1.236073-2.85745 1.795273-5.3952-.961166-11.09583-.598424-16.94849.302733-3.30064-.491144-.22159-.914232-4.4935-1.409399-2.2184.510924.63765 1.068783-1.60893 1.579371-6.50457-1.332961-5.54757.098229-14.56276.323518-3.27211-.484439-.18054-.913896-4.46532-1.407722-1.04085.369448-1.12329.747947.91491 1.151255-7.68353.632284-23.923393-.957479-23.494463-2.499972-11.462146.807956 8.933092 1.395988 1.719896 2.752416-4.13276-.046935-2.800397-.655752-8.126369-1.212605-5.741684.853886-12.330096-.036543-14.908896 1.684304-5.284575-.006705-11.303515.124379-12.968099-1.261217-2.108821.362743-4.202335.722803-6.296893 1.083199 4.230513 1.240096 1.705633-.956138 5.950409.285299-3.495104 1.677599-21.066986.395597-31.761024 1.528412 1.844784-.906185.874907-1.677599 6.532753-1.992065-8.16881-1.295078-10.013594 1.702408-18.570285 1.882103-5.249092-1.482483-11.192543-.22663-16.962752.305079-6.490311-1.310834-13.480519-.746606-20.401152-.416383-1.573441-.998044 6.366815-.322177 8.695841-1.062077-2.301892-.703358 3.550416-1.334302 1.748422-2.033972-6.795746 1.330614-16.366494 1.513996-22.481796 2.982064-1.885832-.440186-4.868516-.064369-9.500825-.541097-2.441389-1.344694 14.451788-.185729 5.270313-1.774487 3.827325-.894451 7.156144.312119 11.011995-.582667-3.418223-1.097279-13.771691.722802-13.064112-.802593-4.036399.792535-8.308308.422752-14.812882 1.229703.555557-1.854612-6.941854-.059004-12.953489-1.257194-7.579509 1.305471-14.694604.874672-22.121048 1.617255-.256732.930994 5.727768 1.643404 9.40342.99905-.873515 1.575348-11.373091.618204-15.825548.539755-1.025189-.71241 2.303631-1.423479 4.022136-1.558585-.762543-.74627-4.229122-.786836-4.361314-1.861988-.658876 2.042689-7.149188.516958-13.764734 1.925015 2.502616 1.213947 5.672456-.140135 8.251604.759345-4.035006.085154-8.265519.890764-12.037532-.109962-1.137552-.447897 2.080643-.184724 3.785928-.649383-1.678499-.455942-5.104028-.251439-3.425181-.715092-4.382882-.719115-1.83052 1.472091-6.075644.171649 1.137553.77242 3.398395 1.549198-.582343 2.272001-5.797344-.031514-.23586-.767391-4.464981-1.406381-3.357345.501537-2.191615 1.042298-1.609271 1.580377-2.032289.064368-3.952213-.323183-6.075296.171649-6.156699-1.04498 3.980738-1.939432-.457457-2.967313-1.407503.598424-3.605728 1.182432-2.870319 1.796614-4.27191.988657-7.767014-1.054367-12.156506.344303-4.402711-.572275-2.877277-1.089568-5.595576-1.643404-5.479385.893111-10.540972.27893-15.727446.083813-3.162883 1.559591-12.038924 1.07247-18.343122.967872-3.238024-.487121 6.388036-.849863.353789-1.36481-5.561832 1.381908-11.496586.639325-19.485196.733531-5.062979.48578 2.052117 1.081522-1.609272 1.582053-7.052478.208191-1.081892-1.358105-6.768611-1.888473-3.18967.045929-4.493507.270883-5.040019.866961-11.380048-2.600883-24.444161 1.196848-36.122685-.33257-4.341485 1.505951-6.948811 1.246466-15.005606 2.143599-2.178743.02615-3.550416-.911549-8.26691-.758339-1.150424-1.156283 7.267117-.567916 9.986806-1.273956-7.338083-.756999-13.010539.150528-18.349035.967536-5.950409-.430798-3.107223-.950774-6.761306-1.885791-4.833033.294686-7.53846-.379505-9.867486.820026-1.512562-.313461-3.051911-.632285-4.577344-.948092 1.927229 1.240096-10.942769 1.666871-15.700313.084819-4.007872 1.639716-7.322429.914231-13.424859.557858-5.020538.78583.499897.271554 2.191267.93133-2.968421.579985-5.631059-.010393-8.487116.147846-4.507769-1.113036-1.276703-1.095938.471371-1.815053-5.214652-.036543-10.381297-.336593-15.242856-1.73761 1.26244-.286975 2.489744-.327541 3.668346-.191428-.644613-.866961-11.892816-.488462-16.732806-.608818 12.551692.735878 10.11065 2.207968 22.23202 2.708164-11.594339 1.879086-12.759025-1.437895-21.447909-1.108007.173242.989998 9.049282 2.058781 7.683176 3.031681-3.1274-.890428-11.393963-.773426-13.973111-1.949824-3.480841.954797-3.716701 1.939431-6.781483 2.90328 1.595009-1.619936-4.452109-1.555903-9.056588-2.365201-2.275105-.629938 5.297446-1.163994.457456-1.81874-2.20553.72012-3.343083.72012-2.871711 1.795273-3.18967.030172-7.544026-.8445-4.936352.412359-3.57929-.039224-7.045868-.699-10.52671-1.236073-.069575-.703358 11.005038-.007711 8.8336-1.515338-6.559886.772756-35.808554 2.583785-30.150708-.046935-3.591466-.104934-7.475842.957144-10.879803.129742-5.416768 2.134548-17.995246.360061-27.211161 2.481534-1.935579-1.520367-9.472647-.589373-6.73452-1.885791-4.048922-.37984-3.272116 1.162988-8.819337 1.515002-9.210001-.178018-18.293376-.876012-27.876995.429793-.832118-1.275633-8.807857-.950774-9.62606-.090518-3.300642-1.232385-7.127619-.472705-10.540624-1.232385.999794.749287 2.830662.775437 4.355748 1.862323-4.695275.109963-9.929756-.831424-11.705312-1.475778-6.324027-.259485-3.46797 1.323909-12.010398-.107616-.555209.373471 1.316361.768732-1.512562 1.122423 5.311709-.265855 10.415737.113986 15.464453.824049-8.806466-.088172-17.614671-.297704-26.462186-.240041-.692967-.231659.110625-.452589-1.039799-.691289 4.147022-.400961 11.566161.588032 12.273392-.800245-6.213403-.750294-11.982221 1.038945-20.38689-.413701-1.705633.325865-3.398395.649382-4.938091.409677-1.067978.370789-1.14451.746606.916303 1.147232-5.436596.751634-10.444262-.12572-15.825547.537073-4.284433-.493826-1.192865-.920601-4.479244-1.405375-4.743281.544784 2.398601 1.153936-3.911163 1.100296-4.445151-.629938 2.968421-1.103984-3.300293-1.167011-3.439792.345644.387533.762362-1.4983 1.122423-18.293723-2.840588-41.275067-.251439-56.280673-1.654132-1.934535-.470023 3.56468-.876013 2.746477-1.341007-6.699037-.497514-14.049992 1.523048-20.402544-.413701-1.039452.368107-1.12329.74627.908998 1.149914-2.614631.803933-4.875474.222607-7.440359.838129-3.037996-.407331-.37501-.763704 1.498299-1.123764-3.454054-.631279-7.254593.054981-10.790746-.324859-1.289575.290663 1.026928.618204 2.177352.929988-2.600369.763369-4.813204-.039559-7.343998.38621-.325263-.382522 1.727202-.742582-.907259-1.14589-1.664584.285299-3.357345.574957-5.049063.864279-3.27316-.484439-.1802-.911549-4.466373-1.407722-11.732097.285299-23.465934.553836-35.060273.362742 1.130595.237023 2.266756.475387 3.411266.715092-3.18967-.056322-6.684774.954462-9.735293.366766-3.037648-.410013-.389273-.766386 1.484036-1.126446-6.977336-.594401-19.818809.504218-23.161891.928647-1.734159-.961502-4.563082-1.200872-9.499434-.544784 6.032855.926971.512421.910208-2.77535 1.341007 11.096182-.37347 15.58934.970218 27.628264.480416 1.345234-.416383-1.123289-.18573-2.275105-.476728 2.677249-.992681 4.659791.607811 7.350955-.387551 3.606076 1.152595 3.730964.853886 9.153298 1.90557-13.896579-1.058389-33.313244.742583-43.216561-.852545-.803592.221267-.110624.45963-1.385935.671845-4.7151034.43348 1.219999-.857574-3.3002942-1.167011-1.9279254.452254-3.8074962.717774-5.6540188.855897-.9232613.069397-1.8385214.106275-2.747172.119015-.4543252.006705-.907259.006705-1.3588013.001676-.4971139-.009722-.9928363-.019445-1.4871673-.029502-5.7969955-.115327-11.5432013-.504219-17.4167295-.693971-3.4025692 1.242442-11.4339684 1.115382-19.6062572.802592 1.3306234-.448567 3.7236582-.890764 5.1078544-1.337654 1.3800217-.446891 1.7522484-.899145-1.077718-1.368162 5.9190999-.25915 16.0405345.138794 16.2600439-.819691-7.7903216.121697-7.9997426-.090518-12.0243131-.975582-3.2895097 1.012125-8.6687069.763368-10.2484091 1.533441-3.3493443.161591-6.7007758.019109-10.069949-.049617-3.3629115-.068727-6.744956-.064369-9.9930686.392915-3.9149897-.768397-9.7620793-1.016483-16.2349968-.998715-3.95603898.011063-8.13506609.121696-12.2633034.273565v2.280383c1.102765.143152 1.72407046.330222 1.60474919.56624-.53920686-.040566-1.07284771-.070738-1.60474919-.096218v.602783c1.2808772.004023 2.51444335-.078114 3.67286842-.269542 5.25639721.480415 7.31929828.950774 4.59891271 1.387942-2.83588022-.245405-5.49330035-.11231-8.27178113-.211544v6.017433h1200z" transform="matrix(1 0 0 -1 0 498)"/><path d="m0-3h1200v247h-1200z" fill-rule="nonzero"/></g></svg>