<?xml version="1.0" encoding="UTF-8"?>
<svg width="1200px" height="255px" viewBox="0 0 1200 255" version="1.1" xmlns="http://www.w3.org/2000/svg" xmlns:xlink="http://www.w3.org/1999/xlink">
    <!-- Generator: Sketch 55.2 (78181) - https://sketchapp.com -->
    <title>Artboard</title>
    <desc>Created with Sketch.</desc>
    <g id="Artboard" stroke="none" stroke-width="1" fill="none" fill-rule="evenodd">
        <path d="M1199.56516,245.258926 C1195.35552,244.499246 1190.55692,245.917696 1186.28501,245.359837 C1190.28001,244.179751 1200.18159,244.089568 1199.56516,245.258926 L1199.56516,245.258926 Z M969.705793,247.706599 C974.366975,246.861765 978.721332,247.012628 983.020028,247.598983 C978.388763,248.378443 974.227825,247.315025 969.705793,247.706599 L969.705793,247.706599 Z M845.071432,249.071073 C839.281394,248.582612 840.474259,250.112365 835.343096,249.436498 C834.302253,248.908812 846.96457,247.565123 845.071432,249.071073 L845.071432,249.071073 Z M822.055648,249.543778 C818.006726,249.053976 822.250458,248.636252 819.976397,248.155836 C823.768586,247.540314 827.284911,247.897692 830.869419,248.028776 C830.780015,248.814271 825.63459,248.543722 822.055648,249.543778 L822.055648,249.543778 Z M701.451771,249.352685 C696.458368,248.200089 689.0521,250.067777 690.911147,248.112589 C693.684757,248.674471 702.837707,248.142761 701.451771,249.352685 L701.451771,249.352685 Z M656.612024,250.079511 C655.4616,249.839806 654.324048,249.602783 653.186495,249.36576 C660.092865,248.912499 658.983839,249.103928 662.007224,247.846734 C665.141581,248.223892 668.415436,247.99458 671.410643,248.844443 C666.334794,249.843829 661.48054,249.944739 656.612024,250.079511 L656.612024,250.079511 Z M603.638951,249.59239 C601.704763,248.788121 593.549868,248.938984 595.630511,247.925183 C598.750606,248.97955 607.585597,248.204112 603.638951,249.59239 L603.638951,249.59239 Z M317.05607,247.419623 C320.211647,247.648936 323.658397,246.84869 326.598292,247.964407 C323.879993,248.640275 315.364352,248.348271 317.05607,247.419623 L317.05607,247.419623 Z M161.604819,246.681064 C164.081344,247.073979 163.054763,246.187573 165.287428,246.483265 C162.306136,247.100129 168.991257,246.599933 169.864424,247.437056 C167.540965,248.145108 159.629234,247.33581 161.604819,246.681064 L161.604819,246.681064 Z M88.6803956,251.176119 L88.1881519,251.184835 L87.5699773,251.187517 C87.0610356,251.183494 86.5538333,251.179136 86.0483703,251.174778 C85.0370966,251.158015 84.0313888,251.12382 83.0305513,251.070179 C81.0285284,250.963569 79.0449429,250.778846 77.067967,250.498575 C79.5253588,250.487512 81.939614,250.441247 84.1907157,250.368833 C85.3164405,250.332961 86.401116,250.290384 87.4301314,250.242108 C88.0274335,250.218305 88.2295491,250.192826 88.5628137,250.166005 C88.8699877,250.137174 89.1667254,250.109348 89.4519832,250.082528 C91.73335,249.850198 93.2657411,249.547801 93.4041956,249.242722 C94.5417481,249.635637 93.7920766,250.007767 96.7191002,250.410739 C94.0008019,250.812706 91.3099857,251.114768 88.6803956,251.176119 L88.6803956,251.176119 Z M22.9531664,247.005923 C27.086274,246.522825 31.3108728,246.110801 35.6008721,245.901268 C39.8880885,245.691736 44.2400097,245.684696 48.5599263,246.011901 C44.7242522,247.578197 32.4769511,247.303291 22.9531664,247.005923 L22.9531664,247.005923 Z M27.4985063,249.24004 C22.3861295,249.252445 17.2153096,249.057999 11.9418665,248.76063 C16.8649991,248.283232 22.074781,248.311058 27.261951,248.408951 C32.4606009,248.50718 37.6373347,248.675476 42.7879778,248.479019 C37.6689913,249.008381 32.6136661,249.227636 27.4985063,249.24004 L27.4985063,249.24004 Z M1200,243.196793 C1190.51657,243.876683 1181.31874,244.60552 1174.3581,244.799296 C1170.89013,244.160306 1183.98277,243.671844 1177.24269,243 C1174.88514,244.282003 1168.80393,244.627647 1163.44978,244.926356 C1167.00019,245.181818 1170.53078,245.572051 1174.24748,245.256244 C1174.92619,245.486897 1174.12225,245.706822 1175.26015,245.947868 C1167.82535,246.731016 1161.01569,245.04403 1153.36069,246.656255 C1151.15516,246.25697 1152.50005,245.890205 1150.05866,245.486897 C1144.13782,246.520143 1138.72836,245.759122 1132.95815,246.241549 C1130.94708,245.846958 1130.92725,245.464435 1132.04359,245.093982 C1129.32529,244.724535 1126.2605,245.746047 1123.67997,244.786221 C1121.11508,245.070515 1122.18341,245.383304 1123.45872,245.698776 C1101.18425,245.404425 1086.17865,245.780242 1064.18284,246.297536 C1062.46294,245.820808 1063.73825,245.379281 1066.94218,244.956529 C1063.35037,244.821423 1059.60549,245.336369 1056.02794,245.080907 C1050.11858,245.636084 1058.35697,246.31698 1053.17049,246.87618 C1047.77529,245.915014 1042.07466,246.277756 1036.222,247.178913 C1032.92136,246.687769 1036.00041,246.264681 1031.7285,245.769514 C1029.5101,246.280438 1032.36615,246.838297 1030.11957,247.348885 C1023.615,246.015924 1024.572,247.447114 1015.55681,247.672403 C1012.2847,247.187964 1015.37627,246.758507 1011.09149,246.264681 C1010.05064,246.634129 1009.9682,247.012628 1012.0064,247.415936 C1004.32287,248.04822 988.083007,246.458457 988.511937,244.915964 C977.049791,245.72392 997.445029,246.311952 990.231833,247.66838 C986.099073,247.621445 987.431436,247.012628 982.105464,246.455775 C976.36378,247.309661 969.775368,246.419232 967.196568,248.140079 C961.911993,248.133374 955.893053,248.264458 954.228469,246.878862 C952.119648,247.241605 950.026134,247.601665 947.931576,247.962061 C952.162089,249.202157 949.637209,247.005923 953.881985,248.24736 C950.386881,249.924959 932.814999,248.642957 922.120961,249.775772 C923.965745,248.869587 922.995868,248.098173 928.653714,247.783707 C920.484904,246.488629 918.64012,249.486115 910.083429,249.66581 C904.834337,248.183327 898.890886,249.43918 893.120677,249.970889 C886.630366,248.660055 879.640158,249.224283 872.719525,249.554506 C871.146084,248.556462 879.08634,249.232329 881.415366,248.492429 C879.113474,247.789071 884.965782,247.158127 883.163788,246.458457 C876.368042,247.789071 866.797294,247.972453 860.681992,249.440521 C858.79616,249.000335 855.813476,249.376152 851.181167,248.899424 C848.739778,247.55473 865.632955,248.713695 856.45148,247.124937 C860.278805,246.230486 863.607624,247.437056 867.463475,246.54227 C864.045252,245.444991 853.691784,247.265072 854.399363,245.739677 C850.362964,246.532212 846.091055,246.162429 839.586481,246.96938 C840.142038,245.114768 832.644627,246.910376 826.632992,245.712186 C819.053483,247.017657 811.938388,246.586858 804.511944,247.329441 C804.255212,248.260435 810.239712,248.972845 813.915364,248.328491 C813.041849,249.903839 802.542273,248.946695 798.089816,248.868246 C797.064627,248.155836 800.393447,247.444767 802.111952,247.309661 C801.349409,246.563391 797.88283,246.522825 797.750638,245.447673 C797.091762,247.490362 790.60145,245.964631 783.985904,247.372688 C786.48852,248.586635 789.65836,247.232553 792.237508,248.132033 C788.202502,248.217187 783.971989,249.022797 780.199976,248.022071 C779.062424,247.574174 782.280619,247.837347 783.985904,247.372688 C782.307405,246.916746 778.881876,247.121249 780.560723,246.657596 C776.177841,245.938481 778.730203,248.129687 774.485079,246.829245 C775.622632,247.601665 777.883474,248.378443 773.902736,249.101246 C768.105392,249.069732 773.666876,248.333855 769.437755,247.694865 C766.08041,248.196402 767.24614,248.737163 767.828484,249.275242 C765.796195,249.33961 763.876271,248.952059 761.753188,249.446891 C755.596489,248.401911 765.733926,247.507459 761.295731,246.479578 C759.888228,247.078002 757.690003,247.66201 758.425412,248.276192 C754.153502,249.264849 750.658398,247.221825 746.268906,248.620495 C741.866195,248.04822 743.391629,247.530927 740.67333,246.977091 C735.193945,247.870202 730.132358,247.256021 724.945884,247.060904 C721.783001,248.620495 712.90696,248.133374 706.602762,248.028776 C703.364738,247.541655 712.990798,247.178913 706.956551,246.663966 C701.394719,248.045874 695.459965,247.303291 687.471355,247.397497 C682.408376,247.883277 689.523472,248.479019 685.862083,248.97955 C678.809605,249.187741 684.780191,247.621445 679.093472,247.091077 C675.903802,247.137006 674.599965,247.36196 674.053453,247.958038 C662.673405,245.357155 649.609292,249.154886 637.930768,247.625468 C633.589283,249.131419 630.981957,248.871934 622.925162,249.769067 C620.746419,249.795217 619.374746,248.857518 614.658252,249.010728 C613.507828,247.854445 621.925369,248.442812 624.645058,247.736772 C617.306975,246.979773 611.634519,247.8873 606.296023,248.704308 C600.345614,248.27351 603.1888,247.753534 599.534717,246.818517 C594.701684,247.113203 591.996257,246.439012 589.667231,247.638543 C588.154669,247.325082 586.61532,247.006258 585.089887,246.690451 C587.017116,247.930547 574.147118,248.357322 569.389574,246.77527 C565.381702,248.414986 562.067145,247.689501 555.964715,247.333128 C550.944177,248.118958 556.464612,247.604682 558.155982,248.264458 C555.187561,248.844443 552.524923,248.254065 549.668866,248.412304 C545.161097,247.299268 548.392163,247.316366 550.140237,246.597251 C544.925585,246.560708 539.75894,246.260658 534.897381,244.859641 C536.159821,244.572666 537.387125,244.5321 538.565727,244.668213 C537.921114,243.801252 526.672911,244.179751 521.832921,244.059395 C534.384613,244.795273 531.943571,246.267363 544.064941,246.767559 C532.470602,248.646645 531.305916,245.329664 522.617032,245.659552 C522.790274,246.64955 531.666314,247.718333 530.300208,248.691233 C527.172808,247.800805 518.906245,247.917807 516.327097,246.741409 C512.846256,247.696206 512.610396,248.68084 509.545614,249.644689 C511.140623,248.024753 505.093505,248.088786 500.489026,247.279488 C498.213921,246.64955 505.786472,246.115494 500.946482,245.460748 C498.740952,246.180868 497.603399,246.180868 498.074771,247.256021 C494.885101,247.286193 490.530745,246.411521 493.138419,247.66838 C489.559129,247.629156 486.092551,246.96938 482.611709,246.432307 C482.542134,245.728949 493.616747,246.424596 491.445309,244.916969 C484.885423,245.689725 455.636755,247.500754 461.294601,244.870034 C457.703135,244.7651 453.818759,245.827178 450.414798,244.999776 C444.99803,247.134324 432.419552,245.359837 423.203637,247.48131 C421.268058,245.960943 413.73099,246.891937 416.469117,245.595519 C412.420195,245.215679 413.197001,246.758507 407.64978,247.110521 C398.439779,246.932503 389.356404,246.234509 379.772785,247.540314 C378.940667,246.264681 370.964928,246.58954 370.146725,247.449796 C366.846083,246.217411 363.019106,246.977091 359.606101,246.217411 C360.605895,246.966698 362.436763,246.992848 363.961849,248.079734 C359.266574,248.189697 354.032093,247.24831 352.256537,246.603956 C345.93251,246.344471 348.788567,247.927865 340.246139,246.49634 C339.69093,246.869811 341.5625,247.265072 338.733577,247.618763 C344.045286,247.352908 349.149314,247.732749 354.19803,248.442812 C345.391564,248.35464 336.583359,248.145108 327.735844,248.202771 C327.042877,247.971112 327.846469,247.750182 326.696045,247.511482 C330.843067,247.110521 338.262206,248.099514 338.969437,246.711237 C332.756034,245.960943 326.987216,247.750182 318.582547,246.297536 C316.876914,246.623401 315.184152,246.946918 313.644456,246.707213 C312.576478,247.078002 312.499946,247.453819 314.560759,247.854445 C309.124163,248.606079 304.116497,247.728725 298.735212,248.391518 C294.450779,247.897692 297.542347,247.470917 294.255968,246.986143 C289.512687,247.530927 296.654569,248.140079 290.344805,248.086439 C285.899654,247.456501 293.313226,246.982455 287.044512,246.919428 C283.60472,247.265072 287.432045,247.68179 285.546212,248.041851 C267.252489,245.201263 244.271145,247.790412 229.265539,246.387719 C227.331004,245.917696 232.830219,245.511706 232.012016,245.046712 C225.312979,244.549198 217.962024,246.56976 211.609472,244.633011 C210.57002,245.001118 210.486182,245.379281 212.51847,245.782925 C209.903839,246.586858 207.642996,246.005532 205.078111,246.621054 C202.040115,246.213723 204.703101,245.85735 206.57641,245.49729 C203.122356,244.866011 199.321817,245.552271 195.785664,245.172431 C194.496089,245.463094 196.812592,245.790635 197.963016,246.102419 C195.362647,246.865788 193.149812,246.06286 190.619018,246.488629 C190.293755,246.106107 192.34622,245.746047 189.711759,245.342739 C188.047175,245.628038 186.354414,245.917696 184.662696,246.207018 C181.389536,245.722579 184.482496,245.295469 180.196323,244.799296 C168.464226,245.084595 156.730389,245.353132 145.13605,245.162038 C146.266645,245.399061 147.402806,245.637425 148.547316,245.87713 C145.357646,245.820808 141.862542,246.831592 138.812023,246.243896 C135.774375,245.833883 138.42275,245.47751 140.296059,245.11745 C133.318723,244.523049 120.47725,245.621668 117.134168,246.046097 C115.400009,245.084595 112.571086,244.845225 107.634734,245.501313 C113.667589,246.428284 108.147155,246.411521 104.859384,246.84232 C115.955566,246.46885 120.448724,247.812538 132.487648,247.322736 C133.832882,246.906353 131.364359,247.137006 130.212543,246.846008 C132.889792,245.853327 134.872334,247.453819 137.563498,246.458457 C141.169574,247.611052 141.294462,247.312343 146.716796,248.364027 C132.820217,247.305638 113.403552,249.10661 103.500235,247.511482 C102.696643,247.732749 103.389611,247.971112 102.1143,248.183327 C97.3991966,248.616807 103.334299,247.325753 98.8140058,247.016316 C96.8860804,247.46857 95.0065096,247.73409 93.159987,247.872213 C92.2367257,247.94161 91.3214656,247.978488 90.412815,247.991228 C89.9584898,247.997933 89.505556,247.997933 89.0540137,247.992904 C88.5568998,247.983182 88.0611774,247.973459 87.5668464,247.963402 C81.7698509,247.848075 76.0236451,247.459183 70.1501169,247.269431 C66.7475477,248.511873 58.7161485,248.384813 50.5438597,248.072023 C51.8744831,247.623456 54.2675179,247.181259 55.6517141,246.734369 C57.0317358,246.287478 57.4039625,245.835224 54.5739961,245.366207 C60.493096,245.107057 70.6145306,245.505001 70.83404,244.546516 C63.0437184,244.668213 62.8342974,244.455998 58.8097269,243.570934 C55.5202172,244.583059 50.14102,244.334302 48.5613178,245.104375 C45.2119735,245.265966 41.860542,245.123484 38.4913688,245.054758 C35.1284573,244.986031 31.7464128,244.990389 28.4983002,245.447673 C24.5833105,244.679276 18.7362209,244.43119 12.2633034,244.448958 C8.30726442,244.460021 4.12823731,244.570654 0,244.722523 L0,247.002906 C1.102765,247.146058 1.72407046,247.333128 1.60474919,247.569146 C1.06554233,247.52858 0.531901478,247.498408 0,247.472928 L0,248.075711 C1.2808772,248.079734 2.51444335,247.997597 3.67286842,247.806169 C8.92926563,248.286584 10.9921667,248.756943 8.27178113,249.194111 C5.43590091,248.948706 2.77848078,249.081801 0,248.982567 L0,255 L1200,255 L1200,243.196793 Z" id="Fill-1" fill="#EBECF4" transform="translate(600.000000, 249.000000) scale(1, -1) translate(-600.000000, -249.000000) "></path>
        <rect id="Rectangle" fill="#EBECF4" fill-rule="nonzero" x="0" y="-3" width="1200" height="247"></rect>
    </g>
</svg>