<?xml version="1.0" encoding="UTF-8"?>
<svg width="1199px" height="14px" viewBox="0 0 1199 14" version="1.1" xmlns="http://www.w3.org/2000/svg" xmlns:xlink="http://www.w3.org/1999/xlink">
    <!-- Generator: Sketch 55.2 (78181) - https://sketchapp.com -->
    <title>Fill 1</title>
    <desc>Created with Sketch.</desc>
    <g id="website" stroke="none" stroke-width="1" fill="none" fill-rule="evenodd">
        <path d="M968.897705,5.49103202 C973.555003,4.50539197 977.905731,4.68139912 982.200845,5.36548025 C977.573439,6.27485053 973.415969,5.03419568 968.897705,5.49103202 L968.897705,5.49103202 Z M844.367206,7.08291892 C838.581993,6.51304688 839.773863,8.2977594 834.646977,7.50924736 C833.607001,6.89361345 846.258766,5.32597642 844.367206,7.08291892 L844.367206,7.08291892 Z M821.370602,7.634408 C817.325054,7.06297145 821.565249,6.5756272 819.293083,6.0151422 C823.082113,5.29703302 826.595507,5.71397441 830.177028,5.86690507 C830.087698,6.78331564 824.946561,6.46767615 821.370602,7.634408 L821.370602,7.634408 Z M700.867228,7.41146561 C695.877986,6.06677097 688.47789,8.24573951 690.335387,5.96468682 C693.106686,6.62021568 702.252008,5.99988825 700.867228,7.41146561 L700.867228,7.41146561 Z M656.064847,8.25942895 C654.915382,7.97977315 653.778778,7.70324635 652.642173,7.42671956 C659.542788,6.89791585 658.434685,7.12124937 661.455551,5.6545231 C664.587296,6.09454098 667.858423,5.82701011 670.851135,6.81851707 C665.779515,7.98446667 660.929307,8.1021959 656.064847,8.25942895 L656.064847,8.25942895 Z M603.135918,7.69112142 C601.203343,6.75280773 593.055243,6.92881489 595.134152,5.74604682 C598.251647,6.97614125 607.079276,6.07146449 603.135918,7.69112142 L603.135918,7.69112142 Z M316.791856,5.1562273 C319.944804,5.42375817 323.388681,4.49013801 326.326127,5.79180868 C323.610093,6.58032072 315.101548,6.2396491 316.791856,5.1562273 L316.791856,5.1562273 Z M161.470148,4.29457451 C163.944609,4.75297536 162.918884,3.71883556 165.149688,4.06380958 C162.17088,4.78348327 168.850431,4.19992177 169.722871,5.1765659 C167.401347,6.00262614 159.49621,5.05844555 161.470148,4.29457451 L161.470148,4.29457451 Z M88.6064952,9.53880539 L88.1146618,9.54897469 L87.4970023,9.5521037 C86.9884847,9.54741018 86.4817051,9.54232553 85.9766634,9.53724088 C84.9662323,9.51768453 83.9613626,9.47778957 82.9613592,9.41520925 C80.9610046,9.29083087 78.9790721,9.07531989 77.0037437,8.74833771 C79.4590877,8.73543052 81.871331,8.68145499 84.1205568,8.59697156 C85.2453435,8.55512097 86.3291151,8.50544784 87.357273,8.44912555 C87.9540773,8.42135553 88.1560244,8.39162988 88.4890113,8.36033972 C88.7959293,8.3267028 89.0924198,8.29423926 89.3774399,8.2629491 C91.6569056,7.99189808 93.1880197,7.63910153 93.3263587,7.28317595 C94.4629633,7.7415768 93.7139166,8.17572778 96.6385009,8.64586244 C93.9224679,9.11482371 91.233894,9.46722914 88.6064952,9.53880539 L88.6064952,9.53880539 Z M22.9340388,4.67357658 C27.0637021,4.10996256 31.2847804,3.62926747 35.5712047,3.3848131 C39.8548484,3.14035872 44.203143,3.13214505 48.5194597,3.51388501 C44.686982,5.34123037 32.449887,5.02050623 22.9340388,4.67357658 L22.9340388,4.67357658 Z M27.4755909,7.28004694 C22.3674744,7.29451863 17.2009636,7.06766497 11.931915,6.72073532 C16.850945,6.16377046 22.0563854,6.19623401 27.2392327,6.31044309 C32.4335504,6.4250433 37.6059702,6.62138906 42.7523211,6.39218863 C37.6376005,7.00977818 32.5864881,7.26557524 27.4755909,7.28004694 L27.4755909,7.28004694 Z M1199,2.00961055 C1190.44687,2.38783036 1180.33431,1.87310722 1173.37947,2.09917863 C1169.91439,1.35369056 1182.99612,0.783818517 1176.26165,0 C1173.90606,1.49566967 1167.82992,1.89892161 1162.48023,2.24741577 C1166.02769,2.54545455 1169.55534,3.00072638 1173.26894,2.63228474 C1173.94708,2.90138012 1173.14381,3.15795943 1174.28076,3.43917975 C1166.85216,4.35285243 1160.04818,2.38470135 1152.39956,4.26563111 C1150.19587,3.79979885 1151.53963,3.37190591 1149.10028,2.90138012 C1143.18437,4.10683355 1137.77942,3.21897525 1132.01402,3.78180701 C1130.00463,3.32145052 1129.98481,2.87517461 1131.10022,2.44297927 C1128.38418,2.01195731 1125.32195,3.20372129 1122.74357,2.08392468 C1120.18082,2.41560038 1121.24825,2.78052188 1122.5225,3.14857239 C1100.2666,2.80516288 1085.2735,3.24361625 1063.29602,3.84712522 C1061.57755,3.29094262 1062.8518,2.77582835 1066.05307,2.2826172 C1062.46425,2.12499302 1058.72249,2.72576409 1055.14792,2.42772532 C1049.24348,3.07543164 1057.475,3.86981058 1052.29285,4.52221043 C1046.90215,3.4008493 1041.20626,3.82404872 1035.35849,4.87539811 C1032.06059,4.30239705 1035.13707,3.80879477 1030.86872,3.23110018 C1028.65217,3.82717774 1031.50585,4.47801307 1029.26114,5.0736995 C1022.76199,3.51857853 1023.71819,5.18829972 1014.71052,5.45113706 C1011.44113,4.88595854 1014.53012,4.38492485 1010.24891,3.80879477 C1009.20893,4.23981673 1009.12656,4.68139912 1011.16306,5.1519249 C1003.48594,5.88959043 987.259604,4.03486618 987.688177,2.23529083 C976.235582,3.17790691 996.613825,3.86394368 989.40664,5.44644354 C985.277324,5.39168576 986.608576,4.68139912 981.287042,4.03173716 C975.550144,5.02793764 968.967222,3.98910432 966.390571,5.99675923 C961.110399,5.98893669 955.096475,6.14186735 953.433279,4.52533944 C951.326215,4.94853886 949.234446,5.36860926 947.141633,5.78907079 C951.368621,7.23584958 948.845845,4.67357658 953.087083,6.12191987 C949.594892,8.07911941 932.037653,6.58344974 921.352527,7.90506789 C923.195773,6.8478516 922.226705,5.94786836 927.879835,5.58099123 C919.717833,4.07006761 917.874587,7.56713416 909.325026,7.77677823 C904.080309,6.04721462 898.141811,7.51237638 892.37641,8.13270381 C885.891507,6.60339722 878.907124,7.26166397 871.992258,7.64692407 C870.420129,6.48253897 878.353768,7.27105101 880.680853,6.40783372 C878.38088,5.58724926 884.228311,4.85114824 882.427818,4.03486618 C875.637735,5.58724926 866.074963,5.80119573 859.964757,7.51394088 C858.080496,7.00039113 855.100298,7.4388445 850.47185,6.8826619 C848.032495,5.31385148 864.911594,6.66597754 855.73777,4.81242666 C859.561906,3.76889982 862.887951,5.1765659 866.740589,4.13264793 C863.325214,2.85248924 852.980374,4.97591775 853.687363,3.19628988 C849.654329,4.12091412 845.385979,3.68950103 838.886825,4.63094373 C839.441919,2.46722914 831.950756,4.56210538 825.944132,3.16421747 C818.370939,4.68726602 811.261772,4.18466782 803.841517,5.05101414 C803.584999,6.13717383 809.564512,6.96831871 813.237101,6.21657261 C812.364314,8.0544784 801.873488,6.93781081 797.424741,6.84628709 C796.400407,6.0151422 799.726453,5.18556183 801.443525,5.02793764 C800.681617,4.15728893 797.217928,4.10996256 797.085846,2.85561826 C796.427519,5.2387551 789.942616,3.4587361 783.332583,5.10146952 C785.833113,6.5177404 789.000312,4.93797843 791.577311,5.98737219 C787.545666,6.08671844 783.318679,7.02659664 779.54981,5.85908253 C778.413205,5.33653685 781.628718,5.64357155 783.332583,5.10146952 C781.655482,4.56953679 778.232808,4.80812427 779.910256,4.26719562 C775.531026,3.42822819 778.081261,5.9846343 773.839675,4.46745265 C774.97628,5.36860926 777.235238,6.27485053 773.257817,7.11812036 C767.465305,7.08135442 773.022154,6.22283064 768.796557,5.47734257 C765.442009,6.06246857 766.606768,6.69335643 767.188626,7.32111527 C765.158032,7.39621166 763.239708,6.94406884 761.118393,7.5213723 C754.966825,6.30222942 765.095814,5.25870258 760.661318,4.05950718 C759.254987,4.75766888 757.058595,5.43901212 757.79339,6.1555568 C753.525041,7.30899033 750.032849,4.92546237 745.647015,6.55724423 C741.247973,5.88959043 742.772136,5.28608147 740.056102,4.63993965 C734.581283,5.68190199 729.523914,4.96535732 724.341762,4.73772141 C721.181515,6.55724423 712.312871,5.98893669 706.013926,5.86690507 C702.778601,5.29859753 712.396639,4.87539811 706.367421,4.27462703 C700.810224,5.88685255 694.880415,5.02050623 686.898462,5.13041292 C681.839702,5.69715595 688.948869,6.39218863 685.290531,6.97614125 C678.243931,7.21903112 684.20954,5.39168576 678.52756,4.77292284 C675.340549,4.82650724 674.037798,5.08895346 673.491742,5.78437727 C662.121177,2.75001397 649.067951,7.18070068 637.399159,5.39637928 C633.061292,7.15332179 630.456138,6.85058948 622.406058,7.89724535 C620.22913,7.92775325 618.858601,6.83377102 614.146036,7.01251606 C612.996571,5.66351903 621.407097,6.34994692 624.124521,5.52623345 C616.792552,4.64306867 611.124823,5.70184947 605.790776,6.65502598 C599.845326,6.15242778 602.686142,5.5457898 599.035104,4.45493658 C594.206099,4.79873722 591.502927,4.01218081 589.175842,5.41163323 C587.66454,5.04592949 586.126474,4.6739677 584.602312,4.30552607 C586.527935,5.75230486 573.668662,6.25020953 568.915083,4.4044812 C564.910551,6.31748338 561.598756,5.47108454 555.501411,5.05531653 C550.485057,5.97211823 556.000891,5.37212941 557.690852,6.14186735 C554.724905,6.81851707 552.064486,6.12974241 549.210809,6.31435436 C544.706796,5.01581271 547.93517,5.03576018 549.681787,4.19679276 C544.47148,4.15415992 539.309141,3.80410125 534.451633,2.16958149 C535.713021,1.83477678 536.939303,1.78745041 538.116922,1.94624797 C537.472846,0.934793541 526.234017,1.37637593 521.39806,1.23596133 C533.939292,2.09448511 531.500285,3.81192379 543.611554,4.39548528 C532.026877,6.58775214 530.863161,2.71794155 522.181518,3.10281053 C522.354615,4.25780857 531.223259,5.50472146 529.858291,6.63977203 C526.733497,5.6009387 518.473823,5.73744203 515.896824,4.36497737 C512.418884,5.47890708 512.183221,6.62764709 509.120993,7.75213723 C510.714672,5.86221154 504.672593,5.9369168 500.071952,4.99273621 C497.798742,4.25780857 505.364984,3.63474325 500.529027,2.87087221 C498.325335,3.71101302 497.18873,3.71101302 497.659708,4.96535732 C494.472697,5.00055875 490.121969,3.9801084 492.72747,5.44644354 C489.151163,5.40068168 485.687473,4.63094373 482.209533,4.00435827 C482.140016,3.18377382 493.2054,3.99536235 491.035771,2.23646421 C484.481352,3.13801196 455.257058,5.25088004 460.910189,2.18170643 C457.321716,2.05928368 453.440576,3.29837403 450.039452,2.33307258 C444.627198,4.82337822 432.059202,2.75314298 422.850967,5.22819467 C420.917001,3.4544337 413.386214,4.5405934 416.122059,3.02810527 C412.076512,2.58495837 412.85267,4.38492485 407.310072,4.7956082 C398.107746,4.58791976 389.031941,3.77359334 379.456308,5.29703302 C378.624883,3.80879477 370.655791,4.18779684 369.83827,5.19142873 C366.540378,3.75364586 362.71659,4.63993965 359.306429,3.75364586 C360.30539,4.62781472 362.134732,4.65832262 363.658547,5.92635637 C358.967185,6.05464603 353.737067,4.9563614 351.96299,4.2046153 C345.644233,3.901883 348.49791,5.74917584 339.962601,4.07906353 C339.407854,4.51477901 341.277864,4.97591775 338.451299,5.38855674 C343.758582,5.07839303 348.858356,5.52153992 353.902865,6.34994692 C345.103738,6.24708052 336.302873,6.00262614 327.462731,6.06989998 C326.770341,5.79963122 327.573263,5.54187853 326.423798,5.2633961 C330.567365,4.7956082 337.980321,5.94943287 338.686962,4.32977594 C332.478737,3.4544337 326.714727,5.54187853 318.317061,3.84712522 C316.61285,4.22730066 314.921499,4.60473822 313.383085,4.32508242 C312.315998,4.75766888 312.239529,5.19612226 314.298626,5.66351903 C308.866559,6.54042577 303.863066,5.5168464 298.486266,6.29010449 C294.205403,5.71397441 297.294395,5.21606973 294.010755,4.65050008 C289.271427,5.28608147 296.407357,5.99675923 290.102851,5.93417891 C285.661404,5.19925127 293.068798,4.64619769 286.805308,4.57266581 C283.368382,4.97591775 287.192518,5.46208862 285.308257,5.88215902 C267.029778,2.56813991 244.067585,5.58881377 229.074485,3.95233838 C227.141562,3.40397832 232.636193,2.93032352 231.818672,2.38783036 C225.125218,1.80739789 217.780389,4.16472034 211.43313,1.90517964 C210.394545,2.33463709 210.310777,2.77582835 212.341371,3.24674526 C209.728919,4.18466782 207.469961,3.5064536 204.907213,4.22456278 C201.871748,3.74934347 204.532515,3.33357546 206.404263,2.91350506 C202.953087,2.17701291 199.155715,2.97764989 195.622509,2.53450299 C194.334009,2.8736101 196.648581,3.25574119 197.798046,3.6194893 C195.199845,4.51008549 192.988853,3.57333631 190.460169,4.07006761 C190.135177,3.6237917 192.185931,3.20372129 189.553666,2.73319551 C187.890469,3.06604459 186.199118,3.40397832 184.50881,3.74152093 C181.238378,3.1763424 184.328761,2.6780466 180.04616,2.09917863 C168.323839,2.43202771 156.59978,2.74532044 145.015103,2.52237805 C146.144756,2.79890484 147.27997,3.07699614 148.423526,3.35665195 C145.236515,3.29094262 141.744323,4.47019053 138.696346,3.7845449 C135.66123,3.30619657 138.307398,2.89042856 140.179146,2.47035816 C133.207624,1.77688998 120.376853,3.05861318 117.036556,3.55377996 C115.303842,2.43202771 112.477277,2.15276303 107.545039,2.91819858 C113.572866,3.99966475 108.057032,3.9801084 104.772002,4.4827066 C115.858936,4.04699112 120.348351,5.61462815 132.377242,5.0431916 C133.721355,4.55741186 131.254888,4.82650724 130.104033,4.487009 C132.779051,3.32888194 134.75994,5.19612226 137.448862,4.03486618 C141.051933,5.37956082 141.176716,5.03106666 146.594532,6.25803207 C132.709534,5.02324412 113.309049,7.12437839 103.413985,5.2633961 C102.611063,5.52153992 103.303453,5.79963122 102.029204,6.04721462 C97.3180306,6.55294183 103.248187,5.04671174 98.7316608,4.68570151 C96.805342,5.21333184 94.9273375,5.52310443 93.0823537,5.68424876 C92.1598618,5.76521205 91.2453643,5.80823602 90.337471,5.82309884 C89.8835244,5.83092138 89.430968,5.83092138 88.9798021,5.82505448 C88.4831024,5.8137118 87.9877931,5.80236911 87.4938741,5.7906353 C81.7017093,5.65608761 75.9602921,5.20238029 70.0916585,4.9810024 C66.6919247,6.43051908 58.6672183,6.28228195 50.5017398,5.91736045 C51.8312543,5.39403252 54.222295,4.878136 55.6053377,4.3567637 C56.9842094,3.83539141 57.3561258,3.30776108 54.5285178,2.7605744 C60.4426851,2.45823322 70.5556851,2.92250098 70.7750116,1.80426887 C62.9911819,1.94624797 62.7819355,1.69866458 58.7607188,0.666089289 C55.4739504,1.84690172 50.0992358,1.55668548 48.5208501,2.45510421 C45.1742969,2.64362742 41.8256582,2.47739845 38.4592926,2.39721741 C35.0991836,2.31703637 31.7199574,2.32212103 28.4745516,2.85561826 C24.5628244,1.95915517 18.7206074,1.66972118 12.253084,1.69045091 C8.3003417,1.7033581 4.12479711,1.83243002 0,2.00961055 L0,14 L1199,14 L1199,2.00961055 Z" id="Fill-1" fill="#FFF5B3" transform="translate(599.500000, 7.000000) scale(-1, 1) translate(-599.500000, -7.000000) "></path>
    </g>
</svg>