<svg height="13" viewBox="0 0 1200 13" width="1200" xmlns="http://www.w3.org/2000/svg"><path d="m1199.22134 879.342973c-4.20783-.787945-9.00435.68328-13.27441.104665 3.99327-1.223993 13.89058-1.317531 13.27441-.104665zm-229.760187 2.538742c4.659172-.876267 9.011649-.719791 13.308491-.111619-4.629267.808461-8.78841-.294524-13.308491.111619zm-124.580585 1.415242c-5.78754-.506635-4.59519 1.080035-9.724138.379021-1.040394-.54732 11.616459-1.941003 9.724138-.379021zm-23.005853.490293c-4.047175-.508027.194726-.941292-2.078355-1.439583 3.790554-.638423 7.305361-.267748 10.888323-.131788-.089366.814721-5.232571.534107-8.809968 1.571371zm-120.55184-.198203c-4.991249-1.19548-12.394321.741698-10.536077-1.286236 2.772414.582787 11.921414.031295 10.536077 1.286236zm-44.8204.753868c-1.149928-.248623-2.28699-.494465-3.424051-.740307 6.90339-.470125 5.794842-.271574 8.816922-1.575543 3.133005.391191 6.405448.153346 9.399363 1.03483-5.07366 1.036569-9.925819 1.141235-14.792234 1.28102zm-52.950218-.505245c-1.933352-.834193-10.084729-.677716-8.004984-1.729238 3.118748 1.093596 11.949928.289308 8.004984 1.729238zm-286.459229-2.253607c3.154216.237844 6.599479-.592177 9.538105.565053-2.717125.701014-11.229093.398146-9.538105-.565053zm-155.384178-.766039c2.475456.407534 1.449319-.511852 3.68102-.205158-2.980006.639814 3.702231.121008 4.575021.989278-2.322457.734396-10.230773-.105013-8.256041-.78412zm-72.892959 4.662301-.4920312.00904-.6179079.002782c-.5087221-.004172-1.0157056-.008693-1.5209505-.013213-1.0108374-.017387-2.0161112-.052855-3.0165169-.108491-2.0011591-.110576-3.9838887-.302173-5.9600116-.592871 2.4563315-.011475 4.8695451-.059461 7.1196755-.13457 1.125239-.037207 2.2094465-.081368 3.2380179-.13144.5970444-.024689.7990728-.051116 1.1321936-.078934.3070414-.029904.6036511-.058765.8887859-.086583 2.2803825-.240974 3.8121124-.554622 3.9505071-.871052 1.1370617.407534.3877137.793509 3.3134743 1.211475-2.7171255.416922-5.4067806.730223-8.0352362.793857zm-65.6988698-4.325355c4.1313242-.501073 8.3541002-.928427 12.6422486-1.145755 4.2853665-.217329 8.63541-.224631 12.9534627.114749-3.8340191 1.624573-16.0760359 1.339438-25.5957113 1.031006zm4.5433787 2.317241c-5.110171.012866-10.2787598-.188815-15.5499276-.497247 4.9210084-.495161 10.1285425-.4663 15.3134744-.364764 5.1964068.101883 10.370907.276442 15.5193277.072675-5.1167777.549058-10.1699217.77647-15.2828745.789336zm1171.9956001-6.268096c-9.47934.705187-18.6732 1.461141-25.63084 1.662127-3.46647-.662765 9.62052-1.169401 2.88334-1.866242-2.35653 1.329702-8.43512 1.688206-13.78696 1.99803 3.54889.264966 7.07795.669718 10.79305.342161.67841.239235-.12518.467343 1.01223.717358-7.43159.812286-14.23831-.937468-21.89001.734743-2.20458-.414141-.86027-.794552-3.30061-1.212866-5.91828 1.07169-11.32541.282353-17.09313.78273-2.0102-.409273-2.03002-.806027-.91417-1.190264-2.71712-.383193-5.78058.676326-8.36001-.319212-2.56378.294871-1.49591.619299-.22115.946509-22.26485-.305303-37.26398.084497-59.25031.621037-1.71915-.494465-.44439-.95242 2.75816-1.390901-3.59026-.140133-7.33353.393973-10.90953.129006-5.90681.575833 2.32802 1.282063-2.85622 1.862069-5.39287-.996929-11.09105-.62069-16.94118.313996-3.29921-.509418-.2215-.948247-4.49156-1.461837-2.21745.529933.63738 1.108548-1.60823 1.638134-6.50177-1.382556-5.54518.101883-14.55648.335554-3.2707-.502463-.18047-.947899-4.4634-1.460098-1.0404.383193-1.12281.775775.91452 1.194089-7.68021.65581-23.913072-.993104-23.484327-2.592988-11.457201.838018 8.929238 1.447928 1.719154 2.854825-4.130977-.048682-2.799189-.680151-8.122863-1.257723-5.739206.885657-12.324776-.037902-14.902463 1.746972-5.282295-.006954-11.298638.129006-12.962504-1.308142-2.107911.376238-4.200521.749695-6.294176 1.1235 4.228688 1.286236 1.704898-.991712 5.947842.295914-3.493596 1.740018-21.057897.410316-31.74732 1.58528 1.843987-.939901.874529-1.740017 6.529933-2.066184-8.165285-1.343263-10.009272 1.765749-18.562271 1.95213-5.246827-1.537641-11.187714-.235062-16.955434.31643-6.48751-1.359606-13.474703-.774384-20.39235-.431875-1.572761-1.035178 6.364069-.334164 8.69209-1.101593-2.300899-.729528 3.548884-1.383947 1.747667-2.10965-6.792814 1.380122-16.359432 1.570328-22.472095 3.093017-1.885019-.456564-4.866416-.066764-9.496726-.561229-2.440336-1.394726 14.445552-.19264 5.268039-1.84051 3.825673-.927731 7.153057.323732 11.007244-.604347-3.416749-1.138104-13.765749.749696-13.058476-.832454-4.034657.822023-8.304723.438482-14.806491 1.275457.555317-1.923617-6.938858-.0612-12.947899-1.30397-7.576239 1.354042-14.688264.907215-22.111504 1.677426-.256621.965634 5.725297 1.70455 9.399363 1.036222-.873139 1.633961-11.368184.641205-15.81872.559838-1.024746-.738917 2.302637-1.476442 4.0204-1.616575-.762214-.774037-4.227296-.816112-4.359432-1.931267-.658591 2.118691-7.146102.536193-13.758794 1.996639 2.501535 1.259113 5.670008-.145349 8.248044.787598-4.033266.088322-8.261953.923906-12.032339-.114054-1.137061-.464561 2.079745-.191597 3.784295-.673544-1.677775-.472906-5.101826-.260794-3.423704-.741698-4.380991-.745871-1.82973 1.526862-6.073022.178035 1.137062.801159 3.396929 1.606839-.582092 2.356535-5.794842-.032686-.235758-.795944-4.463054-1.458708-3.355897.520197-2.19067 1.081078-1.608577 1.639177-2.031412.066763-3.950508-.335207-6.072675.178035-6.154042-1.083859 3.979021-2.01159-.457259-3.077716-1.406896.62069-3.604173 1.226427-2.869081 1.86346-4.270067 1.025442-7.763663-1.093596-12.151261.357114-4.400811-.593567-2.876036-1.130108-5.593161-1.70455-5.477021.92634-10.536424.289308-15.720661.086932-3.161518 1.617618-12.033729 1.112373-18.335207 1.003882-3.236627-.505244 6.38528-.881483.353637-1.415589-5.559432 1.433323-11.491626.663112-19.47679.760823-5.060794.503854 2.051232 1.121762-1.608577 1.640915-7.049435.215938-1.081426-1.408635-6.765691-1.958736-3.188293.047638-4.491568.280962-5.037844.899217-11.375138-2.697652-24.433614 1.24138-36.1071-.344943-4.339611 1.561982-6.945812 1.292843-14.99913 2.223355-2.177804.027123-3.548885-.945465-8.263344-.786554-1.149928-1.199305 7.263981-.589047 9.982498-1.321356-7.334918-.785164-13.004926.156128-18.341119 1.003535-5.947841-.446827-3.105882-.986149-6.758389-1.955955-4.830947.305651-7.535207-.393625-9.863228.850536-1.511909-.325123-3.050594-.65581-4.575369-.983367 1.926398 1.286236-10.938047 1.72889-15.693538.087975-4.006143 1.700724-7.31927.948246-13.419067.578614-5.018372.815069.499681.281658 2.190321.965981-2.96714.601565-5.628629-.010779-8.483454.153347-4.505824-1.154448-1.276152-1.136714.471168-1.882585-5.212402-.037902-10.376818-.349116-15.236279-1.80226 1.261895-.297653 2.48867-.339727 3.666763-.198551-.644335-.899218-11.887685-.506636-16.725587-.631469 12.546277.763257 10.106288 2.290119 22.222428 2.808925-11.589336 1.949-12.75352-1.491394-21.438655-1.149232.173167 1.026833 9.045378 2.135381 7.679861 3.14448-3.12605-.923559-11.389047-.802203-13.967082-2.022371-3.479339.990322-3.715097 2.011591-6.778557 3.011301 1.59432-1.680208-4.450188-1.613793-9.05268-2.453202-2.274124-.653375 5.29516-1.207302.457258-1.886409-2.204578.746914-3.34164.746914-2.870472 1.862069-3.188293.031295-7.540771-.87592-4.934222.427702-3.577746-.040684-7.042828-.725007-10.522167-1.282063-.069545-.729528 11.000289-.007998 8.829788-1.571719-6.557056.801507-35.793103 2.679919-30.137699-.048681-3.589916-.108838-7.472617.992755-10.875109.134569-5.41443 2.213967-17.987482.373457-27.19942 2.573863-1.934744-1.576934-9.46856-.611301-6.731614-1.955955-4.047175-.393973-3.270704 1.206259-8.815532 1.571371-9.206027-.184642-18.285483-.908606-27.864967.445784-.831759-1.323095-8.804057-.986149-9.621906-.093886-3.299218-1.278238-7.124544-.490293-10.536077-1.278238.999363.777166 2.829441.804288 4.353869 1.931614-4.693249.114054-9.925471-.862359-11.700261-1.530687-6.321298-.269139-3.466474 1.373167-12.005216-.11162-.55497.387366 1.315792.797334-1.51191 1.164184 5.309418-.275746 10.411243.118227 15.457781.854709-8.802666-.091452-17.607071-.30878-26.450768-.248971-.692669-.240278.110576-.469429-1.039351-.71701 4.145233-.415879 11.56117.60991 12.268096-.83002-6.210722-.778209-11.97705 1.077601-20.378093-.429093-1.704897.337989-3.396929.673544-4.935961.42492-1.067517.384585-1.144016.774385.915909 1.189916-5.434251.7796-10.439757-.130397-15.81872.557056-4.282584-.512199-1.19235-.954853-4.477311-1.457664-4.741234.565053 2.397566 1.19687-3.909475 1.141234-4.443234-.653376 2.96714-1.145059-3.29887-1.210432-3.438308.358505.387366.790728-1.497653 1.164185-18.28583-2.946277-41.257259-.260794-56.256389-1.715677-1.933701-.487511 3.563141-.908606 2.745291-1.390901-6.696146-.516024-14.043929 1.579716-20.393741-.429093-1.039003.381802-1.122805.774036.908606 1.192698-2.613503.833845-4.87337.230889-7.437148.869313-3.036685-.422486-.374848-.792118 1.497652-1.165575-3.452564-.654767-7.251463.057027-10.786091-.336946-1.289017.301478 1.026485.641205 2.176413.96459-2.599247.79177-4.811127-.041032-7.340829.400579-.325123-.396754 1.726456-.770211-.906867-1.188525-1.663866.295915-3.355897.596349-5.046885.896436-3.271748-.502463-.180122-.945465-4.464445-1.460098-11.727036.295914-23.45581.574442-35.045147.376238 1.130108.245842 2.265778.493075 3.409795.741698-3.188294-.058417-6.68189.989974-9.731093.380412-3.036337-.425268-.389104-.7949 1.483396-1.168357-6.974326-.616517-19.810258.522979-23.151898.963199-1.73341-.997276-4.561112-1.245552-9.495334-.565054 6.030252.961461.512199.944075-2.774153 1.390902 11.091394-.387366 15.582614 1.006317 27.616343.49829 1.344654-.431875-1.122805-.19264-2.274123-.494465 2.676094-1.029615 4.65778.630426 7.347783-.401971 3.60452 1.19548 3.729354.885656 9.149348 1.976471-13.890582-1.097769-33.29887.770211-43.197914-.884266-.803245.229499-.110576.476732-1.385337.696842-4.7130688.449609 1.219472-.889481-3.2988701-1.210432-1.9270935.469081-3.8058533.74448-5.6515792.887743-.9228629.071979-1.8377282.110229-2.7459867.123442-.4541292.006955-.9068675.006955-1.358215.001739-.4968994-.010084-.992408-.020168-1.4865256-.0306-5.7944944-.119617-11.5382208-.522979-17.4092148-.719791-3.4011011 1.28867-11.429035 1.156882-19.5977977.832454 1.3300493-.465256 3.7220516-.923906 5.1056505-1.387424 1.3794263-.463518 1.7514924-.932599-1.0772529-1.419067 5.9165459-.268792 16.0336134.143958 16.2530281-.850188-7.7869603.126224-7.9962909-.093886-12.0191249-1.011881-3.2880904 1.049783-8.6649667.791771-10.2439873 1.590496-3.3478991.167603-6.6978846.01982-10.0656041-.051464-3.3614605-.071283-6.7420458-.066763-9.9887569.407534-3.9133005-.796986-9.7578673-1.054303-16.2279919-1.035873-3.95433208.011475-8.13155607.126224-12.25801217.283744v2.365227c1.10228919.148479 1.72332657.342509 1.6040568.587308-.53897421-.042075-1.07238482-.07337-1.6040568-.099797v.62521c1.28032454.004173 2.51335845-.08102 3.67128369-.279571 5.25412923.49829 7.31614028.986149 4.59692842 1.439583-2.83465662-.254535-5.49093016-.116488-8.26821211-.219415v6.241321h1199.48224167z" fill="#052ab5" fill-rule="evenodd" transform="matrix(-1 0 0 1 1199.829754 -877)"/></svg>