<svg height="14" viewBox="0 0 1199 14" width="1199" xmlns="http://www.w3.org/2000/svg"><g fill="none" fill-rule="evenodd"><path d="m0 0h1199v14h-1199z" fill="#fff5b3"/><path d="m968.897705 5.49103202c4.657298-.98564005 9.008026-.8096329 13.30314-.12555177-4.627406.90937028-8.784876-.33128457-13.30314.12555177zm-124.530499 1.5918869c-5.785213-.56987204-4.593343 1.21484048-9.720229.42632844-1.039976-.61563391 11.611789-2.18327094 9.720229-.42632844zm-22.996604.55148908c-4.045548-.57143655.194647-1.0587808-2.077519-1.6192658 3.78903-.71810918 7.302424-.30116779 10.883945-.14823713-.08933.91641057-5.230467.60077108-8.806426 1.76750293zm-120.503374-.22294239c-4.989242-1.34469464-12.389338.8342739-10.531841-1.44677879 2.771299.65552886 11.916621.03520143 10.531841 1.44677879zm-44.802381.84796334c-1.149465-.2796558-2.286069-.5561826-3.422674-.83270939 6.900615-.52880371 5.792512-.30547019 8.813378-1.77219646 3.131745.44001788 6.402872.17248701 9.395584 1.16399397-5.07162 1.1659496-9.921828 1.28367883-14.786288 1.44091188zm-52.928929-.56830753c-1.932575-.93831369-10.080675-.76230653-8.001766-1.9450746 3.117495 1.23009443 11.945124.32541767 8.001766 1.9450746zm-286.344062-2.53489412c3.152948.26753087 6.596825-.66608929 9.534271.63558138-2.716034.78851204-11.224579.44784042-9.534271-.63558138zm-155.321708-.86165279c2.474461.45840085 1.448736-.57573895 3.67954-.23076493-2.978808.71967369 3.700743.13611219 4.573183 1.11275632-2.321524.82606024-10.226661-.11812035-8.252723-.88199139zm-72.8636528 5.24423088-.4918334.0101693-.6176595.00312901c-.5085176-.00469352-1.0152972-.00977817-1.5203389-.01486282-1.0104311-.01955635-2.0153008-.05945131-3.0153042-.12203163-2.0003546-.12437838-3.9822871-.33988936-5.9576155-.66687154 2.455344-.01290719 4.8675873-.06688272 7.1168131-.15136615 1.1247867-.04185059 2.2085583-.09152372 3.2367162-.14784601.5968043-.02777002.7987514-.05749567 1.1317383-.08878583.306918-.03363692.6034085-.06610046.8884286-.09739062 2.2794657-.27105102 3.8105798-.62384757 3.9489188-.97977315 1.1366046.45840085.3875579.89255183 3.3121422 1.36268649-2.716033.46896127-5.4046069.8213667-8.0320057.89294295zm-65.6724564-4.86522881c4.1296633-.56361402 8.3507416-1.04430911 12.6371659-1.28876348 4.2836437-.24445438 8.6319383-.25266805 12.948255.12907191-3.8324777 1.82734536-16.0695727 1.50662122-25.5854209 1.15969157zm4.5415521 2.60647036c-5.1081165.01447169-10.2746273-.21238197-15.5436759-.55931162 4.91903-.55696486 10.1244704-.52450131 15.3073177-.41029223 5.1943177.11460021 10.3667375.31094597 15.5130884.08174554-5.1147206.61758955-10.165833.87338661-15.2767302.88785831zm1171.5244091-5.27043639c-8.55313.37821981-18.66569-.13650333-25.62053.08956808-3.46508-.74548807 9.61665-1.31536011 2.88218-2.09917863-2.35559 1.49566967-8.43173 1.89892161-13.78142 2.24741577 3.54746.29803878 7.07511.75331061 10.78871.38486897.67814.26909538-.12513.52567469 1.01182.80689501-7.4286.91367268-14.23258-1.0544784-21.8812.82645136-2.20369-.46583226-.85993-.8937252-3.29928-1.36425099-5.91591 1.20545343-11.32086.31759513-17.08626.88042689-2.00939-.46035649-2.02921-.9066324-.9138-1.33882774-2.71604-.43102196-5.77827.76074202-8.35665-.35905459-2.56275.3316757-1.49532.6965972-.22107 1.06464771-22.2559-.34340951-37.249.09504386-59.22648.69855283-1.71847-.5561826-.44422-1.07129687 2.75705-1.56450802-3.58882-.15762418-7.33058.44314689-10.90515.14510812-5.90444.64770632 2.32708 1.44208526-2.85507 2.09448511-5.3907-1.12136113-11.08659-.69816171-16.93436.35318768-3.2979-.57300106-.22142-1.06660334-4.48977-1.64429793-2.21655.59607756.63713 1.24691289-1.60758 1.84259932-6.49915-1.55512097-5.54295.11460022-14.55062.37743756-3.26939-.56517852-.1804-1.06621221-4.46161-1.64234229-1.03998.43102196-1.12235.87260435.91415 1.34313013-7.67712.73766553-23.903456-1.11705872-23.474883-2.91663407-11.452595.94261608 8.925648 1.62865285 1.718463 3.21115271-4.129316-.05475778-2.798064-.76504442-8.119598-1.41470638-5.736898.99620048-12.31982-.04263284-14.896471 1.96502207-5.280172-.00782254-11.294096.14510812-12.957292-1.47141979-2.107064.42319942-4.198833.84326982-6.291646 1.26373135 4.226988 1.44677879 1.704212-1.11549421 5.94545.33284908-3.492191 1.95719954-21.04943.46152987-31.734556 1.78314802 1.843246-1.05721629.874178-1.95719953 6.527308-2.32407666-8.162002-1.51092362-10.005248 1.98614293-18.554809 2.195787-5.244717-1.72956361-11.183215-.26440185-16.948616.35592558-6.484903-1.52930659-13.469286-.87103984-20.384152-.48577974-1.572129-1.1643851 6.36151-.37587306 8.688595-1.23909035-2.299973-.82058446 3.547458-1.55668548 1.746965-2.37296754-6.790083 1.55238308-16.352855 1.76632955-22.463061 3.4790747-1.884261-.51354975-4.864459-.07509638-9.492907-.63127898-2.439355-1.56881042 14.439744-.21668436 5.26592-2.07023524 3.824136-1.04352684 7.150181.36413924 11.002819-.67977873-3.415375-1.28015869-13.760215.84326982-13.053226-.93635805-4.033034.92462424-8.301384.49321115-14.800538 1.43465385.555094-2.16371459-6.936069-.06883835-12.942693-1.46672626-7.573193 1.52304855-14.68236 1.02045035-22.102615 1.88679667-.256518 1.08615969 5.722995 1.91730457 9.395584 1.16555847-.872787 1.83790579-11.363613.7212382-15.81236.62971448-1.024334-.83114489 2.301712-1.66072526 4.018784-1.81834945-.761908-.87064871-4.225597-.91797508-4.357679-2.17231938-.658327 2.38313684-7.14323.60311784-13.753263 2.24585126 2.50053 1.41627088 5.667729-.16349109 8.244728.88590267-4.031645.09934625-8.258632 1.03922445-12.027501-.12828966-1.136605-.52254568 2.078908-.21551098 3.782773-.75761301-1.677101-.53193273-5.099775-.29334525-3.422327-.8342739-4.37923-.83896743-1.828995 1.71743868-6.070581.20025703 1.136605.90115661 3.395563 1.80739788-.581858 2.65066771-5.792512-.03676594-.235663-.89528972-4.46126-1.64077779-3.354548.585126-2.189789 1.21601386-1.607931 1.8437727-2.030594.07509639-3.948918-.37704643-6.070233.20025703-6.151568-1.21914288 3.977421-2.26266972-.457075-3.46186512-1.406331.6981617-3.602723 1.37950494-2.867928 2.09604962-4.268349 1.15343353-7.760541-1.23009443-12.146375.40168743-4.399042-.6676538-2.874879-1.27116276-5.590913-1.91730458-5.474819 1.04196234-10.532188.32541767-15.71434.09778176-3.160247 1.81952282-12.028891 1.25121528-18.327836 1.12918366-3.235325-.56830754 6.382713-.99150696.353495-1.59227804-5.557197 1.61222552-11.487006.7458792-19.468959.85578589-5.05876.56674303 2.050407 1.26177571-1.607931 1.84572833-7.0466.24288987-1.080991-1.58445549-6.762971-2.20321841-3.187011.0535844-4.489762.31603062-5.035818 1.01145443-11.370565-3.0343633-24.423791 1.39632341-36.092583-.38799799-4.337867 1.75694251-6.943021 1.4542102-14.993101 2.50086607-2.176928.0305079-3.547457-1.06347433-8.260022-.88472929-1.149465-1.34899703 7.261061-.66256914 9.978485-1.48628261-7.331969-.88316478-12.999698.17561602-18.333745 1.12879253-5.94545-.5025982-3.104634-1.10923618-6.755672-2.2000894-4.829005.34380064-7.532177-.44275577-9.859262.95669665-1.511302-.36570374-3.049368-.73766553-4.57353-1.10610716 1.925623 1.44677879-10.93365 1.94468346-15.687229.09895513-4.004532 1.91300218-7.316327 1.06660334-13.413672.65083533-5.016354.9168017.49948.31681288 2.189441 1.08655082-2.965947.67664972-5.626366-.01212494-8.480043.17248701-4.504013-1.29854165-1.275639-1.27859418.470978-2.1175616-5.210307-.04263284-10.372646-.39269151-15.230154-2.02721127 1.261388-.33480471 2.48767-.38213108 3.665289-.22333352-.644076-1.01145443-11.882905-.56987204-16.718862-.71028664 12.541232.85852378 10.102225 2.57596246 22.213494 3.15952395-11.584677 2.19226686-12.748393-1.67754373-21.430036-1.29267475.173097 1.15499804 9.041741 2.40191093 7.676773 3.5369615-3.124794-1.03883333-11.384468-.90233-13.961467-2.27479466-3.47794 1.11392971-3.713603 2.26266972-6.775831 3.38715986 1.593679-1.88992569-4.4484-1.81522043-9.049041-2.75940102-2.27321-.73492764 5.293032-1.35799296.457075-2.121864-2.203692.84014081-3.340297.84014081-2.869319 2.09448511-3.187011.03520143-7.537739-.98524892-4.932238.48108622-3.576307-.04576186-7.039997-.81549981-10.517937-1.44208527-.069517-.82058445 10.995867-.00899592 8.826238-1.76789406-6.554419.90154775-35.778713 3.01441583-30.125582-.05475778-3.588473-.12242275-7.469613 1.1166676-10.870737.15136615-5.412254 2.49030564-17.98025.4200704-27.188485 2.89512209-1.933966-1.77376097-9.464753-.68760127-6.728908-2.2000894-4.045547-.4431469-3.269389 1.35681958-8.811987 1.76750293-9.202326-.20768844-18.278131-1.02201486-27.853764.50142482-.831425-1.48823825-8.800517-1.10923618-9.618038-.10560429-3.297892-1.43778287-7.12168-.55148908-10.531841-1.43778287.998961.87416886 2.828303.90467676 4.352118 2.17271051-4.691362.12828966-9.92148-.96999497-11.695557-1.72174107-6.318757-.3027323-3.46508 1.54456054-12.000389-.12555177-.554747.43571548 1.315263.89685422-1.511302 1.30949321 5.307283-.31016371 10.407057.13298318 15.451566.96139018-8.799127-.1028664-17.599992-.34732078-26.440134-.28004694-.69239-.27026876.110532-.52802145-1.038933-.80650388 4.143567-.4677879 11.556523.68603677 12.263164-.93362016-6.208225-.87534224-11.972235 1.21210259-20.369901-.48265072-1.704211.38017544-3.395562.757613-4.933976.4779572-1.067087.43258646-1.143556.87103984.915541 1.33843661-5.432067.87690674-10.43556-.14667263-15.81236.62658546-4.280863-.57613008-1.191871-1.07403476-4.475511-1.63960441-4.739328.63558139 2.396602 1.34625915-3.907904 1.28367883-4.441447-.73492764 2.965947-1.28798122-3.297543-1.3615131-3.436926.40325194.38721.88942281-1.497051 1.30949321-18.278479-3.31401911-41.240672-.29334525-56.233772-1.92982064-1.932923-.54836006 3.561708-1.02201486 2.744187-1.56450802-6.693454-.58043247-14.038283 1.77688998-20.385542-.48265072-1.038585.42945745-1.122353.87064871.908241 1.34156562-2.612452.93792256-4.87141.25970834-7.434158.97781752-3.035465-.47521931-.374698-.89098732 1.49705-1.31105772-3.451176-.73649215-7.248548.06414483-10.781754-.37900207-1.2885.33910711 1.026072.7212382 2.175537 1.08498631-2.598201.89059619-4.809193-.04615299-7.337877.45057831-.324992-.44627591 1.725762-.86634632-.906503-1.3368721-1.663197.33284908-3.354548.67078281-5.044856 1.00832542-3.270432-.56517853-.180049-1.06347433-4.46265-1.6423423-11.722321.33284908-23.44638.64614181-35.031057.42319942 1.129653.27652679 2.264867.55461809 3.408423.8342739-3.187011-.06570933-6.679203 1.11353858-9.72718.42789295-3.035116-.47834833-.388948-.89411634 1.4828-1.31418674-6.971522-.69346818-19.802293.58825502-23.14259 1.0834218-1.732714-1.12175225-4.559279-1.40101693-9.491517-.63558138 6.027827 1.08146617.511993 1.06190982-2.773037 1.56450802 11.086934-.43571548 15.576349 1.13192155 27.60524.560485 1.344113-.48577974-1.122354-.21668436-2.273209-.5561826 2.675018-1.15812706 4.655907.70911326 7.344829-.45214282 3.603071 1.34469464 3.727854.99620048 9.14567 2.22316589-13.884998-1.23478795-33.285483.86634632-43.180547-.99463597-.802922.25814382-.110532.53623512-1.384781.78381852-4.7111734.50572721 1.218983-1.00050288-3.2975432-1.36151311-1.9263188.52763033-3.8043233.83740292-5.6493071.99854725-.9224919.08096329-1.8369894.12398726-2.7448827.13885008-.4539466.00782254-.906503.00782254-1.3576689.00195564-.4966997-.01134268-.992009-.02268537-1.485928-.03441918-5.7921648-.13454769-11.533582-.58825501-17.4022156-.8096329-3.3997338 1.44951668-11.4244402 1.30127955-19.5899187.93635805 1.3295145-.52332793 3.7205552-1.03922445 5.1035979-1.56059675 1.3788717-.52137229 1.7507881-1.04900262-1.0768199-1.5961893 5.9141673-.30234118 16.0271673.16192658 16.2464938-.95630553-7.7838297.1419791-7.9930761-.10560429-12.0142928-1.13817958-3.2867684 1.18081243-8.661483.89059619-10.2398687 1.78901492-3.3465532.18852321-6.6951919.02229424-10.0615575-.0578868-3.360109-.08018104-6.7393352-.07509638-9.984741.45840085-3.9117272-.89646309-9.7539442-1.18589708-16.2214676-1.16516735-3.9527423.01290719-8.12828689.14197911-12.253084.31915964v11.99038945h1199z" fill="#052ab5" transform="matrix(-1 0 0 1 1199 0)"/></g></svg>