<svg height="12" viewBox="0 0 712 12" width="712" xmlns="http://www.w3.org/2000/svg"><path d="m315 2.25674816v9.74325184h-712v-9.74375594c7.911111.32418841 17.264595-.65072358 23.697385-.45694809 3.204982-.63898977-8.894798-1.12745153-2.665835-1.79929597 2.17877 1.28200257 7.798822 1.62764709 12.746949 1.92635637-3.281177.25546181-6.544028.64569481-9.978879.32988769-.627236.23065319.115738.45057831-.935871.6916243 6.870988.78314801 13.164249-.90383863 20.238743.70838688 2.038278-.3992848.795378-.76605018 3.051629-1.16935799 5.471843 1.03324579 10.471087.27222439 15.803722.75465161 1.858562-.39459127 1.876887-.77711348.84521-1.14756663 2.512161-.36944739 5.344531.65206459 7.729379-.30776108 2.370382.28429346 1.383071.59708331.204471.91255518 20.585315-.29435101 34.452995.08146617 54.780792.59875957 1.589471-.47672794.410871-.91825446-2.550097-1.34100687 3.319435-.13510645 6.780327.37984019 10.08658.12437838 5.461232.55517685-2.152408 1.23607309 2.640758 1.79527296 4.986064-.96116668 10.2544-.59842432 15.663229.3027323 3.050343-.49114377.204792-.91423144 4.152749-1.40939823 2.050172.51092362-.5893 1.06878248 1.486914 1.57937085 6.01131-1.33296083 5.126878.09822875 13.458417.32351791 3.02398-.48443874.166855-.91389619 4.126707-1.40772197.961913.36944739 1.038107.74794658-.845531 1.1512544 7.100857.63228474 22.1092-.95747891 21.712797-2.49997206 10.592934.80795664-8.255666 1.39598815-1.58947 2.75241661 3.819359-.04693525 2.588033-.65575237 7.510119-1.21260547 5.306273.85388613 11.395064-.03654244 13.778305 1.68430463 4.883828-.00670503 10.446332.12437839 11.984685-1.26121696 1.948901.36274236 3.883657.7228027 5.819378 1.0831983-3.909699 1.24009611-1.576289-.9561379-5.499169.28529921 3.230058 1.6775996 19.469406.39559703 29.352479 1.52841259-1.704887-.9061854-.80856-1.6775996-6.037352-1.99206571 7.549342-1.29507739 9.254229 1.70240822 17.162038 1.88210314 4.851036-1.4824831 10.343775-.22663016 15.67641.30507907 5.998129-1.31083422 12.458247-.74660558 18.854065-.41638264 1.4541212-.99804436-5.883999-.3221769-8.036407-1.06207744 2.127332-.70335811-3.281176-1.33430184-1.615833-2.03397218 6.2804021 1.33061407 15.1253682 1.51399676 20.7769261 2.98206404 1.7428235-.44018551 4.4993203-.06436833 8.7803457-.54109628 2.2562508-1.34469464-13.3558603-.18572945-4.8706469-1.77448734-3.5370863-.89445158-6.6134704.31211935-10.1769193-.58266749 3.1590084-1.09727887 12.7273379.72280271 12.0734174-.80259261 3.7303047.79253506 7.6782613.42275242 13.6895719 1.2297033-.5134272-1.8546125 6.4154296-.0590043 11.971182-1.25719394 7.0047297 1.30547019 13.5802637.87467173 20.4435356 1.61725429.2372632.93099402-5.2934126 1.64340392-8.6903271.99905012.8072736 1.57534782 10.5106309.61820417 14.6254435.53975526.9474453-.7124099-2.1289389-1.42347879-3.7171234-1.55858523.7047167-.74627033 3.9084128-.78683579 4.0305808-1.86198805.6089113 2.04268872 6.6070406.51695815 12.720908 1.92501537-2.3128339 1.21394647-5.2422949-.14013522-7.6258577.75934514 3.7290187.08515394 7.6387175.89076382 11.12468609-.10996256 1.05128814-.4478963-1.92286069-.1847237-3.49882839-.64938258 1.5512126-.45594234 4.71697235-.25143879 3.16543824-.71509191 4.05051353-.71911494 1.69170586 1.47209029 5.61490744.17164887-1.05128814.77241996-3.14068313 1.54919819.53818237 2.2720009 5.35771157-.03151366.2179735-.76739118 4.12638632-1.40638096 3.10274674.50153657 2.02541752 1.04229759 1.48723515 1.5803766 1.87817288.06436833 3.65250292-.32318266 5.61458595.17164888 5.68981573-1.04497961-3.6788655-1.93943119.42276572-2.96731296 1.30076814.59842432 3.33229401 1.18243281 2.65265391 1.79661396 3.9479567.98865732 7.1780154-1.05436665 11.2346374.34430352 4.0688387-.57227469 2.6590838-1.08956809 5.1712445-1.64340393 5.0638653.89311058 9.7416153.27892943 14.5347819.08381293 2.9230311 1.559591 11.1259721 1.07247025 16.9521016.96787171 2.992474-.48712074-5.9036098-.8498631-.3269602-1.36480974 5.1400595 1.38190758 10.6247616.63932502 18.0075692.73353076 4.6790359.48577974-1.8964981 1.08152204 1.4872351 1.58205286 6.517665.20819131.999849-1.35810472 6.2553252-1.88847293 2.9477862.04592948 4.1527489.27088339 4.6578173.86696094 10.5170608-2.60088283 22.5904786 1.19684863 33.3833816-.3325697 4.012256 1.50595071 6.421859 1.24646588 13.86768 2.14359948 2.013522.02614964 3.281176-.91154942 7.640004-.75833939 1.063183-1.15628317-6.716028-.56791641-9.229474-1.27395652 6.781612-.75699838 12.023907.15052802 16.957567.96753645 5.499169-.43079845 2.871592-.95077387 6.248573-1.88579091 4.466528.29468626 6.966794-.37950495 9.119202.8200257 1.397859-.31346035 2.820474-.63228474 4.230229-.94809186-1.781082 1.24009611 10.112942 1.66687155 14.509705.08481869 3.703942 1.63971615 6.767145.91423143 12.406808.55785886 4.639813.78583002-.461989.27155389-2.025096.93132927 2.743315.57998547 5.204037-.0103928 7.843509.14784601 4.16593-1.11303571 1.179886-1.09593787-.435625-1.8150528 4.819207-.03654244 9.594049-.33659273 14.086939-1.73760966-1.166704-.28697547-2.300938-.32754093-3.390163-.19142873.59573-.86696094 10.990944-.48846175 15.463902-.60881712-11.599855.73587752-9.343926 2.20796782-20.546092 2.70816338 10.715101 1.87908588 11.791466-1.43789462 19.821443-1.10800693-.160105.98999832-8.363046 2.0587808-7.100535 3.03168129 2.890238-.89042857 10.52992-.77342572 12.913483-1.949824 3.216877.9547969 3.434851 1.93943119 6.267221 2.90327988-1.474054-1.6199363 4.114491-1.55590322 8.369796-2.36520087 2.102577-.62993798-4.895723-1.16399396-.422765-1.81874057 2.038277.72012069 3.089565.72012069 2.65394 1.79527295 2.947786.03017266 6.971937-.84449908 4.562011.41235962 3.307861-.03922446 6.511557-.69899984 9.728434-1.23607309.064299-.7033581-10.170489-.00771079-8.163718-1.51533777 6.062428.77275521 33.093071 2.583785 27.864279-.04693524 3.319113-.10493378 6.908925.95714366 10.054752.12974242 3.070773 1.30937237 11.29473.50554493 19.258342.25697167zm397-.53422483v10.27747667zm-896.16977 2.98407554c-4.179112-.39157401-8.024512.67184444-12.304573-.1076158 3.972712-.58635526 7.996863-.73721853 12.304573.1076158zm115.1829217 1.36447449c5.3509602-.48846175 4.2485544 1.04129184 8.9906033.36542438.9619126-.52768621-10.7401782-1.87137509-8.9906033-.36542438zm21.2704204.47270493c3.7418785-.48980276-.1800371-.9075264 1.9215747-1.38794212-3.5046153-.61552215-6.7542852-.25814382-10.0669681-.1270604.0826242.78549478 4.8378544.51494664 8.1453934 1.51500252zm111.4580829-.19109348c4.614737-1.15259541 11.4593622.71509191 9.7412937-1.24009611-2.5632783.56188188-11.0221292.03017266-9.7412937 1.24009611zm41.439399.72682572c1.063184-.23970498 2.114472-.47672794 3.16576-.71375091-6.382637-.45326032-5.357711-.26183159-8.151823-1.51902553-2.8966687.37715818-5.9222567.14784601-8.6903273.99770911 4.6909313.99938537 9.1770703 1.10029614 13.6763903 1.23506733zm48.955949-.48712074c1.787512-.80426888 9.323994-.6534056 7.401133-1.6672068-2.883487 1.05436666-11.048492.27892943-7.401133 1.6672068z" fill="#052ab5" fill-rule="evenodd" transform="matrix(-1 0 0 1 315 0)"/></svg>