<?xml version="1.0" encoding="UTF-8"?>
<svg width="1200px" height="13px" viewBox="0 0 1200 13" version="1.1" xmlns="http://www.w3.org/2000/svg" xmlns:xlink="http://www.w3.org/1999/xlink">
    <!-- Generator: Sketch 55.2 (78181) - https://sketchapp.com -->
    <title>Fill 1</title>
    <desc>Created with Sketch.</desc>
    <g id="Page-1" stroke="none" stroke-width="1" fill="none" fill-rule="evenodd">
        <g id="Artboard" transform="translate(0.000000, -877.000000)" fill="#052AB5">
            <path d="M1199.22134,879.342973 C1195.01351,878.555028 1190.21699,880.026253 1185.94693,879.447638 C1189.9402,878.223645 1199.83751,878.130107 1199.22134,879.342973 L1199.22134,879.342973 Z M969.461153,881.881715 C974.120325,881.005448 978.472802,881.161924 982.769644,881.770096 C978.140377,882.578557 973.981234,881.475572 969.461153,881.881715 L969.461153,881.881715 Z M844.880568,883.296957 C839.093028,882.790322 840.285378,884.376992 835.15643,883.675978 C834.116036,883.128658 846.772889,881.734975 844.880568,883.296957 L844.880568,883.296957 Z M821.874715,883.78725 C817.82754,883.279223 822.069441,882.845958 819.79636,882.347667 C823.586914,881.709244 827.101721,882.079919 830.684683,882.215879 C830.595317,883.0306 825.452112,882.749986 821.874715,883.78725 L821.874715,883.78725 Z M701.322875,883.589047 C696.331626,882.393567 688.928554,884.330745 690.786798,882.302811 C693.559212,882.885598 702.708212,882.334106 701.322875,883.589047 L701.322875,883.589047 Z M656.502475,884.342915 C655.352547,884.094292 654.215485,883.84845 653.078424,883.602608 C659.981814,883.132483 658.873266,883.331034 661.895346,882.027065 C665.028351,882.418256 668.300794,882.180411 671.294709,883.061895 C666.221049,884.098464 661.36889,884.20313 656.502475,884.342915 L656.502475,884.342915 Z M603.552257,883.83767 C601.618905,883.003477 593.467528,883.159954 595.547273,882.108432 C598.666021,883.202028 607.497201,882.39774 603.552257,883.83767 L603.552257,883.83767 Z M317.093028,881.584063 C320.247244,881.821907 323.692507,880.991886 326.631133,882.149116 C323.914008,882.85013 315.40204,882.547262 317.093028,881.584063 L317.093028,881.584063 Z M161.70885,880.818024 C164.184306,881.225558 163.158169,880.306172 165.38987,880.612866 C162.409864,881.25268 169.092101,880.733874 169.964891,881.602144 C167.642434,882.33654 159.734118,881.497131 161.70885,880.818024 L161.70885,880.818024 Z M88.815891,885.480325 L88.3238598,885.489365 L87.7059519,885.492147 C87.1972298,885.487975 86.6902463,885.483454 86.1850014,885.478934 C85.174164,885.461547 84.1688902,885.426079 83.1684845,885.370443 C81.1673254,885.259867 79.1845958,885.06827 77.2084729,884.777572 C79.6648044,884.766097 82.078018,884.718111 84.3281484,884.643002 C85.4533874,884.605795 86.5375949,884.561634 87.5661663,884.511562 C88.1632107,884.486873 88.3652391,884.460446 88.6983599,884.432628 C89.0054013,884.402724 89.302011,884.373863 89.5871458,884.346045 C91.8675283,884.105071 93.3992582,883.791423 93.5376529,883.474993 C94.6747146,883.882527 93.9253666,884.268502 96.8511272,884.686468 C94.1340017,885.10339 91.4443466,885.416691 88.815891,885.480325 L88.815891,885.480325 Z M23.1170212,881.15497 C27.2483454,880.653897 31.4711214,880.226543 35.7592698,880.009215 C40.0446363,879.791886 44.3946798,879.784584 48.7127325,880.123964 C44.8787134,881.748537 32.6366966,881.463402 23.1170212,881.15497 L23.1170212,881.15497 Z M27.6603999,883.472211 C22.5502289,883.485077 17.3816401,883.283396 12.1104723,882.974964 C17.0314807,882.479803 22.2390148,882.508664 27.4239467,882.6102 C32.6203535,882.712083 37.7948537,882.886642 42.9432744,882.682875 C37.8264967,883.231933 32.7733527,883.459345 27.6603999,883.472211 L27.6603999,883.472211 Z M1199.656,877.204115 C1190.17666,877.909302 1180.9828,878.665256 1174.02516,878.866242 C1170.55869,878.203477 1183.64568,877.696841 1176.9085,877 C1174.55197,878.329702 1168.47338,878.688206 1163.12154,878.99803 C1166.67043,879.262996 1170.19949,879.667748 1173.91459,879.340191 C1174.593,879.579426 1173.78941,879.807534 1174.92682,880.057549 C1167.49523,880.869835 1160.68851,879.120081 1153.03681,880.792292 C1150.83223,880.378151 1152.17654,879.99774 1149.7362,879.579426 C1143.81792,880.651116 1138.41079,879.861779 1132.64307,880.362156 C1130.63287,879.952883 1130.61305,879.556129 1131.7289,879.171892 C1129.01178,878.788699 1125.94832,879.848218 1123.36889,878.85268 C1120.80511,879.147551 1121.87298,879.471979 1123.14774,879.799189 C1100.88289,879.493886 1085.88376,879.883686 1063.89743,880.420226 C1062.17828,879.925761 1063.45304,879.467806 1066.65559,879.029325 C1063.06533,878.889192 1059.32206,879.423298 1055.74606,879.158331 C1049.83925,879.734164 1058.07408,880.440394 1052.88984,881.0204 C1047.49697,880.023471 1041.79879,880.39971 1035.94866,881.334396 C1032.64945,880.824978 1035.72716,880.386149 1031.4571,879.872559 C1029.23965,880.402492 1032.09448,880.981107 1029.84887,881.510693 C1023.3471,880.128137 1024.30369,881.612576 1015.29239,881.846247 C1012.02169,881.343784 1015.11192,880.898348 1010.82899,880.386149 C1009.78859,880.769342 1009.70618,881.161924 1011.74351,881.580238 C1004.0633,882.236048 987.830438,880.587134 988.259183,878.98725 C976.801982,879.825268 997.188421,880.435178 989.978337,881.842075 C985.84736,881.793393 987.179148,881.161924 981.855474,880.584352 C976.116268,881.470009 969.530698,880.54645 966.953011,882.331324 C961.670716,882.32437 955.654373,882.46033 953.990507,881.023182 C951.882596,881.39942 949.789986,881.772877 947.696331,882.146682 C951.925019,883.432918 949.401229,881.15497 953.644173,882.442596 C950.150577,884.182614 932.586276,882.852912 921.896853,884.027876 C923.74084,883.087975 922.771382,882.287859 928.426786,881.961692 C920.261501,880.618429 918.417514,883.727441 909.864515,883.913822 C904.617688,882.376181 898.676801,883.67876 892.909081,884.230252 C886.421571,882.870646 879.434378,883.455868 872.516731,883.798377 C870.94397,882.763199 878.8808,883.464213 881.208821,882.696784 C878.907922,881.967256 884.757705,881.312837 882.956488,880.587134 C876.163674,881.967256 866.597056,882.157462 860.484393,883.680151 C858.599374,883.223587 855.617977,883.613387 850.987667,883.118922 C848.547331,881.724196 865.433219,882.926282 856.255706,881.278412 C860.081379,880.350681 863.408763,881.602144 867.26295,880.674065 C863.846201,879.535961 853.497201,881.423761 854.204474,879.841611 C850.169817,880.663634 845.899751,880.280093 839.397983,881.117068 C839.9533,879.193451 832.459125,881.055868 826.450084,879.813098 C818.873845,881.16714 811.76182,880.720313 804.33858,881.490524 C804.081959,882.456158 810.063877,883.195074 813.737943,882.526746 C812.864804,884.160707 802.369759,883.167951 797.919223,883.086584 C796.894477,882.347667 800.22186,881.610142 801.939623,881.470009 C801.177409,880.695972 797.712327,880.653897 797.580191,879.538742 C796.9216,881.657433 790.434089,880.074935 783.821397,881.535381 C786.322932,882.794494 789.491405,881.390032 792.069441,882.322979 C788.036175,882.411301 783.807488,883.246885 780.037102,882.208925 C778.900041,881.744364 782.116847,882.017328 783.821397,881.535381 C782.143622,881.062475 778.719571,881.274587 780.397693,880.793683 C776.016702,880.047812 778.567963,882.320545 774.324671,880.971718 C775.461733,881.772877 777.7216,882.578557 773.742579,883.328253 C767.947737,883.295567 773.506821,882.532309 769.279525,881.869545 C765.923628,882.389742 767.088855,882.950623 767.670948,883.508722 C765.639536,883.575485 763.72044,883.173515 761.598273,883.686757 C755.444231,882.602898 765.577294,881.675167 761.141014,880.609041 C759.734118,881.229731 757.536841,881.835468 758.271933,882.472501 C754.001866,883.497943 750.50827,881.378905 746.120672,882.829615 C741.719861,882.236048 743.244636,881.699507 740.527511,881.125065 C735.05049,882.051405 729.991087,881.414373 724.80685,881.211997 C721.645332,882.829615 712.773121,882.32437 706.471643,882.215879 C703.235016,881.710635 712.856923,881.334396 706.82528,880.80029 C701.265848,882.233613 695.333654,881.463402 687.34849,881.561113 C682.287696,882.064967 689.399722,882.682875 685.739913,883.202028 C678.690478,883.417966 684.658487,881.793393 678.974222,881.243292 C675.785929,881.29093 674.482654,881.524254 673.936378,882.142509 C662.56124,879.444857 649.502764,883.383889 637.829278,881.797566 C633.489667,883.359548 630.883466,883.090409 622.830148,884.020921 C620.652344,884.048044 619.281263,883.075456 614.566804,883.234367 C613.416876,882.035062 621.830785,882.64532 624.549302,881.913011 C617.214384,881.127847 611.544376,882.069139 606.208183,882.916546 C600.260342,882.469719 603.102301,881.930397 599.449794,880.960591 C594.618847,881.266242 591.914587,880.566966 589.586566,881.811127 C588.074657,881.486004 586.535972,881.155317 585.011197,880.82776 C586.937595,882.113996 574.07315,882.55665 569.317659,880.915735 C565.311516,882.616459 561.998389,881.863981 555.898592,881.494349 C550.88022,882.309418 556.398273,881.776007 558.088913,882.46033 C555.121773,883.061895 552.460284,882.449551 549.605459,882.613677 C545.099635,881.459229 548.329307,881.476963 550.076627,880.731092 C544.864225,880.69319 539.699809,880.381976 534.840348,878.928832 C536.102243,878.631179 537.329018,878.589105 538.507111,878.730281 C537.862776,877.831063 526.619426,878.223645 521.781524,878.098812 C534.327801,878.862069 531.887812,880.388931 544.003952,880.907737 C532.414616,882.856737 531.250432,879.416343 522.565297,879.758505 C522.738464,880.785338 531.610675,881.893886 530.245158,882.902985 C527.119108,881.979426 518.856111,882.100782 516.278076,880.880614 C512.798737,881.870936 512.562979,882.892205 509.499519,883.891915 C511.093839,882.211707 505.049331,882.278122 500.446839,881.438713 C498.172715,880.785338 505.741999,880.231411 500.904097,879.552304 C498.699519,880.299218 497.562457,880.299218 498.033625,881.414373 C494.845332,881.445668 490.492854,880.538453 493.099403,881.842075 C489.521657,881.801391 486.056575,881.117068 482.577236,880.560012 C482.507691,879.830484 493.577525,880.552014 491.407024,878.988293 C484.849968,879.7898 455.613921,881.668212 461.269325,878.939612 C457.679409,878.830774 453.796708,879.932367 450.394216,879.074181 C444.979786,881.288148 432.406734,879.447638 423.194796,881.648044 C421.260052,880.07111 413.726236,881.036743 416.463182,879.692089 C412.416007,879.298116 413.192478,880.898348 407.64765,881.26346 C398.441623,881.078818 389.362167,880.354854 379.782683,881.709244 C378.950924,880.386149 370.978626,880.723095 370.160777,881.615358 C366.861559,880.33712 363.036233,881.125065 359.6247,880.33712 C360.624063,881.114286 362.454141,881.141408 363.978569,882.268734 C359.28532,882.382788 354.053098,881.406375 352.278308,880.738047 C345.95701,880.468908 348.811834,882.111214 340.273092,880.626427 C339.718122,881.013793 341.588884,881.423761 338.761182,881.790611 C344.0706,881.514865 349.172425,881.908838 354.218963,882.64532 C345.416297,882.553868 336.611892,882.33654 327.768195,882.396349 C327.075526,882.156071 327.878771,881.92692 326.728844,881.679339 C330.874077,881.26346 338.290014,882.289249 338.99694,880.849319 C332.786218,880.07111 327.01989,881.92692 318.618847,880.420226 C316.91395,880.758215 315.221918,881.09377 313.682886,880.845146 C312.615369,881.229731 312.53887,881.619531 314.598795,882.035062 C309.164544,882.814662 304.159038,881.904665 298.780075,882.592118 C294.497491,882.079919 297.587725,881.637265 294.302764,881.134454 C289.56153,881.699507 296.70033,882.331324 290.393289,882.275688 C285.950055,881.622312 293.360429,881.130629 287.094419,881.065256 C283.656111,881.423761 287.481785,881.855984 285.596766,882.229441 C267.310936,879.283164 244.339507,881.968647 229.340377,880.513764 C227.406676,880.026253 232.903518,879.605158 232.085668,879.122863 C225.389522,878.606839 218.041739,880.702579 211.691927,878.69377 C210.652924,879.075572 210.569122,879.467806 212.600533,879.886468 C209.98703,880.720313 207.727163,880.117357 205.163385,880.755781 C202.1267,880.333295 204.788537,879.963663 206.661037,879.590206 C203.208473,878.935439 199.409574,879.647233 195.874946,879.25326 C194.585929,879.554738 196.901431,879.894465 198.051359,880.21785 C195.452112,881.00962 193.240232,880.176818 190.71053,880.618429 C190.385407,880.221675 192.436986,879.848218 189.803663,879.429904 C188.139797,879.725819 186.447766,880.026253 184.756778,880.32634 C181.48503,879.823877 184.576656,879.380875 180.292333,878.866242 C168.565297,879.162156 156.836523,879.440684 145.247186,879.24248 C146.377294,879.488322 147.512964,879.735555 148.656981,879.984178 C145.468687,879.925761 141.975091,880.974152 138.925888,880.36459 C135.889551,879.939322 138.536784,879.56969 140.409284,879.196233 C133.434958,878.579716 120.599026,879.719212 117.257386,880.159432 C115.523976,879.162156 112.696274,878.91388 107.762052,879.594378 C113.792304,880.555839 108.274251,880.538453 104.987899,880.98528 C116.079293,880.597914 120.570513,881.991597 132.604242,881.48357 C133.948896,881.051695 131.481437,881.29093 130.330119,880.989105 C133.006213,879.95949 134.987899,881.619531 137.677902,880.587134 C141.282422,881.782614 141.407256,881.47279 146.82725,882.563605 C132.936668,881.465836 113.52838,883.333816 103.629336,881.679339 C102.826091,881.908838 103.51876,882.156071 102.243999,882.376181 C97.5309302,882.82579 103.463471,881.4867 98.9451289,881.165749 C97.0180354,881.63483 95.1392756,881.910229 93.2935497,882.053492 C92.3706868,882.125471 91.4558215,882.163721 90.547563,882.176934 C90.0934338,882.183889 89.6406955,882.183889 89.189348,882.178673 C88.6924486,882.168589 88.19694,882.158505 87.7028224,882.148073 C81.908328,882.028456 76.1646016,881.625094 70.2936076,881.428282 C66.8925065,882.716952 58.8645726,882.585164 50.6958099,882.260736 C52.0258592,881.79548 54.4178615,881.33683 55.8014604,880.873312 C57.1808867,880.409794 57.5529528,879.940713 54.7242075,879.454245 C60.6407534,879.185453 70.7578209,879.598203 70.9772356,878.604057 C63.1902753,878.730281 62.9809447,878.510171 58.9581107,877.592176 C55.6700203,878.641959 50.293144,878.383947 48.7141234,879.182672 C45.3662243,879.350275 42.0162388,879.202492 38.6485193,879.131208 C35.2870588,879.059925 31.9064735,879.064445 28.6597624,879.538742 C24.7464619,878.741756 18.9018951,878.484439 12.4317705,878.502869 C8.47743842,878.514344 4.30021443,878.629093 0.173758331,878.786613 L0.173758331,881.15184 C1.27604752,881.300319 1.8970849,881.494349 1.77781513,881.739148 C1.23884092,881.697073 0.70543031,881.665778 0.173758331,881.639351 L0.173758331,882.264561 C1.45408287,882.268734 2.68711678,882.183541 3.84504202,881.98499 C9.09917125,882.48328 11.1611823,882.971139 8.44197044,883.424573 C5.60731382,883.170038 2.95104028,883.308085 0.173758331,883.205158 L0.173758331,889.446479 L1199.656,889.446479 L1199.656,877.204115 Z" id="Fill-1" transform="translate(599.914877, 883.223240) scale(-1, 1) translate(-599.914877, -883.223240) "></path>
        </g>
    </g>
</svg>