<?xml version="1.0" encoding="UTF-8"?>
<svg width="320px" height="58px" viewBox="0 0 320 58" version="1.1" xmlns="http://www.w3.org/2000/svg" xmlns:xlink="http://www.w3.org/1999/xlink">
    <!-- Generator: Sketch 55.2 (78181) - https://sketchapp.com -->
    <title>Artboard</title>
    <desc>Created with Sketch.</desc>
    <defs>
        <polygon id="path-1" points="9.9378882e-06 1.49068323e-05 23.9552795 1.49068323e-05 23.9552795 23.9055901 9.9378882e-06 23.9055901"></polygon>
        <rect id="path-3" x="0" y="0" width="320" height="23"></rect>
    </defs>
    <g id="Artboard" stroke="none" stroke-width="1" fill="none" fill-rule="evenodd">
        <rect fill="#FFFFFF" x="0" y="0" width="320" height="58"></rect>
        <polygon id="Rectangle" fill="#CC8A0C" fill-rule="nonzero" points="0 0 320 0 320 51.5192308 191.597079 56.3436879 0 57"></polygon>
        <text id="WINNER" transform="translate(152.303877, 27.150621) rotate(-3.000000) translate(-152.303877, -27.150621) " font-family="PosterBrushSlanted, Poster Brush Slanted" font-size="24.01" font-style="italic" font-weight="800" line-spacing="82" letter-spacing="1.14306122" fill="#FFFFFF">
            <tspan x="62.3038765" y="6.65062082">WINNER</tspan>
        </text>
        <g id="Group-3" transform="translate(42.303877, 26.650621) rotate(-2.000000) translate(-42.303877, -26.650621) translate(30.303877, 14.650621)">
            <mask id="mask-2" fill="white">
                <use xlink:href="#path-1"></use>
            </mask>
            <g id="Clip-2"></g>
            <path d="M22.6631155,1.19280994 L21.7023702,1.12160497 L20.9682087,1.24249938 L19.0846807,1.19280994 L19.0846807,1.49068323e-05 L14.5181217,0.113356522 L10.4245565,0.0264993789 L7.78788571,0.0993937888 L6.69769938,0.013778882 L4.77119006,1.49068323e-05 L4.77119006,1.19280994 L3.05809689,1.29218882 L1.96935155,1.1845118 L1.19280497,1.19280994 C0.674891925,1.19280994 0.281947826,1.39295901 0.104308075,1.80220124 C0.0364819876,1.95852422 9.9378882e-06,2.1877913 9.9378882e-06,2.38560497 L0.0993888199,3.55931925 L9.9378882e-06,5.24831304 C9.9378882e-06,6.46396522 0.392159006,7.58590311 1.04627081,8.48965466 C1.26614658,8.79340621 1.47151304,9.0725118 1.76055652,9.32220124 C2.12314037,9.63539379 2.6496,9.80299627 3.11345093,10.0144745 C3.6627677,10.2648596 4.16438261,10.5367602 4.77119006,10.6159155 L4.77119006,10.7351702 C4.77119006,11.2380273 4.92095404,11.728313 5.01705342,12.2012571 C5.11136398,12.6653565 5.14743851,13.1127106 5.32050683,13.5388472 C5.6218236,14.2805118 6.0491528,14.8584497 6.57521491,15.4477665 C7.2820472,16.2394683 8.16711553,17.0231205 9.16418385,17.4682882 C9.55285466,17.641754 9.95851925,17.6795677 10.3773019,17.772636 L10.2336994,18.6506484 L10.0079106,19.0674932 L9.98609689,19.4671453 L9.5423205,20.2775304 L8.69933913,20.2706236 L8.06073043,20.1781516 L6.79891677,20.2775304 C6.32179876,20.2775304 5.84468075,20.6353441 5.72542609,21.1124621 L5.15697888,22.5110708 L4.92602236,23.2679404 L4.77119006,23.8559155 L5.55931429,23.8882634 L8.33367453,23.7777043 L8.92249441,23.6260522 L9.15489193,23.7048099 L12.1082832,23.8994932 L15.1554882,23.8472696 L17.3383453,23.905605 L19.0846807,23.8559155 L18.7767553,22.9067975 L18.438718,22.1416298 L18.1304447,21.1124621 C18.0111901,20.6353441 17.534072,20.2775304 17.056954,20.2775304 L16.2013516,20.227841 L15.1531031,20.3051081 L14.8839354,20.3459528 L14.3135503,20.2775304 L13.830718,19.1272199 L13.4785689,17.772636 C14.3559354,17.5776547 15.2707677,17.1239901 15.992805,16.6416547 C16.5006311,16.3024248 16.9429665,15.9067975 17.3662708,15.4620273 C17.635041,15.1796422 17.9258236,14.8775304 18.1257242,14.5574311 C18.4644571,14.0151205 18.8028422,13.4213317 18.9575255,12.7850087 C19.1138484,12.1419776 19.0846807,11.4555677 19.0846807,10.7351702 L19.0846807,10.6159155 C20.4305193,10.440313 21.6726559,9.80553043 22.491836,8.88041242 C23.1429168,8.14505839 23.490246,7.22620124 23.6719106,6.20885963 C23.7275627,5.89710807 23.8559106,5.57611429 23.8559106,5.24831304 L23.9552894,3.92319503 L23.8559106,2.38560497 C23.8559106,1.66992795 23.3787429,1.19280994 22.6631155,1.19280994 L22.6631155,1.19280994 Z M4.77119006,8.23027578 C4.16284224,8.06436273 3.60572422,7.6692323 3.18316522,7.20374161 C2.69437019,6.66535652 2.3856,6.01596522 2.3856,5.24831304 L2.3856,3.5784 L3.55419627,3.67777888 L4.77119006,3.5784 L4.67181118,4.92369193 L4.77203478,6.60558012 L4.77119006,8.23027578 Z M21.4702708,5.24831304 C21.4702708,6.05069814 21.1329789,6.71618882 20.7655752,7.30754286 C20.4776248,7.77114534 20.1711901,8.22744348 19.9942957,8.41223851 L19.9610534,5.96826335 L20.0936745,4.74177888 L19.9942957,3.76031304 L21.0256,3.68289689 L21.4702708,3.5784 L21.4702708,5.24831304 Z" id="Fill-1" fill="#FFFFFF" mask="url(#mask-2)"></path>
        </g>
        <g id="Fill-1" transform="translate(160.303877, 54.150621) rotate(-2.000000) translate(-160.303877, -54.150621) translate(0.303877, 42.650621)">
            <mask id="mask-4" fill="white">
                <use xlink:href="#path-3"></use>
            </mask>
            <g id="Mask" fill-rule="nonzero"></g>
            <path d="M908.565518,3.80065984 C904.359386,2.87407996 899.564792,4.60415915 895.296442,3.92374039 C899.288114,2.48439302 909.18144,2.37439744 908.565518,3.80065984 L908.565518,3.80065984 Z M678.897705,6.78607893 C683.555003,5.75563705 687.905731,5.93964453 692.200845,6.65482026 C687.573439,7.60552556 683.415969,6.3084773 678.897705,6.78607893 L678.897705,6.78607893 Z M554.367206,8.45032433 C548.581993,7.85454901 549.773863,9.72038483 544.646977,8.89603133 C543.607001,8.25241407 556.258766,6.6135208 554.367206,8.45032433 L554.367206,8.45032433 Z M531.370602,9.02688109 C527.325054,8.42947015 531.565249,7.91997389 529.293083,7.3340123 C533.082113,6.5832618 536.595507,7.01915506 540.177028,7.17903712 C540.087698,8.13710271 534.946561,7.80711597 531.370602,9.02688109 L531.370602,9.02688109 Z M410.867228,8.79380495 C405.877986,7.38798783 398.47789,9.6660004 400.335387,7.28126349 C403.106686,7.96658912 412.252008,7.31806499 410.867228,8.79380495 L410.867228,8.79380495 Z M366.064847,9.68031209 C364.915382,9.38794465 363.778778,9.09884846 362.642173,8.80975227 C369.542788,8.25691203 368.434685,8.49039707 371.455551,6.95700143 C374.587296,7.41702012 377.858423,7.13732875 380.851135,8.17390421 C375.779515,9.39285152 370.929307,9.51593208 366.064847,9.68031209 L366.064847,9.68031209 Z M313.135918,9.08617239 C311.203343,8.10520808 303.055243,8.28921556 305.134152,7.05268532 C308.251647,8.33869313 317.079276,7.3928947 313.135918,9.08617239 L313.135918,9.08617239 Z M26.7918563,6.43605581 C29.9448044,6.71574718 33.3886815,5.73968974 36.3261265,7.10052726 C33.6100934,7.92488076 25.101548,7.56872406 26.7918563,6.43605581 L26.7918563,6.43605581 Z M-128.529852,5.53523699 C-126.055391,6.01447424 -127.081116,4.93332808 -124.850312,5.29398274 C-127.82912,6.04636887 -121.149569,5.43628186 -120.277129,6.4573189 C-122.598653,7.32092733 -130.50379,6.33382944 -128.529852,5.53523699 L-128.529852,5.53523699 Z M-201.393505,11.017842 L-201.885338,11.0284735 L-202.502998,11.0317448 C-203.011515,11.0268379 -203.518295,11.0215221 -204.023337,11.0162064 C-205.033768,10.9957611 -206.038637,10.9540527 -207.038641,10.8886279 C-209.038995,10.7585959 -211.020928,10.533289 -212.996256,10.191444 C-210.540912,10.1779501 -208.128669,10.1215211 -205.879443,10.0331975 C-204.754657,9.98944465 -203.670885,9.93751365 -202.642727,9.87863126 C-202.045923,9.84959897 -201.843976,9.81852215 -201.510989,9.78580971 C-201.204071,9.75064384 -200.90758,9.71670468 -200.62256,9.68399224 C-198.343094,9.40062072 -196.81198,9.03178796 -196.673641,8.65968395 C-195.537037,9.1389212 -196.286083,9.59280631 -193.361499,10.0843107 C-196.077532,10.5745884 -198.766106,10.9430123 -201.393505,11.017842 L-201.393505,11.017842 Z M-267.065961,5.93146642 C-262.936298,5.34223359 -258.71522,4.83968872 -254.428795,4.58412278 C-250.145152,4.32855684 -245.796857,4.31996983 -241.48054,4.7190616 C-245.313018,6.62946812 -257.550113,6.2941656 -267.065961,5.93146642 L-267.065961,5.93146642 Z M-262.524409,8.65641271 C-267.632526,8.67154221 -272.799036,8.43437702 -278.068085,8.07167783 C-273.149055,7.48939639 -267.943615,7.52333555 -262.760767,7.64273596 C-257.56645,7.76254527 -252.39403,7.96781584 -247.247679,7.72819721 C-252.362399,8.373859 -257.413512,8.6412832 -262.524409,8.65641271 L-262.524409,8.65641271 Z M909,1.28548208 C899.524472,2.11474244 890.334311,3.00370301 883.379473,3.24005039 C879.914393,2.4606765 892.996121,1.86490118 886.261652,1.04545455 C883.906065,2.6091092 877.829923,3.03069077 872.480234,3.39502558 C876.027692,3.70661157 879.555337,4.18257758 883.268941,3.79738859 C883.94708,4.07871558 883.14381,4.34695759 884.280762,4.64096065 C876.852165,5.59616391 870.048179,3.53855141 862.39956,5.50497798 C860.195868,5.01797152 861.539633,4.5706289 859.100278,4.07871558 C853.184373,5.33896235 847.779419,4.41074685 842.014018,4.99916187 C840.004626,4.51788009 839.984814,4.05131891 841.100216,3.59947833 C838.384183,3.14886446 835.321954,4.39479953 832.743565,3.22410307 C830.180817,3.57085494 831.248252,3.95236378 832.522501,4.33714386 C810.266601,3.97812483 795.273501,4.4365079 773.296017,5.06744909 C771.577555,4.48598546 772.851803,3.94745691 776.053065,3.43182707 C772.464245,3.26703815 768.722487,3.89511701 765.147918,3.58353101 C759.243483,4.26067853 767.475003,5.09116561 762.292851,5.77321999 C756.902147,4.60088791 751.206264,5.04332367 745.358485,6.14246166 C742.060594,5.5434151 745.137073,5.02737635 740.868723,4.42342292 C738.652171,5.04659491 741.505848,5.72701367 739.26114,6.34977675 C732.761987,4.72396847 733.718195,6.46958607 724.710516,6.74437056 C721.441127,6.15350211 724.530119,5.62969416 720.248909,5.02737635 C719.208933,5.47799022 719.126555,5.93964453 721.163059,6.43155785 C713.485938,7.20275364 697.259604,5.26372373 697.688177,3.3823495 C686.235582,4.36781177 706.613825,5.08503203 699.40664,6.7394637 C695.277324,6.68221693 696.608576,5.93964453 691.287042,5.26045249 C685.550144,6.30193481 678.967222,5.21588179 676.390571,7.31479374 C671.110399,7.30661563 665.096475,7.46649769 663.433279,5.77649124 C661.326215,6.21892699 659.234446,6.6580915 657.141633,7.09766492 C661.368621,8.61020638 658.845845,5.93146642 663.087083,7.44564351 C659.594892,9.49180665 642.037653,7.928152 631.352527,9.3098437 C633.195773,8.20457212 632.226705,7.26368056 637.879835,6.88012719 C629.717833,5.30052523 627.874587,8.95654935 619.325026,9.1757227 C614.080309,7.36754255 608.141811,8.89930257 602.37641,9.54782671 C595.891507,7.94900618 588.907124,8.63719415 581.992258,9.03996607 C580.420129,7.82265438 588.353768,8.64700788 590.680853,7.74455343 C588.38088,6.88666968 594.228311,6.11710952 592.427818,5.26372373 C585.637735,6.88666968 576.074963,7.11034099 569.964757,8.9009382 C568.080496,8.36404527 565.100298,8.82242834 560.47185,8.24096471 C558.032495,6.60084473 574.911594,8.01443106 565.73777,6.07662788 C569.561906,4.98566799 572.887951,6.4573189 576.740589,5.36595011 C573.325214,4.02760239 562.980374,6.24755038 563.687363,4.38703033 C559.654329,5.35368294 555.385979,4.90266017 548.886825,5.88689572 C549.441919,3.62483047 541.950756,5.81492835 535.944132,4.35350008 C528.370939,5.94577811 521.261772,5.42033454 513.841517,6.32606023 C513.584999,7.46159082 519.564512,8.33051502 523.237101,7.54459864 C522.364314,9.4660456 511.873488,8.29862039 507.424741,8.2029365 C506.400407,7.3340123 509.726453,6.46672373 511.443525,6.30193481 C510.681617,5.39171116 507.217928,5.34223359 507.085846,4.03087364 C506.427519,6.52233488 499.942616,4.66140592 493.332583,6.37880904 C495.833113,7.85945588 499.000312,6.20788654 501.577311,7.30498001 C497.545666,7.40884201 493.318679,8.39144194 489.54981,7.17085901 C488.413205,6.62456125 491.628718,6.94555207 493.332583,6.37880904 C491.655482,5.82269756 488.232808,6.07212992 489.910256,5.5066136 C485.531026,4.62951129 488.081261,7.30211767 483.839675,5.71597322 C484.97628,6.6580915 487.235238,7.60552556 483.257817,8.48712583 C477.465305,8.44868871 483.022154,7.55114113 478.796557,6.77176723 C475.442009,7.38348987 476.606768,8.04305445 477.188626,8.69934778 C475.158032,8.77785764 473.239708,8.30516288 471.118393,8.9087074 C464.966825,7.63414894 475.095814,6.54318906 470.661318,5.28948478 C469.254987,6.01938111 467.058595,6.73169449 467.79339,7.48080938 C463.525041,8.68667171 460.032849,6.19480157 455.647015,7.90075533 C451.247973,7.20275364 452.772136,6.57181244 450.056102,5.89630055 C444.581283,6.98562481 439.523914,6.23650993 434.341762,5.99852692 C431.181515,7.90075533 422.312871,7.30661563 416.013926,7.17903712 C412.778601,6.58489742 422.396639,6.14246166 416.367421,5.51438281 C410.810224,7.1998913 404.880415,6.2941656 396.898462,6.40906805 C391.839702,7.00157213 398.948869,7.72819721 395.290531,8.33869313 C388.243931,8.59262345 394.20954,6.68221693 388.52756,6.03532842 C385.340549,6.09134847 384.037798,6.36572407 383.491742,7.09275805 C372.121177,3.92046915 359.067951,8.55255071 347.399159,6.68712379 C343.061292,8.52392732 340.456138,8.20743446 332.406058,9.30166559 C330.22913,9.33356022 328.858601,8.18985152 324.146036,8.37672134 C322.996571,6.96640625 331.407097,7.68403541 334.124521,6.82288042 C326.792552,5.89957179 321.124823,7.00647899 315.790776,8.00298171 C309.845326,7.47753813 312.686142,6.8433257 309.035104,5.70288824 C304.206099,6.06231618 301.502927,5.24000721 299.175842,6.70307111 C297.66454,6.32074446 296.126474,5.93187533 294.602312,5.54668634 C296.527935,7.0592278 283.668662,7.57976451 278.915083,5.65013943 C274.910551,7.65009626 271.598756,6.76522475 265.501411,6.33055819 C260.485057,7.2890327 266.000891,6.66177165 267.690852,7.46649769 C264.724905,8.17390421 262.064486,7.45382162 259.210809,7.64682501 C254.706796,6.28925874 257.93517,6.31011292 259.681787,5.43301061 C254.47148,5.38843991 249.309141,5.02246948 244.451633,3.31365338 C245.713021,2.96363027 246.939303,2.9141527 248.116922,3.08016834 C247.472846,2.0227387 236.234017,2.48439302 231.39806,2.33759594 C243.939292,3.23514352 241.500285,5.03064759 253.611554,5.64073461 C242.026877,7.93264996 240.863161,3.8869389 232.181518,4.28930191 C232.354615,5.49679987 241.223259,6.80039062 239.858291,7.98703439 C236.733497,6.90098137 228.473823,7.04368939 225.896824,5.60883998 C222.418884,6.77340286 222.183221,7.97435832 219.120993,9.14996165 C220.714672,7.17413025 214.672593,7.2522312 210.071952,6.26513331 C207.798742,5.49679987 215.364984,4.8454134 210.529027,4.04682095 C208.325335,4.92514997 207.18873,4.92514997 207.659708,6.23650993 C204.472697,6.27331142 200.121969,5.20647696 202.72747,6.7394637 C199.151163,6.69162175 195.687473,5.88689572 192.209533,5.2318291 C192.140016,4.37394535 203.2054,5.22242428 201.035771,3.38357622 C194.481352,4.32610341 165.257058,6.53501095 170.910189,3.32632945 C167.321716,3.19834203 163.440576,4.49375467 160.039452,3.48457588 C154.627198,6.08807723 142.059202,3.92374039 132.850967,6.51129443 C130.917001,4.65690796 123.386214,5.79243855 126.122059,4.21120096 C122.076512,3.74791103 122.85267,5.62969416 117.310072,6.05904494 C108.107746,5.84191612 99.0319408,4.99057486 89.4563079,6.5832618 C88.6248834,5.02737635 80.6557906,5.42360578 79.8382695,6.47285731 C76.5403783,4.96972067 72.7165903,5.89630055 69.3064289,4.96972067 C70.3053897,5.88362448 72.1347321,5.91551911 73.658547,7.24119075 C68.9671855,7.37531176 63.7370665,6.2271051 61.9629901,5.44118872 C55.6442333,5.12469586 58.4979103,7.05595656 49.9626008,5.30993005 C49.4078543,5.76545079 51.2778643,6.24755038 48.451299,6.67894568 C53.758582,6.35468362 58.8583564,6.81797356 63.9028648,7.68403541 C55.1037379,7.57649327 46.3028731,7.32092733 37.4627311,7.39125907 C36.7703408,7.10870537 37.5732633,6.83923664 36.423798,6.54809592 C40.5673648,6.05904494 47.9803207,7.26531618 48.686962,5.57203848 C42.4787374,4.65690796 36.7147271,6.83923664 28.3170615,5.06744909 C26.6128498,5.46490524 24.9214987,5.85949905 23.3830853,5.56713162 C22.3159978,6.01938111 22.239529,6.47776418 24.2986255,6.96640625 C18.8665593,7.8831724 13.8630661,6.81306669 8.48626602,7.62147287 C4.20540303,7.01915506 7.29439535,6.49861836 4.01075515,5.907341 C-0.728573122,6.57181244 6.40735716,7.31479374 0.10285139,7.24936886 C-4.33859611,6.48103542 3.06879845,5.90284304 -3.19469223,5.8259688 C-6.63161764,6.24755038 -2.80748199,6.75581992 -4.69174297,7.19498443 C-22.9702216,3.73032809 -45.9324148,6.8883053 -60.9255152,5.17744467 C-62.8584382,4.60415915 -57.3638066,4.10897459 -58.1813277,3.54182265 C-64.8747817,2.93500688 -72.2196108,5.39948036 -78.5668696,3.03723326 C-79.6054551,3.4862115 -79.6892232,3.94745691 -77.6586287,4.43977914 C-80.2710813,5.42033454 -82.5300395,4.7112924 -85.0927874,5.4620429 C-88.1282515,4.96522271 -85.4674845,4.53055616 -83.5957366,4.09139165 C-87.046913,3.32142258 -90.8442846,4.15845215 -94.3774912,3.69516222 C-95.6659906,4.04968329 -93.3514188,4.44918397 -92.2019536,4.82946609 C-94.8001552,5.76054392 -97.0111465,4.78121524 -99.539831,5.30052523 C-99.8648234,4.83396405 -97.814069,4.39479953 -100.446334,3.90288621 C-102.109531,4.2508648 -103.800882,4.60415915 -105.49119,4.9570446 C-108.761622,4.36617615 -105.671239,3.84523054 -109.95384,3.24005039 C-121.676161,3.58802897 -133.40022,3.91556228 -144.984897,3.68248615 C-143.855244,3.97158234 -142.72003,4.26231415 -141.576474,4.55468159 C-144.763485,4.48598546 -148.255677,5.71883556 -151.303654,5.00202421 C-154.33877,4.50193278 -151.692602,4.06726623 -149.820854,3.62810171 C-156.792376,2.90311225 -169.623147,4.24309559 -172.963444,4.76076996 C-174.696158,3.58802897 -177.522723,3.29607044 -182.454961,4.09629852 C-176.427134,5.22692224 -181.942968,5.20647696 -185.227998,5.73192054 C-174.141064,5.2763998 -169.651649,6.91529307 -157.622758,6.31788212 C-156.278645,5.81002149 -158.745112,6.09134847 -159.895967,5.7364185 C-157.220949,4.5256493 -155.24006,6.47776418 -152.551138,5.26372373 C-148.948067,6.66954086 -148.823284,6.30520605 -143.405468,7.58794262 C-157.290466,6.29702794 -176.690951,8.49366831 -186.586015,6.54809592 C-187.388937,6.81797356 -186.696547,7.10870537 -187.970796,7.36754255 C-192.681969,7.89625737 -186.751813,6.32156227 -191.268339,5.94414249 C-193.194658,6.49575602 -195.072662,6.81960918 -196.917646,6.98807825 C-197.840138,7.07272169 -198.754636,7.11770129 -199.662529,7.1332397 C-200.116476,7.14141781 -200.569032,7.14141781 -201.020198,7.13528423 C-201.516898,7.12342597 -202.012207,7.11156771 -202.506126,7.09930054 C-208.298291,6.95863705 -214.039708,6.48430666 -219.908342,6.25286615 C-223.308075,7.76826995 -231.332782,7.61329476 -239.49826,7.23178593 C-238.168746,6.68467036 -235.777705,6.145324 -234.394662,5.60025296 C-233.015791,5.05518192 -232.643874,4.5035684 -235.471482,3.9315096 C-229.557315,3.61542564 -219.444315,4.10079648 -219.224988,2.93173564 C-227.008818,3.08016834 -227.218065,2.82133115 -231.239281,1.74182062 C-234.52605,2.97630634 -239.900764,2.67289845 -241.47915,3.6121544 C-244.825703,3.80924685 -248.174342,3.63546201 -251.540707,3.55163638 C-254.900816,3.46781076 -258.280043,3.47312653 -261.525448,4.03087364 C-265.437176,3.09366222 -271.279393,2.79107215 -277.746916,2.81274414 C-281.699658,2.82623802 -285.875203,2.96117684 -290,3.14641103 L-290,5.92778627 C-288.898154,6.10238892 -288.277366,6.33055819 -288.396588,6.61842767 C-288.935346,6.5689501 -289.468542,6.53214861 -290,6.50107179 L-290,7.23628389 C-288.72019,7.24119075 -287.487652,7.1410089 -286.330192,6.90752386 C-281.078175,7.49348545 -279.016993,8.06717987 -281.735112,8.60039265 C-284.568629,8.30107382 -287.223835,8.46340931 -290,8.34237328 L-290,15.6818182 L909,15.6818182 L909,1.28548208 Z" fill="#FFFFFF" mask="url(#mask-4)" transform="translate(309.500000, 8.363636) scale(-1, 1) translate(-309.500000, -8.363636) "></path>
        </g>
    </g>
</svg>