<svg height="41" viewBox="0 0 40 41" width="40" xmlns="http://www.w3.org/2000/svg" xmlns:xlink="http://www.w3.org/1999/xlink"><mask id="a" fill="#fff"><path d="m.05702662.06457795h21.60851708v21.60842585h-21.60851708z" fill="#fff" fill-rule="evenodd"/></mask><mask id="b" fill="#fff"><path d="m.00000782.03885932h39.97336738v19.69447148h-39.97336738z" fill="#fff" fill-rule="evenodd"/></mask><g fill="#a6a5a5" fill-rule="evenodd"><path d="m.05702662 10.8686844c0 1.573308.10988593 2.9942205.71718631 4.2773384.3721673.7863878 1.07376426 1.5210647 1.63239544 2.2073004.40532319.4977186.85543726 1.1104182 1.3443346 1.5289734.35596958.3046388.73247148.7390874 1.12714828.9971102.79977187.5227377 1.67437263.7936122 2.60441065 1.1006084 1.06334601.3509506 2.19923954.6930038 3.3787072.6930038 1.5588593 0 3.0358936-.3318631 4.3713308-.9285931 1.5610647-.6976426 2.9287453-1.7571864 4.0078327-3.0718632.5024335-.6121673 1.0136122-1.2796197 1.3692776-1.9916349.2643346-.5292776.3243346-1.083194.4871483-1.6573384.2830418-.9984031.5687452-2.0577947.5687452-3.154905 0-.99437261-.0622813-1.89429657-.318327-2.75832699-.0506464-.17087452-.0380228-.34022813-.1086692-.50859315-.1449429-.34562738-.3965779-.68730038-.555057-1.02882129-.4874525-1.05041826-1.1389354-2.15992396-1.9146768-2.99467681-.4305704-.46319392-.8276046-.88859316-1.3389354-1.27117871-.3998479-.29923954-.8973384-.5721673-1.3374905-.81657794-.8012167-.44479088-1.6646388-.86631179-2.5737642-1.09581749-.2363498-.05969582-.4758175-.0356654-.7180989-.07969582-.3493536-.06357415-.7045627-.18631179-1.0645627-.21536122-.2885932-.02319392-.5803042-.03505703-.8747529-.03505703-1.03984788 0-2.03901138.02091254-2.98060834.31011407-.61140684.1878327-1.19855513.57673003-1.75673004.84699619-.30311787.14676806-.59771863.158327-.88311787.33931559-.67399239.42745247-1.29627376 1.07726236-1.85680608 1.62980989-.34760456.3426616-.67155894.72273764-.96942966 1.07072243-.15878327.18555133-.31011407.30745247-.45376426.5304943-.58319391.90562737-1.03847909 2.05802281-1.34182509 3.12509506-.26692015.93847908-.56190114 1.92859315-.56190114 2.95155892" mask="url(#a)" transform="translate(9.125475 19.27673)"/><path d="m12.4769734 16.8713536.9295057-1.5573384.5018251-.4729277.9531559-1.6628137.9430418-1.0184791.4045627-.6542206 2.5584031-3.79247144-1.1717871-1.49551331-1.3752852-1.99011406-.4895817-.50212928-.2787072-.45992396-1.3734601-2.30730038c-.2672243-.38532319-.7065399-.61513308-1.1755133-.61513308l-5.34365021-.00935361-4.17422053-.14273764-1.95429658.15209125c-.53247148 0-1.02106464.29574145-1.26790875.76768061-.24692015.47186312-.21125475 1.0418251.09247149 1.47939164l2.60935361 3.43057034 2.10547528 3.35323194 1.4018251 1.33764258.66296578 1.8340684 1.69315589 2.3400761 1.51346012 2.0919392c-.52205327.213384-.89064643.7257794-.89064643 1.3247148 0 .7902661.64053232 1.4310266 1.43095053 1.4310266h1.7040305c.6269201-.4544487 1.2965019-.893384 2.0012927-1.1929278.7371103-.3131559 1.5128517-.4809886 2.3190875-.6878327 1.0171103-.2610646 2.0827376-.5520152 3.1802281-.5520152.9322434 0 1.8414449.2971863 2.7174145.453232 1.0611407.1890494 2.0736882.2775665 3.0195437.7536121.6180228.3110267 1.2075285.8228137 1.7636502 1.2259316h1.7040304c.7902662 0 1.4309506-.6406844 1.4309506-1.4310266 0-.5989354-.368365-1.1114829-.8905704-1.3247148l2.2193156-3.3069962.4812168-.4589354-.0414449-.0424335.8309506-.9253232.9359695-1.5429657 1.1330038-1.34486696.9995438-1.62319392 1.0675285-1.50486692.3414449-.84509505.938479-1.34623574 1.0801521-1.44661597c.3037263-.43756654.3393156-1.00752852.0924715-1.47939164-.2469201-.47193916-.7354372-.76768061-1.2679087-.76768061l-3.0005324-.00205323-2.0191634-.25574144-3.6126236.20676806-.7724715-.2531559-2.0673004.30418251c-.4690494 0-.9082129.22980989-1.1755133.61513308l-1.7342966 2.26768061-2.1685171 3.34882129-2.0530798 3.06068441-3.2726236 4.43307982-1.816654 2.8029658z" mask="url(#b)" transform="translate(0 .037186)"/></g></svg>