<?xml version="1.0" encoding="UTF-8"?>
<svg width="18px" height="16px" viewBox="0 0 18 16" version="1.1" xmlns="http://www.w3.org/2000/svg" xmlns:xlink="http://www.w3.org/1999/xlink">
    <!-- Generator: Sketch 55.2 (78181) - https://sketchapp.com -->
    <title>Artboard</title>
    <desc>Created with Sketch.</desc>
    <g id="Artboard" stroke="none" stroke-width="1" fill="none" fill-rule="evenodd">
        <path d="M17.3726943,1.74496516 C16.980462,1.92263163 16.5732945,2.06279512 16.1554959,2.16426857 C16.615862,1.7173985 16.9619974,1.1584592 17.1572742,0.534582162 L17.1572742,0.534582162 C17.2130123,0.35647604 17.0236321,0.202463266 16.8661882,0.297825443 L16.8661882,0.297825443 C16.2849631,0.649992819 15.6588893,0.914184299 15.0053123,1.0831455 C14.9673932,1.09294991 14.9282689,1.09791807 14.8890156,1.09791807 C14.7699643,1.09791807 14.6542271,1.05276502 14.5631955,0.970812462 C13.8678257,0.344781093 12.9734776,0 12.0449549,0 C11.6431676,0 11.2375065,0.0639704783 10.8392054,0.190152796 C9.60513499,0.581142119 8.65293981,1.62098114 8.35419249,2.90390799 C8.24211383,3.38511547 8.21176995,3.86676261 8.2639356,4.33543979 C8.26991829,4.3892981 8.24499757,4.426889 8.22963195,4.44451935 C8.20264527,4.47542742 8.16438185,4.49314571 8.12465505,4.49314571 C8.12022183,4.49314571 8.11565949,4.49292588 8.11114018,4.49248622 C5.40980337,4.23612068 2.97385712,2.90672181 1.25200346,0.749224001 L1.25200346,0.749224001 C1.1641999,0.639177192 0.995823657,0.652674743 0.925839053,0.775295818 L0.925839053,0.775295818 C0.588656162,1.36619838 0.410466582,2.04204319 0.410466582,2.7297588 C0.410466582,3.7837109 0.824994081,4.77694601 1.54502632,5.50102148 C1.24223316,5.42768625 0.949167254,5.31218766 0.676933174,5.15773523 L0.676933174,5.15773523 C0.545227832,5.08299309 0.383178612,5.17905872 0.381327851,5.33293959 L0.381327851,5.33293959 C0.36247591,6.89865552 1.25987995,8.291849 2.60422134,8.91919935 C2.57714858,8.91985884 2.55007581,8.9201666 2.52296001,8.9201666 C2.30986421,8.9201666 2.09409987,8.89915087 1.88173576,8.85769097 L1.88173576,8.85769097 C1.73341661,8.82876136 1.60881303,8.9724861 1.65486686,9.11937639 L1.65486686,9.11937639 C2.09121612,10.5109431 3.2641684,11.5366691 4.66782023,11.7695568 C3.50287357,12.5683744 2.14626551,12.9897442 0.734306775,12.9897442 L0.294126863,12.9894804 C0.158504794,12.9894804 0.0438006321,13.0797865 0.00923874013,13.2139706 C-0.0248066603,13.3461323 0.0379040204,13.4855484 0.153555084,13.5542672 C1.74460726,14.500107 3.5594294,15 5.40261553,15 C7.01600596,15 8.52519423,14.6729372 9.88830148,14.0279565 C11.1379097,13.4366582 12.2421686,12.5914126 13.17039,11.5156973 C14.0350829,10.5136251 14.7112564,9.35683656 15.1800586,8.07751493 C15.6269529,6.85803097 15.8631617,5.55681428 15.8631617,4.31451199 L15.8631617,4.2553338 C15.8631186,4.05586022 15.9514387,3.86816952 16.1055253,3.74040443 C16.6902368,3.25545984 17.1994113,2.68460576 17.6188455,2.04371389 L17.6188455,2.04371389 C17.7295899,1.8744889 17.5549297,1.66239708 17.3726943,1.74496516 L17.3726943,1.74496516 Z" id="Path" fill="#3EA3EE" fill-rule="nonzero"></path>
    </g>
</svg>