<svg height="40" viewBox="0 0 40 40" width="40" xmlns="http://www.w3.org/2000/svg" xmlns:xlink="http://www.w3.org/1999/xlink"><mask id="a" fill="#fff"><path d="m.00001656.00002484h39.92544924v39.84262526h-39.92544924z" fill="#fff" fill-rule="evenodd"/></mask><path d="m37.7718592 1.98801656-1.6012422-.11867495-1.2236025.20149069-3.1392133-.08281574v-1.98799172l-7.6109316.1889027-6.8226087-.14476191-4.3944514.12149069-1.8169772-.14269152-3.21084886-.02293996v1.98799172l-2.85515528.16563147-1.81457557-.17946169-1.29424431.01383022c-.8631884 0-1.51809524.33358178-1.81416149 1.01565218-.11304348.2605383-.17383023.6426501-.17383023.97233954l.16563147 1.95619048-.16563147 2.81498965c0 2.02608699.65358178 3.89598339 1.74376812 5.40223599.36645963.5062526.70873706.9714286 1.19047619 1.3875777.60430642.5219875 1.48173913.801325 2.25482402 1.1537888.91552795.4173085 1.75155279.8704762 2.76289855 1.0024016v.1987578c0 .8380952.24960662 1.6552381.40977225 2.4434783.15718427.7734989.21730849 1.519089.5057557 2.2293167.50219461 1.2361077 1.21440991 2.1993375 2.09118011 3.1815321 1.1780538 1.3195031 2.6531677 2.6255901 4.3149483 3.3675363.6477846.2891097 1.3238923.3521325 2.0218633.5072463l-.2393375 1.4633541-.3763147.6947412-.0363561.6660869-.7396273 1.3506419-1.4049689-.0115114-1.0643479-.1541201-2.1030227.1656315c-.7951967 0-1.59039342.5963561-1.78915119 1.3915528l-.94741201 2.3310144-.38492753 1.2614493-.25805383.9799586 1.31354037.0539131 4.62393379-.1842651.9813664-.2527536.3873292.131263 4.9223188.324472 5.078675-.0870393 3.6380952.0972256 2.910559-.0828157-.5132091-1.5818633-.5633954-1.2752795-.5137888-1.7152795c-.1987578-.7951967-.9939545-1.3915528-1.7891512-1.3915528l-1.4260041-.0828158-1.7470808.1287785-.4486128.0680745-.9506418-.1140372-.8047205-1.9171843-.5869151-2.2576398c1.4622774-.3249689 2.9869979-1.0810766 4.1903933-1.8849689.8463769-.565383 1.5836025-1.2247619 2.2891098-1.9660456.4479503-.4706418.932588-.9741614 1.2657557-1.5076604.5645548-.9038509 1.12853-1.893499 1.3863354-2.9540373.2605383-1.0717184.2119254-2.215735.2119254-3.4163975v-.1987578c2.2430642-.2926708 4.313292-1.3506418 5.6785922-2.8925051 1.0851346-1.2255901 1.6640165-2.7570187 1.9667909-4.452588.0927536-.51958594.3066666-1.05457559.3066666-1.60091099l.1656315-2.20853002-.1656315-2.56265011c0-1.19279503-.7952795-1.98799172-1.9879917-1.98799172zm-29.81987576 11.72910974c-1.01391305-.2765217-1.94244307-.9350725-2.64670808-1.7108903-.81465838-.8973085-1.32927536-1.9796273-1.32927536-3.25904759v-2.78318841l1.94766046.16563147 2.02832298-.16563147-.16563147 2.24215321.16703933 2.80314699zm27.83180126-4.96993789c0 1.33730849-.5621532 2.44645959-1.1744928 3.43204969-.4799172.7726708-.9906418 1.5331677-1.2854658 1.8411594l-.0554037-4.07329191.2210352-2.04414079-.1656315-1.63577639 1.7188406-.12902692.741118-.17416149z" fill="#cc8a0c" fill-rule="evenodd" mask="url(#a)"/></svg>