<?xml version="1.0" encoding="UTF-8"?>
<svg width="233px" height="46px" viewBox="0 0 233 46" version="1.1" xmlns="http://www.w3.org/2000/svg" xmlns:xlink="http://www.w3.org/1999/xlink">
    <!-- Generator: Sketch 55.2 (78181) - https://sketchapp.com -->
    <title>zeit</title>
    <desc>Created with Sketch.</desc>
    <defs>
        <linearGradient x1="114.720775%" y1="187.87784%" x2="39.539931%" y2="102.51159%" id="linearGradient-1">
            <stop stop-color="#FFFFFF" offset="0%"></stop>
            <stop stop-color="#000000" offset="100%"></stop>
        </linearGradient>
    </defs>
    <g id="WINNERS" stroke="none" stroke-width="1" fill="none" fill-rule="evenodd">
        <g id="Artboard" transform="translate(-100.000000, -2690.000000)" fill-rule="nonzero">
            <g id="zeit" transform="translate(100.000000, 2690.000000)">
                <polygon id="Path" fill="url(#linearGradient-1)" points="25.3 0 50.6 46 0 46"></polygon>
                <path d="M87.4,33.12 L108.129512,33.12 L108.129512,29.5297163 L92.5697071,29.5297163 L107.876095,7.7351773 L107.876095,4.6 L87.653417,4.6 L87.653417,8.19028369 L102.706388,8.19028369 L87.4,29.9848227 L87.4,33.12 Z M129.822008,33.12 L148.422817,33.12 L148.422817,29.5297163 L134.02873,29.5297163 L134.02873,20.3770213 L146.547531,20.3770213 L146.547531,16.7867376 L134.02873,16.7867376 L134.02873,8.19028369 L148.422817,8.19028369 L148.422817,4.6 L129.822008,4.6 L129.822008,33.12 Z M170.824881,33.12 L188.96954,33.12 L188.96954,29.5297163 L182.025914,29.5297163 L182.025914,8.19028369 L188.96954,8.19028369 L188.96954,4.6 L170.824881,4.6 L170.824881,8.19028369 L177.81919,8.19028369 L177.81919,29.5297163 L170.824881,29.5297163 L170.824881,33.12 Z M218.822063,33.12 L223.028787,33.12 L223.028787,8.19028369 L232.76,8.19028369 L232.76,4.6 L209.192217,4.6 L209.192217,8.19028369 L218.822063,8.19028369 L218.822063,33.12 Z" id="Shape" fill="#333333"></path>
            </g>
        </g>
    </g>
</svg>