<svg id="Layer_1" data-name="Layer 1" xmlns="http://www.w3.org/2000/svg" xmlns:xlink="http://www.w3.org/1999/xlink" viewBox="0 0 608.15 510.57"><defs><linearGradient id="linear-gradient" x1="-136.96" y1="-36.06" x2="208.56" y2="187.05" gradientUnits="userSpaceOnUse"><stop offset="0" stop-color="#fff" stop-opacity="0"/><stop offset="0.95" stop-color="#fff"/></linearGradient><linearGradient id="linear-gradient-2" x1="260.65" y1="421.99" x2="429.95" y2="-2.51" xlink:href="#linear-gradient"/><linearGradient id="linear-gradient-3" x1="300.15" y1="85.1" x2="290.28" y2="572.78" gradientUnits="userSpaceOnUse"><stop offset="0" stop-color="#010101" stop-opacity="0"/><stop offset="0.95" stop-color="#010101"/></linearGradient><linearGradient id="linear-gradient-4" x1="408.62" y1="87.36" x2="398.75" y2="575.04" xlink:href="#linear-gradient-3"/><linearGradient id="linear-gradient-5" x1="408.43" y1="87.29" x2="398.55" y2="574.97" xlink:href="#linear-gradient-3"/><linearGradient id="linear-gradient-6" x1="358.64" y1="86.28" x2="348.77" y2="573.96" xlink:href="#linear-gradient-3"/><linearGradient id="linear-gradient-7" x1="328.99" y1="85.68" x2="319.12" y2="573.36" xlink:href="#linear-gradient-3"/><linearGradient id="linear-gradient-8" x1="293.93" y1="84.97" x2="284.06" y2="572.65" xlink:href="#linear-gradient-3"/><linearGradient id="linear-gradient-9" x1="393.51" y1="86.99" x2="383.64" y2="574.67" xlink:href="#linear-gradient-3"/><linearGradient id="linear-gradient-10" x1="335.32" y1="85.81" x2="325.45" y2="573.49" xlink:href="#linear-gradient-3"/><linearGradient id="linear-gradient-11" x1="339.52" y1="85.89" x2="329.64" y2="573.57" xlink:href="#linear-gradient-3"/><linearGradient id="linear-gradient-12" x1="332.25" y1="85.75" x2="322.38" y2="573.42" xlink:href="#linear-gradient-3"/><linearGradient id="linear-gradient-13" x1="303.83" y1="85.17" x2="293.96" y2="572.85" xlink:href="#linear-gradient-3"/><linearGradient id="linear-gradient-14" x1="376.85" y1="86.65" x2="366.98" y2="574.33" xlink:href="#linear-gradient-3"/><linearGradient id="linear-gradient-15" x1="387.94" y1="86.87" x2="378.07" y2="574.55" xlink:href="#linear-gradient-3"/><linearGradient id="linear-gradient-16" x1="325.98" y1="85.62" x2="316.1" y2="573.3" xlink:href="#linear-gradient-3"/><linearGradient id="linear-gradient-17" x1="297.14" y1="85.04" x2="287.26" y2="572.71" xlink:href="#linear-gradient-3"/><linearGradient id="linear-gradient-18" x1="317.03" y1="85.44" x2="307.16" y2="573.12" xlink:href="#linear-gradient-3"/><linearGradient id="linear-gradient-19" x1="299.2" y1="85.08" x2="289.33" y2="572.76" xlink:href="#linear-gradient-3"/><linearGradient id="linear-gradient-20" x1="318.47" y1="85.47" x2="308.6" y2="573.15" xlink:href="#linear-gradient-3"/><linearGradient id="linear-gradient-21" x1="313.17" y1="85.36" x2="303.3" y2="573.04" xlink:href="#linear-gradient-3"/><linearGradient id="linear-gradient-22" x1="327.41" y1="85.65" x2="317.54" y2="573.33" xlink:href="#linear-gradient-3"/><linearGradient id="linear-gradient-23" x1="428.59" y1="87.7" x2="418.71" y2="575.38" xlink:href="#linear-gradient-3"/><linearGradient id="linear-gradient-24" x1="311.35" y1="85.32" x2="301.47" y2="573" xlink:href="#linear-gradient-3"/><linearGradient id="linear-gradient-25" x1="392.21" y1="86.96" x2="382.34" y2="574.64" xlink:href="#linear-gradient-3"/><linearGradient id="linear-gradient-26" x1="335.09" y1="85.8" x2="325.21" y2="573.48" xlink:href="#linear-gradient-3"/><linearGradient id="linear-gradient-27" x1="409.29" y1="87.31" x2="399.41" y2="574.98" xlink:href="#linear-gradient-3"/><linearGradient id="linear-gradient-28" x1="295.62" y1="85.01" x2="285.74" y2="572.68" xlink:href="#linear-gradient-3"/><linearGradient id="linear-gradient-29" x1="317.8" y1="85.45" x2="307.93" y2="573.13" xlink:href="#linear-gradient-3"/><linearGradient id="linear-gradient-30" x1="427.82" y1="87.68" x2="417.95" y2="575.36" xlink:href="#linear-gradient-3"/></defs><title>Global Warming</title><path d="M605.2,381.71C589,397.84,567.44,408.89,554.78,428c-8.87,13.36-12.55,29.59-21,43.2-17,27.27-50.91,40-83.06,40.56-70.86,1.3-137.44-39.86-209-27.94-36.22,6-66.79,14.27-101.15-3.82C113,465.44,91.06,439.14,84.71,408.33c-4.38-21.22-2.14-43.38-6.45-64.59-8.63-42.49-42.39-76.89-49.54-119.66-6.14-36.93,8.9-74,32-104,4.14-5.36,8.52-10.52,13.12-15.39,9.53-10.13,20.05-19.6,32.39-26,22.09-11.46,47.93-12.34,72.3-17.49,33.38-7,64.3-22.27,95.75-35.59q6.58-2.84,13.22-5.47C323.66,5.71,363.49-4.63,401.21,4.83c41,10.28,73.77,43.41,91.13,82,10.87,24,16.65,50.7,31.8,72.33,23.42,33.48,65.43,49.72,90.36,82.08C645.81,281.86,641.6,345.6,605.2,381.71Z" transform="translate(-27.34 -1.19)" fill="#1f6c08" opacity="0.24" style="isolation:isolate"/><path d="M377.05,222.22c-36.49-2.25-71.28,14-104.2,29.87-17.36,8.34-34.89,16.83-49.86,29s-27.28,28.54-30.82,47.47A80.51,80.51,0,0,0,84.11,287.08c5-7.47,3.44-17.39,1.12-26.08-7.74-29.14-24.33-58.35-52.1-70.16,12.13-7.12,20.13-19.88,24-33.38,3.44-12.06,3.86-24.79,3.37-37.38,4.14-5.36,8.52-10.52,13.11-15.39,9.54-10.13,20.06-19.6,32.4-26,22.09-11.46,47.93-12.34,72.3-17.49,33.38-7,64.3-22.27,95.75-35.59a15.49,15.49,0,0,1,5.79,4.56c5.64,7.33,6.55,20.33,11.85,28.78,12.06,19.29,32.05,33.8,54.52,38-15,9.61-20.58,29.77-17.53,47.37s13.11,33.1,23.74,47.44Q364.08,207.47,377.05,222.22Z" transform="translate(-27.34 -1.19)" fill="#1f6c08" opacity="0.24" style="isolation:isolate"/><ellipse cx="170.05" cy="162.18" rx="97.24" ry="99.21" fill="#1f6c08"/><ellipse cx="170.05" cy="162.18" rx="97.24" ry="99.21" fill="url(#linear-gradient)"/><path d="M423.27,294.23c-4.46,9.86-18.41,22.65-15,33.77,1.37,4.42,3,9.92-.35,13.11a2.51,2.51,0,0,1-1.51.81,3.29,3.29,0,0,1-2.45-1.44c-1.9-2-3.75-4.1-5.65-6.17-6.06,8.62-4.8,20.16-4,30.64a234.47,234.47,0,0,1,.56,24.72,8,8,0,0,1-.71,3.65c-1.68,3.12-6.83,2.49-9-.35s-2.39-6.66-2.53-10.24a201.62,201.62,0,0,0-3-26.75c0-.07,0-.18,0-.25-.38-2-.91-4.17-2.66-5.15-2.81-1.58-6.21,1.4-6.91,4.52s.11,6.45-.52,9.57-3.76,6.31-6.67,5c-3.57-1.62-2.34-7.16-4.62-10.35-2-2.84-6.63-2.84-9.4-.63s-3.89,5.86-4.1,9.36c-.21,2.88-.11,6.25-2.42,7.93a4,4,0,0,1-1.68.73,5.76,5.76,0,0,1-4.46-1.33,9.58,9.58,0,0,1-3.19-3.78c-1.68-3.58-2.35-7.89-5.4-10.42-3.85-3.19-10.73-1.08-12.2,3.72-1,3.43.39,7.47-1.37,10.59a6.36,6.36,0,0,1-4.77,3.05,8.79,8.79,0,0,1-4.24-.53,6.18,6.18,0,0,1-1.37-.66c-3.33-2.07-5.08-6-5.85-9.86s-.77-7.85-1.58-11.71c-2.87-.91-6.06,1.23-7.33,4s-1.15,6-1.08,9c.24,7.82.17,15.67-.21,23.49a14.73,14.73,0,0,1-.6,3.4c-.6,1.76-1.65,3.16-3.4,3.23-1.93,0-3.4-1.79-4.28-3.54-3.26-6.52-3.36-13.82-3.08-21.21.28-7.86.91-15.82-1.41-23.15-.56-1.78-2.42-3.92-3.92-2.77s.21,3.93-.56,5.79c-.88,2.14-4.39,1.33-5.44-.7s-.56-4.49-.56-6.77-1-5-3.23-5.47c-1.85-.38-3.71,1.12-4.34,2.95a12,12,0,0,0-.18,5.68c.67,5.33,1.33,10.66,2,16a11.39,11.39,0,0,1-.25,4.87,3.4,3.4,0,0,1-5.12,2.14,10.37,10.37,0,0,1-4-5.26,63.51,63.51,0,0,1-4-21.49c0-6.25.8-12.63-1.13-18.52-.49-1.57-1.57-3.33-3.22-3.26-2.21,0-2.81,3.05-2.81,5.26s-.91,5.23-3.12,5c-3.54-3.16-5-8.07-5.47-12.8s.14-9.5-.1-14.24c-.56-10.45-6.49-17.35-9.29-26.75a106.12,106.12,0,0,1-4.49-30.92,108.35,108.35,0,0,1,20.72-63.85s0,0,0,0a108.63,108.63,0,0,1,187,108.34Z" transform="translate(-27.34 -1.19)" fill="#1f6c08"/><path d="M423.27,294.23c-4.46,9.86-18.41,22.65-15,33.77,1.37,4.42,3,9.92-.35,13.11a2.51,2.51,0,0,1-1.51.81,3.29,3.29,0,0,1-2.45-1.44c-1.9-2-3.75-4.1-5.65-6.17-6.06,8.62-4.8,20.16-4,30.64a234.47,234.47,0,0,1,.56,24.72,8,8,0,0,1-.71,3.65c-1.68,3.12-6.83,2.49-9-.35s-2.39-6.66-2.53-10.24a201.62,201.62,0,0,0-3-26.75c0-.07,0-.18,0-.25-.38-2-.91-4.17-2.66-5.15-2.81-1.58-6.21,1.4-6.91,4.52s.11,6.45-.52,9.57-3.76,6.31-6.67,5c-3.57-1.62-2.34-7.16-4.62-10.35-2-2.84-6.63-2.84-9.4-.63s-3.89,5.86-4.1,9.36c-.21,2.88-.11,6.25-2.42,7.93a4,4,0,0,1-1.68.73,5.76,5.76,0,0,1-4.46-1.33,9.58,9.58,0,0,1-3.19-3.78c-1.68-3.58-2.35-7.89-5.4-10.42-3.85-3.19-10.73-1.08-12.2,3.72-1,3.43.39,7.47-1.37,10.59a6.36,6.36,0,0,1-4.77,3.05,8.79,8.79,0,0,1-4.24-.53,6.18,6.18,0,0,1-1.37-.66c-3.33-2.07-5.08-6-5.85-9.86s-.77-7.85-1.58-11.71c-2.87-.91-6.06,1.23-7.33,4s-1.15,6-1.08,9c.24,7.82.17,15.67-.21,23.49a14.73,14.73,0,0,1-.6,3.4c-.6,1.76-1.65,3.16-3.4,3.23-1.93,0-3.4-1.79-4.28-3.54-3.26-6.52-3.36-13.82-3.08-21.21.28-7.86.91-15.82-1.41-23.15-.56-1.78-2.42-3.92-3.92-2.77s.21,3.93-.56,5.79c-.88,2.14-4.39,1.33-5.44-.7s-.56-4.49-.56-6.77-1-5-3.23-5.47c-1.85-.38-3.71,1.12-4.34,2.95a12,12,0,0,0-.18,5.68c.67,5.33,1.33,10.66,2,16a11.39,11.39,0,0,1-.25,4.87,3.4,3.4,0,0,1-5.12,2.14,10.37,10.37,0,0,1-4-5.26,63.51,63.51,0,0,1-4-21.49c0-6.25.8-12.63-1.13-18.52-.49-1.57-1.57-3.33-3.22-3.26-2.21,0-2.81,3.05-2.81,5.26s-.91,5.23-3.12,5c-3.54-3.16-5-8.07-5.47-12.8s.14-9.5-.1-14.24c-.56-10.45-6.49-17.35-9.29-26.75a106.12,106.12,0,0,1-4.49-30.92,108.35,108.35,0,0,1,20.72-63.85s0,0,0,0a108.63,108.63,0,0,1,187,108.34Z" transform="translate(-27.34 -1.19)" fill="url(#linear-gradient-2)"/><path d="M406.47,312.5c-4.42,9.85-18.41,22.62-15,33.77,1.33,4.41,2.95,9.92-.39,13.11a2.41,2.41,0,0,1-1.5.81,3.34,3.34,0,0,1-2.46-1.44l-5.64-6.17a18.8,18.8,0,0,0-1.93,3.4c0-.07,0-.18,0-.25-.38-2-.91-4.17-2.66-5.15-2.81-1.58-6.21,1.4-6.91,4.52s.11,6.45-.52,9.57-3.76,6.31-6.67,5c-3.57-1.62-2.34-7.16-4.62-10.35-2-2.84-6.63-2.84-9.4-.63s-3.89,5.86-4.1,9.36c-.21,2.88-.11,6.25-2.42,7.93a4,4,0,0,1-1.68.73,6.1,6.1,0,0,0-4.46-1.33,9.58,9.58,0,0,1-3.19-3.78c-1.68-3.58-2.35-7.89-5.4-10.42-3.85-3.19-10.73-1.08-12.2,3.72-1,3.43.39,7.47-1.37,10.59a6.36,6.36,0,0,1-4.77,3.05,7.55,7.55,0,0,0-4.24-.53,6.18,6.18,0,0,1-1.37-.66c-3.33-2.07-5.08-6-5.85-9.86s-.77-7.85-1.58-11.71c-2.87-.91-6.06,1.23-7.33,4s-1.15,6-1.08,9c.24,7.82.17,15.67-.21,23.49a14.73,14.73,0,0,1-.6,3.4.26.26,0,0,1-.14-.07c-3.33-2.1-5.08-6-5.86-9.85s-.77-7.85-1.54-11.71a4.81,4.81,0,0,0-3.22.11c.28-7.86.91-15.82-1.41-23.15-.56-1.78-2.42-3.92-3.92-2.77s.21,3.93-.56,5.79c-.88,2.14-4.39,1.33-5.44-.7s-.56-4.49-.56-6.77-1-5-3.23-5.47c-1.85-.38-3.71,1.12-4.34,2.95a12,12,0,0,0-.18,5.68c.67,5.33,1.33,10.66,2,16a11.39,11.39,0,0,1-.25,4.87c-.11-.42-.21-.88-.35-1.3-.56-1.82-2.42-3.93-3.93-2.77s.21,3.93-.56,5.79a1.46,1.46,0,0,1-.28.42,10.37,10.37,0,0,1-4-5.26,63.51,63.51,0,0,1-4-21.49c0-6.25.8-12.63-1.13-18.52-.49-1.57-1.57-3.33-3.22-3.26-2.21,0-2.81,3.05-2.81,5.26s-.91,5.23-3.12,5c-3.54-3.16-5-8.07-5.47-12.8s.14-9.5-.1-14.24c-.56-10.45-6.49-17.35-9.29-26.75a106.12,106.12,0,0,1-4.49-30.92,108.35,108.35,0,0,1,20.72-63.85s0,0,0,0A108.62,108.62,0,0,1,406.47,312.5Z" transform="translate(-27.34 -1.19)" fill="#1f6c08"/><path d="M350.8,275.37c-3.68-2.12-7.64-3.4-12-2.07-.46-3.45-2.21-4.25-5.3-2.43a3.2,3.2,0,0,1-1.73.6c-1.3-.09-2.59-.4-4.09-.66.59-.85,1.21-1.77,1.88-2.66.87-1.13,1.41-2.25.32-3.57a2.75,2.75,0,0,1-.42-1c-.86-3.38-2.56-4.91-6-5.27-2.84-.3-5.31-1.14-6.6-4a2.75,2.75,0,0,0-.88-1c-1.24-.91-1.66-1.83-.33-3,.28-.26.31-.8.45-1.21-1.71.46-3,1.75-4.39,1.83a11.52,11.52,0,0,1-8.16-2.46c-1.4-1.15-2.43-.87-2.89.94-.24.92-.44,1.84-.66,2.76l-.81-.17c.31-1.61.61-3.22.94-5-.39,0-1.11-.1-1.28.15-1.37,2-4.3,2.13-5.27,4.59-.48,1.23-1.32,1.29-2.6.75a5.6,5.6,0,0,0-3.59-.22c-2.44.76-4.3-.35-4.23-2.95.06-1.89.27-3.78.42-5.67a2.14,2.14,0,0,0-2-2.53c-1.11-.18-2.23-.26-3.58-.41.19-.79.31-1.45.52-2.08.56-1.68,1.2-3.34,1.72-5s-.17-2.34-1.66-1.7a7.55,7.55,0,0,0-3.11,2.47c-1.08,1.56-2.18,2.77-4.2,2.71a4,4,0,0,1-3.91-3.06,9.32,9.32,0,0,1-.17-4.42c.36-1.7,1.41-3.24,1.9-4.92,1-3.31,3.64-4.73,6.42-6a3.35,3.35,0,0,1,2.53.23c1.62.86,2.77.81,3.87-.83.87-1.3,6-.79,6.74.62a4.78,4.78,0,0,1,.23,1.84,14.27,14.27,0,0,0,.15,3c.16.59.93,1,1.43,1.5.44-.46,1.2-.89,1.26-1.4a21.82,21.82,0,0,0,.12-4.71c-.38-4.34,2.08-6.77,5.68-8.15a6.19,6.19,0,0,0,4.28-5.05c.4-2.69,2.41-3.78,4.23-5.1s4-2.62,5.91-3.94a2,2,0,0,0,.52-.77c1.35-2.85,5.93-5,9.35-4.3l-2.66,2,.28.45c2.69-.29,4.51-2.47,6.94-3.46-1.2-.5-2.84-.45-3.4-1.2s-.13-2.35-.13-3.7l-2.1-.66c1-.28,1.42-.46,1.87-.53a63.64,63.64,0,0,0,6.92-1.17,14,14,0,0,0,4.81-2.42c1.41-1.14,1-2.27-.67-3.08a3.54,3.54,0,0,1-.84-.67c-1.35-1.31-1.47-2.89-1.25-4.67A7.32,7.32,0,0,0,331,170c-.78.28-1.58.54-2.35.87-.4.17-.72.57-1.13.69a11.92,11.92,0,0,1-1.9.28c.08-.59.19-1.17.23-1.77s.34-1.7,0-2.2c-.85-1.24-6.06-1.83-6.95-.7-1.22,1.55-2.59,3.34-2.88,5.18a6.72,6.72,0,0,1-3.84,5.19A9,9,0,0,0,309.7,180c-.64.84-.64,2.68-2.1,2.14s-.53-2.07-.23-3.12.27-1.57-.79-1.91c-1.55-.49-3.1-1-4.63-1.55-1.38-.48-2.19-2.37-1.47-3.41,2.31-3.3,5.86-4.89,9.26-6.69.89-.47,2.45-1.05,2.46-1.6,0-1.42.87-1.38,1.68-1.51a40.78,40.78,0,0,0,4.32-.55,6.71,6.71,0,0,0,2.82-1.62c.53-.5.58-1.49.85-2.26a19.77,19.77,0,0,0-2.89.16c-.43.08-.75.65-1.14,1s-1,.8-1.38,1l-2.41-3.81c-2.18.22-3.15,1.79-4,3.52.05-.38.11-.76.23-1.56l-2.62.8c.28.58.56,1.17.9,1.9-.35.17-.85.61-1.33.59-1.53-.05-3.06-.25-4.58-.43a17.54,17.54,0,0,1-1.72-.36c0-.18,0-.36,0-.54a5.1,5.1,0,0,0,5.29-1.61c-.08-1.48-.13-2.54-.19-3.71-2.38,1.26-4.79,1.72-7.33.32a2.69,2.69,0,0,0-2.18.21,55.77,55.77,0,0,0-5.09,3.28c-.28.19-.25.82-.37,1.25a4.34,4.34,0,0,0,1.31-.09c.93-.38,1.81-.86,2.53-1.21.41.79.63,1.21.84,1.63l-1.38.67c0,.19,0,.37,0,.55l5.07.48c-.95.63-1.65,1.46-2.44,1.54a8,8,0,0,1-3.07-.61c-4.71-1.42-9-.28-13.12,2a34.35,34.35,0,0,1-5.35,2.2c-3.56,1.25-7.28,2.13-10.69,3.69-6.31,2.87-10.76,8.32-16.26,12.33-.09.07-.12.21-.2.36l1,.41a16.71,16.71,0,0,0-8.09,8.41,7.77,7.77,0,0,0,1.27-.84c4.19-2.81,8.29-5.77,12.64-8.29,1.35-.78,3.39-.46,5.11-.45.39,0,.78.82,1.25,1.35l-2.55.7,2.28.71c-2.38,2.15-1.63,5.62-4.22,7.48-.31.22-.37,1-.27,1.49a1.19,1.19,0,0,0,1,.58,2.66,2.66,0,0,0,1.17-1,4,4,0,0,0,.37-1.19c.46.33.77.87.64,1a36.51,36.51,0,0,1-3,3.2c-.56.53-1.48.73-1.95,1.31-2.43,3.05-4.81,6.14-7.1,9.31a5.23,5.23,0,0,0-.62,2.5c-.09,1,.09,2,0,3a3.42,3.42,0,0,0,1.06,3.22c.54.47.56,1.67.59,2.55.07,2.08,0,4.16,0,6.24a.87.87,0,0,0,.13.36c.64,1.32,1.31,2.64,1.92,4a10.19,10.19,0,0,1,.42,1.46l.94-.75c-.08-.6-.13-1.2-.25-1.78-.48-2.54-1-5.07-1.42-7.62-.09-.6.42-1.29.66-1.93.37.54,1,1,1.07,1.62a18.91,18.91,0,0,0,3.17,8.69,6.21,6.21,0,0,1,1.1,4.83,3,3,0,0,0,.54,2.38,47.32,47.32,0,0,0,6.65,4.66,5.88,5.88,0,0,0,3.81.31,3.8,3.8,0,0,1,3.49.7c1.94,1.42,3.46,3.58,6.2,3.76.3,0,.54.77.81,1.18a50.63,50.63,0,0,0,3.77,5.52c.91,1,2.44,1.51,3.66,2.29,1,.63,1.67.84,2-.65a1.83,1.83,0,0,1,1.24-1.07c.3-.05,1,.63,1.07,1.08,1,3.85,1.71,7.68-.88,11.27-.74,1-1.25,2.21-2,3.22a2.5,2.5,0,0,0-.1,3.27,2.59,2.59,0,0,1,.15,2.11c-.87,2-.27,3.66.91,5.3a19,19,0,0,1,2.59,4.15c.89,2.39,2.9,3.1,4.77,4.11l.42-.33c-.52-1.61-1.1-3.21-1.5-4.84-.13-.53.24-1.17.38-1.76.4.39,1,.71,1.16,1.18.77,2.2,1.51,4.43,2.09,6.69a13.83,13.83,0,0,1,.77,5,3.37,3.37,0,0,0,1.42,3.49c3.41,2.85,6.12,6.1,5.17,11a3.63,3.63,0,0,0,.09,1.13c.89,6,1.66,12,2.76,18a37.41,37.41,0,0,0,2.5,7c.62,1.55,1.48,3,2.11,4.55a1.55,1.55,0,0,1-.33,1.38c-1,.92-.36,1.48.25,2.21.84,1,2,2,2.22,3.2.36,2.08,1.78,3.16,3.15,4.28a3.09,3.09,0,0,0,2.44.17c.35-.11.41-1.22.53-1.89a18.09,18.09,0,0,1,.45-2.9,2.76,2.76,0,0,0-.34-2.8,5.09,5.09,0,0,1-.49-2.73c0-1.68,1.33-3.39-.42-5.1,2.44-.15,2.24-2,2.46-3.4,1.55-.53,3.92.33,4-2.09,0-1.6-.81-3.22-1.29-4.94a4,4,0,0,1,1.2.11c1.74.73,2.85.2,4-1.31a20.55,20.55,0,0,0,3.61-6.74c.32-1.13,1-2.34.82-3.4-.4-2.4.67-3.78,2.59-4.69,1.46-.69,3-1.11,4.52-1.77a3.53,3.53,0,0,0,1.59-1.39,23.89,23.89,0,0,0,3.27-13.44,8.61,8.61,0,0,1,1.82-6c.88-1.16,1.86-2.25,2.83-3.33C353.71,279.91,353.55,277,350.8,275.37Z" transform="translate(-27.34 -1.19)" fill="#1f6c08"/><path d="M432.3,251.53a100.5,100.5,0,0,0-2.58-27.44,2.08,2.08,0,0,0-1-1.15c-1.48-.81-3-1.56-4.54-2.23a26.23,26.23,0,0,0-2.71-.86c-.26,1.26-.42,2.08-.59,2.9a22.35,22.35,0,0,1-2.82-.84c-.48-.2-.78-.79-1.2-1.15a11.63,11.63,0,0,0-2.74-2.18c-2.14-.87-3.74-2-4.13-4.45a2.52,2.52,0,0,0-2.8-2.25c-1.69,0-3.37-.45-5.07-.58a8.14,8.14,0,0,0-3.52.09c-2.51,1-4.84,1.33-6.79-.41a23.54,23.54,0,0,1-2.87,2.5,3.86,3.86,0,0,0-1.78,3.1,8.47,8.47,0,0,1-1.44,3.49c-2,2.76-4.27,5.32-6.27,8.07a6,6,0,0,0-.5,5.94c.47,1.31.9,3.09.39,4.22a12.79,12.79,0,0,0-1,6.94,6.56,6.56,0,0,0,1.11,2.73c1,1.56,2.68,2.85,3.29,4.53a14.32,14.32,0,0,0,5.69,6.85,2.58,2.58,0,0,0,2.23.38,9.84,9.84,0,0,1,6.07-.91,5.29,5.29,0,0,0,2.14-.52c1.83-.64,3.61-1.46,5.47-2a2.1,2.1,0,0,1,2.66,1.55,1.82,1.82,0,0,0,1.43.95c1.09-.07,1.91-.11,2,1.27,0,.21.42.36.58.58.34.46.91,1,.88,1.43a9.34,9.34,0,0,1-.78,2.51c-.77,2-.78,3.66.81,5.39a5.4,5.4,0,0,1,1.54,4.52,34.59,34.59,0,0,0,.11,4.54,3.83,3.83,0,0,1-.35,2.15c-4.5,5.87-3.09,12.78-3.51,19.36a1,1,0,0,0,.14.54,3.64,3.64,0,0,1-.57,5c-.24.24-.18.76-.35,1.61.9-.38,1.44-.57,1.94-.84,1-.54,1.93-1.21,3-1.68a11.27,11.27,0,0,0,5.35-4.88,107.18,107.18,0,0,0,9.26-22.57c1-3.3,1.6-6.69,2.37-10A79.65,79.65,0,0,0,432.3,251.53Z" transform="translate(-27.34 -1.19)" fill="#1f6c08"/><path d="M399.57,185.06c1.62.07,2.67,1.19,2.69,3.18l-1.65-1.53-.6.23c.29,1,.58,1.95.89,3a5.3,5.3,0,0,0-1.88.3c-2.31,1.37-4.47,3-7.39,2.83-.32,0-.94.41-.95.65a1.91,1.91,0,0,0,.57,1.26c.62.61,1.64,1,2,1.68.45.92.84,2.79.48,3-1.54,1-.85,2.1-.6,3.25a8,8,0,0,0-1.85-.09c-3.54.73-4.35,0-4-3.55,0-.06-.17-.14-.37-.31-.18.34-.49.65-.46.94.21,2.45.44,4.9.76,7.33a1.86,1.86,0,0,0,.84,1.16,11.63,11.63,0,0,0,6.51,1.71,2.39,2.39,0,0,0,2.49-1.82,12,12,0,0,1,1.47-2.78,27,27,0,0,1,2-2.32c1.08-.07,2.39.18,3.35-.28,1.3-.64,1.91-.27,2.71.66a36.27,36.27,0,0,0,3.08,3c1.11,1,2.31,1.94,3.36,3a5.58,5.58,0,0,1,.71,1.82l-2.45.1c-.08.19-.17.38-.25.56.68.42,1.74,1.35,2,1.18a31.54,31.54,0,0,0,3.24-3.15l-8-7.5.34-.35c5.63,3.14,9.4,8.19,13.17,13.39,1.53-1.77-.36-2.57-.66-4h4.45c-.64-1.88-1.09-3.62-1.79-5.24a89.29,89.29,0,0,0-13-21.71c-2.17-2.6-5.21-4.49-8-6.56a2.32,2.32,0,0,0-3.42.2c-.79.95-1.59,1.75-3,1.56-.28,0-.94.67-.95,1.05C395.36,182.72,397.67,185,399.57,185.06Z" transform="translate(-27.34 -1.19)" fill="#1f6c08"/><path d="M370.94,161.75a12.9,12.9,0,0,1-1-1.15c2.94-.61,3.56-1,3.39-2.94-.14-1.63.47-1.6,1.62-1.08a4.36,4.36,0,0,0,1,.21l.07-.33a14,14,0,0,1-2.12-1.16c-4.68-3.74-10.1-5.56-15.95-6.46-2.4-.36-4.71-1.26-7.1-1.78a12.66,12.66,0,0,0-3.87-.32c-2.43.24-4.84.7-7.25,1.12-.45.08-1.15.29-1.21.56a1.45,1.45,0,0,0,.51,1.29,13.5,13.5,0,0,0,3.8,1.5c3.24.49,6.26,4.75,4.77,7.6-1.19,2.28-.92,4.6-1.32,6.89-.28,1.68,2.76,5.13,4.47,5.09a3.42,3.42,0,0,0,2-.82,7.77,7.77,0,0,0,1.43-2,4.48,4.48,0,0,1,4.14-2.47,7,7,0,0,0,3.14-1,5,5,0,0,1,4.22-.64c2,.59,4.48,1.32,6.49-1.21A13.48,13.48,0,0,1,370.94,161.75Z" transform="translate(-27.34 -1.19)" fill="#1f6c08"/><path d="M320.35,156.94c1.77,0,3.54-.24,5.31-.36a1,1,0,0,1,.71.16c1.31,1.38,2.59,2.79,4.09,4.43-1.51.08-2.77-.22-3.43.28a5.54,5.54,0,0,1-3.58,1.34,5,5,0,0,0-1.65.61c0,.17.05.35.08.52.27.1.62.36.8.27,2.16-1,3.08.42,4.24,1.83a3.24,3.24,0,0,0,4.17.79l-1.35-2,2.64,1v-4.05a10.32,10.32,0,0,0,2.18.83,2.43,2.43,0,0,0,1.73-.43c.22-.2,0-1.08-.21-1.55-.41-.84-1.12-1.55-1.48-2.41a6,6,0,0,0-4.58-3.46c-2.31-.29-4-2.14-6.68-1.76-1.58.23-3,.17-4.1,1.38a2.15,2.15,0,0,0-.55,1.79A2.06,2.06,0,0,0,320.35,156.94Z" transform="translate(-27.34 -1.19)" fill="#1f6c08"/><path d="M297.84,233.22a20.26,20.26,0,0,0-8.36-4.48,6.26,6.26,0,0,0-3,.09,10.18,10.18,0,0,0-2.42,1.47l.48.68,1.37-.48c1.61-.57,5.13.49,5.83,1.74C293,234.44,295.64,235,297.84,233.22Z" transform="translate(-27.34 -1.19)" fill="#1f6c08"/><path d="M389.38,185.22c.92.46,1.6,1,.5,2.16-.33.34-.13,1.26-.08,1.91a11.34,11.34,0,0,0,.45,1.68c1.18.12,2.54.32,3.91.36.37,0,.84-.45,1.08-.81a1.1,1.1,0,0,0-.16-1q-2.73-3.5-5.57-6.91a8.59,8.59,0,0,0-1.77-1.21C387.57,183.32,387.92,184.48,389.38,185.22Z" transform="translate(-27.34 -1.19)" fill="#1f6c08"/><path d="M337,187.14c.13-.33-.32-1-.67-1.35-.81-.8-1.72-1.49-3-2.53a8,8,0,0,0-3.89,4.88c2.26.12,4.25.32,6.23.28C336.18,188.41,336.81,187.67,337,187.14Z" transform="translate(-27.34 -1.19)" fill="#1f6c08"/><path d="M338.4,147c.12.12.49,0,.74,0,1.44-.16,2.89-.28,4.32-.51a18.19,18.19,0,0,0,2.37-.67c-3.2-1.68-13.34-1.9-15-.84.09.09.17.21.27.24C333.48,145.92,336.32,144.87,338.4,147Z" transform="translate(-27.34 -1.19)" fill="#1f6c08"/><path d="M325.38,148.62l0,.53c1.88.42,3.85,1.39,5.62,1.1,2-.32,3.77-1.78,5.64-2.75l-.19-.51c-2-.22-3.95-.46-5.92-.67-.18,0-.46,0-.53.14A4.39,4.39,0,0,1,325.38,148.62Z" transform="translate(-27.34 -1.19)" fill="#1f6c08"/><path d="M299.73,237.06c1.53-.08,3.07-.07,4.59-.26a1.4,1.4,0,0,0,.8-1.12c-.35-1.36-5.45-2.5-5.79-1.31-.48,1.68-1.79,1.43-2.82,1.89,0,.22-.07.44-.1.66.64.1,1.28.23,1.93.27A13.31,13.31,0,0,0,299.73,237.06Z" transform="translate(-27.34 -1.19)" fill="#1f6c08"/><path d="M376.34,169.29a6.08,6.08,0,0,0-2.74-.54c-.57,0-1.14.53-1.7.82.31.48.52,1.13,1,1.39a28.25,28.25,0,0,0,3.25,1.4l2.31-1.26A11,11,0,0,0,376.34,169.29Z" transform="translate(-27.34 -1.19)" fill="#1f6c08"/><path d="M387.76,187.76c0-3.93-.87-4.71-3.66-3.15C384.66,188.87,384.66,188.87,387.76,187.76Z" transform="translate(-27.34 -1.19)" fill="#1f6c08"/><path d="M329.2,151.15c-2.52-.35-5-.74-7.49-1-.41,0-.88.59-1.61,1.12C325,152.46,328.32,152.39,329.2,151.15Z" transform="translate(-27.34 -1.19)" fill="#1f6c08"/><path d="M295.78,222c-.57-.15-1.24-.55-1.67-.37s-.7.92-.95,1.46a3.16,3.16,0,0,0-.25,1.15c0,.73,0,1.47,0,2.21l.51-.2c.61-.83,1.28-1.62,1.81-2.49A7.86,7.86,0,0,0,295.78,222Z" transform="translate(-27.34 -1.19)" fill="#1f6c08"/><path d="M313.19,165.58l4.38-.27c.26-1.25-.17-2-1.59-2.22S313.4,163.89,313.19,165.58Z" transform="translate(-27.34 -1.19)" fill="#1f6c08"/><path d="M292.88,289.17l3.85,4.95C297.89,291.41,297,290.44,292.88,289.17Z" transform="translate(-27.34 -1.19)" fill="#1f6c08"/><path d="M316.66,241.15c-.47-.91-.89-2.13-3-1.75,3.17,2,2,4.42,1.3,6.85C315.76,244.53,317.75,243.26,316.66,241.15Z" transform="translate(-27.34 -1.19)" fill="#1f6c08"/><path d="M311.34,156a17.05,17.05,0,0,0,3-2l-.57-.79-4.43,1.87-.09.46C309.94,155.7,310.8,156.24,311.34,156Z" transform="translate(-27.34 -1.19)" fill="#1f6c08"/><path d="M328.34,146.47c-1.62-1.53-3.56-1.61-4.28-.58-.18.27.34,1.42.44,1.4C325.63,147.14,326.75,146.84,328.34,146.47Z" transform="translate(-27.34 -1.19)" fill="#1f6c08"/><path d="M427.52,217.58c.1-3.36-1-5-3-4.65Z" transform="translate(-27.34 -1.19)" fill="#1f6c08"/><path d="M308.77,237.64c.28.11.82-.47,1.24-.73l-1.92-1.8-1.54,1.16A13.3,13.3,0,0,0,308.77,237.64Z" transform="translate(-27.34 -1.19)" fill="#1f6c08"/><path d="M391.25,200.64c-.45-.33-1-1-1.34-.92a2.2,2.2,0,0,0-1.33,1.21c-.1.25.57.82,1.16,1.61Z" transform="translate(-27.34 -1.19)" fill="#1f6c08"/><path d="M330.05,269.39c.35.44.71.87,1.3,1.59.62-.7,1.25-1.12,1.34-1.63.06-.3-.8-1.09-1.18-1.05S330.53,269,330.05,269.39Z" transform="translate(-27.34 -1.19)" fill="#1f6c08"/><path d="M405.57,207.2a12.32,12.32,0,0,0,1.36,2s.57-.36,1.21-.77l-1.93-2.1C406,206.64,405.5,207.06,405.57,207.2Z" transform="translate(-27.34 -1.19)" fill="#1f6c08"/><path d="M291.14,237.11l2.52.7c.1-.38.19-.76.29-1.14-.79-.16-1.58-.36-2.38-.44C291.45,236.22,291.28,236.8,291.14,237.11Z" transform="translate(-27.34 -1.19)" fill="#1f6c08"/><path d="M318,153.25c-1.6-.8-2.56-.33-3.14.89l.31.44Z" transform="translate(-27.34 -1.19)" fill="#1f6c08"/><path d="M423.63,217.94l2.81.95.29-.81-2.8-1Z" transform="translate(-27.34 -1.19)" fill="#1f6c08"/><path d="M350.8,275.37c-3.68-2.12-7.64-3.4-12-2.07-.46-3.45-2.21-4.25-5.3-2.43a3.2,3.2,0,0,1-1.73.6c-1.3-.09-2.59-.4-4.09-.66.59-.85,1.21-1.77,1.88-2.66.87-1.13,1.41-2.25.32-3.57a2.75,2.75,0,0,1-.42-1c-.86-3.38-2.56-4.91-6-5.27-2.84-.3-5.31-1.14-6.6-4a2.75,2.75,0,0,0-.88-1c-1.24-.91-1.66-1.83-.33-3,.28-.26.31-.8.45-1.21-1.71.46-3,1.75-4.39,1.83a11.52,11.52,0,0,1-8.16-2.46c-1.4-1.15-2.43-.87-2.89.94-.24.92-.44,1.84-.66,2.76l-.81-.17c.31-1.61.61-3.22.94-5-.39,0-1.11-.1-1.28.15-1.37,2-4.3,2.13-5.27,4.59-.48,1.23-1.32,1.29-2.6.75a5.6,5.6,0,0,0-3.59-.22c-2.44.76-4.3-.35-4.23-2.95.06-1.89.27-3.78.42-5.67a2.14,2.14,0,0,0-2-2.53c-1.11-.18-2.23-.26-3.58-.41.19-.79.31-1.45.52-2.08.56-1.68,1.2-3.34,1.72-5s-.17-2.34-1.66-1.7a7.55,7.55,0,0,0-3.11,2.47c-1.08,1.56-2.18,2.77-4.2,2.71a4,4,0,0,1-3.91-3.06,9.32,9.32,0,0,1-.17-4.42c.36-1.7,1.41-3.24,1.9-4.92,1-3.31,3.64-4.73,6.42-6a3.35,3.35,0,0,1,2.53.23c1.62.86,2.77.81,3.87-.83.87-1.3,6-.79,6.74.62a4.78,4.78,0,0,1,.23,1.84,14.27,14.27,0,0,0,.15,3c.16.59.93,1,1.43,1.5.44-.46,1.2-.89,1.26-1.4a21.82,21.82,0,0,0,.12-4.71c-.38-4.34,2.08-6.77,5.68-8.15a6.19,6.19,0,0,0,4.28-5.05c.4-2.69,2.41-3.78,4.23-5.1s4-2.62,5.91-3.94a2,2,0,0,0,.52-.77c1.35-2.85,5.93-5,9.35-4.3l-2.66,2,.28.45c2.69-.29,4.51-2.47,6.94-3.46-1.2-.5-2.84-.45-3.4-1.2s-.13-2.35-.13-3.7l-2.1-.66c1-.28,1.42-.46,1.87-.53a63.64,63.64,0,0,0,6.92-1.17,14,14,0,0,0,4.81-2.42c1.41-1.14,1-2.27-.67-3.08a3.54,3.54,0,0,1-.84-.67c-1.35-1.31-1.47-2.89-1.25-4.67A7.32,7.32,0,0,0,331,170c-.78.28-1.58.54-2.35.87-.4.17-.72.57-1.13.69a11.92,11.92,0,0,1-1.9.28c.08-.59.19-1.17.23-1.77s.34-1.7,0-2.2c-.85-1.24-6.06-1.83-6.95-.7-1.22,1.55-2.59,3.34-2.88,5.18a6.72,6.72,0,0,1-3.84,5.19A9,9,0,0,0,309.7,180c-.64.84-.64,2.68-2.1,2.14s-.53-2.07-.23-3.12.27-1.57-.79-1.91c-1.55-.49-3.1-1-4.63-1.55-1.38-.48-2.19-2.37-1.47-3.41,2.31-3.3,5.86-4.89,9.26-6.69.89-.47,2.45-1.05,2.46-1.6,0-1.42.87-1.38,1.68-1.51a40.78,40.78,0,0,0,4.32-.55,6.71,6.71,0,0,0,2.82-1.62c.53-.5.58-1.49.85-2.26a19.77,19.77,0,0,0-2.89.16c-.43.08-.75.65-1.14,1s-1,.8-1.38,1l-2.41-3.81c-2.18.22-3.15,1.79-4,3.52.05-.38.11-.76.23-1.56l-2.62.8c.28.58.56,1.17.9,1.9-.35.17-.85.61-1.33.59-1.53-.05-3.06-.25-4.58-.43a17.54,17.54,0,0,1-1.72-.36c0-.18,0-.36,0-.54a5.1,5.1,0,0,0,5.29-1.61c-.08-1.48-.13-2.54-.19-3.71-2.38,1.26-4.79,1.72-7.33.32a2.69,2.69,0,0,0-2.18.21,55.77,55.77,0,0,0-5.09,3.28c-.28.19-.25.82-.37,1.25a4.34,4.34,0,0,0,1.31-.09c.93-.38,1.81-.86,2.53-1.21.41.79.63,1.21.84,1.63l-1.38.67c0,.19,0,.37,0,.55l5.07.48c-.95.63-1.65,1.46-2.44,1.54a8,8,0,0,1-3.07-.61c-4.71-1.42-9-.28-13.12,2a34.35,34.35,0,0,1-5.35,2.2c-3.56,1.25-7.28,2.13-10.69,3.69-6.31,2.87-10.76,8.32-16.26,12.33-.09.07-.12.21-.2.36l1,.41a16.71,16.71,0,0,0-8.09,8.41,7.77,7.77,0,0,0,1.27-.84c4.19-2.81,8.29-5.77,12.64-8.29,1.35-.78,3.39-.46,5.11-.45.39,0,.78.82,1.25,1.35l-2.55.7,2.28.71c-2.38,2.15-1.63,5.62-4.22,7.48-.31.22-.37,1-.27,1.49a1.19,1.19,0,0,0,1,.58,2.66,2.66,0,0,0,1.17-1,4,4,0,0,0,.37-1.19c.46.33.77.87.64,1a36.51,36.51,0,0,1-3,3.2c-.56.53-1.48.73-1.95,1.31-2.43,3.05-4.81,6.14-7.1,9.31a5.23,5.23,0,0,0-.62,2.5c-.09,1,.09,2,0,3a3.42,3.42,0,0,0,1.06,3.22c.54.47.56,1.67.59,2.55.07,2.08,0,4.16,0,6.24a.87.87,0,0,0,.13.36c.64,1.32,1.31,2.64,1.92,4a10.19,10.19,0,0,1,.42,1.46l.94-.75c-.08-.6-.13-1.2-.25-1.78-.48-2.54-1-5.07-1.42-7.62-.09-.6.42-1.29.66-1.93.37.54,1,1,1.07,1.62a18.91,18.91,0,0,0,3.17,8.69,6.21,6.21,0,0,1,1.1,4.83,3,3,0,0,0,.54,2.38,47.32,47.32,0,0,0,6.65,4.66,5.88,5.88,0,0,0,3.81.31,3.8,3.8,0,0,1,3.49.7c1.94,1.42,3.46,3.58,6.2,3.76.3,0,.54.77.81,1.18a50.63,50.63,0,0,0,3.77,5.52c.91,1,2.44,1.51,3.66,2.29,1,.63,1.67.84,2-.65a1.83,1.83,0,0,1,1.24-1.07c.3-.05,1,.63,1.07,1.08,1,3.85,1.71,7.68-.88,11.27-.74,1-1.25,2.21-2,3.22a2.5,2.5,0,0,0-.1,3.27,2.59,2.59,0,0,1,.15,2.11c-.87,2-.27,3.66.91,5.3a19,19,0,0,1,2.59,4.15c.89,2.39,2.9,3.1,4.77,4.11l.42-.33c-.52-1.61-1.1-3.21-1.5-4.84-.13-.53.24-1.17.38-1.76.4.39,1,.71,1.16,1.18.77,2.2,1.51,4.43,2.09,6.69a13.83,13.83,0,0,1,.77,5,3.37,3.37,0,0,0,1.42,3.49c3.41,2.85,6.12,6.1,5.17,11a3.63,3.63,0,0,0,.09,1.13c.89,6,1.66,12,2.76,18a37.41,37.41,0,0,0,2.5,7c.62,1.55,1.48,3,2.11,4.55a1.55,1.55,0,0,1-.33,1.38c-1,.92-.36,1.48.25,2.21.84,1,2,2,2.22,3.2.36,2.08,1.78,3.16,3.15,4.28a3.09,3.09,0,0,0,2.44.17c.35-.11.41-1.22.53-1.89a18.09,18.09,0,0,1,.45-2.9,2.76,2.76,0,0,0-.34-2.8,5.09,5.09,0,0,1-.49-2.73c0-1.68,1.33-3.39-.42-5.1,2.44-.15,2.24-2,2.46-3.4,1.55-.53,3.92.33,4-2.09,0-1.6-.81-3.22-1.29-4.94a4,4,0,0,1,1.2.11c1.74.73,2.85.2,4-1.31a20.55,20.55,0,0,0,3.61-6.74c.32-1.13,1-2.34.82-3.4-.4-2.4.67-3.78,2.59-4.69,1.46-.69,3-1.11,4.52-1.77a3.53,3.53,0,0,0,1.59-1.39,23.89,23.89,0,0,0,3.27-13.44,8.61,8.61,0,0,1,1.82-6c.88-1.16,1.86-2.25,2.83-3.33C353.71,279.91,353.55,277,350.8,275.37Z" transform="translate(-27.34 -1.19)" fill="url(#linear-gradient-3)"/><path d="M431.76,258.39a8.89,8.89,0,0,0,.61-3.22c0-1.67.07-3.54.07-3.57.08-1.57.12-3.15.11-4.72a102.46,102.46,0,0,0-2.69-22.72,2.1,2.1,0,0,0-1-1.15c-1.49-.81-3-1.56-4.55-2.23a26.23,26.23,0,0,0-2.71-.86c-.25,1.26-.42,2.08-.59,2.9a24.1,24.1,0,0,1-2.82-.83c-.48-.21-.78-.8-1.2-1.16a11.43,11.43,0,0,0-2.74-2.18c-2.14-.87-3.74-2-4.13-4.45a2.52,2.52,0,0,0-2.79-2.25c-1.7,0-3.38-.45-5.08-.58a8.08,8.08,0,0,0-3.51.09c-2.52,1-4.85,1.33-6.8-.41a22.81,22.81,0,0,1-2.87,2.5,3.86,3.86,0,0,0-1.78,3.1,8,8,0,0,1-1.43,3.47c-2,2.76-4.28,5.33-6.28,8.09a6,6,0,0,0-.5,5.94c.47,1.31.9,3.09.39,4.22a12.79,12.79,0,0,0-1,6.94,6.69,6.69,0,0,0,1.11,2.73c1,1.56,2.68,2.85,3.29,4.53a14.32,14.32,0,0,0,5.69,6.85,2.58,2.58,0,0,0,2.23.38,9.84,9.84,0,0,1,6.07-.91,5.25,5.25,0,0,0,2.14-.52c1.83-.64,3.61-1.46,5.47-2,1.24-.34,2.18.27,2.68,1.62a1.52,1.52,0,0,0,1.42.88c1.08-.07,1.9-.1,2,1.27,0,.21.42.36.58.58.34.46.91,1,.88,1.43a9.34,9.34,0,0,1-.78,2.51c-.77,2-.78,3.66.81,5.39a5.41,5.41,0,0,1,1.54,4.52,34.59,34.59,0,0,0,.11,4.54,3.83,3.83,0,0,1-.35,2.15c-4.5,5.87-3.09,12.78-3.51,19.36a.93.93,0,0,0,.14.54,3.64,3.64,0,0,1-.57,5c-.24.24-.18.77-.35,1.61.9-.38,1.44-.57,1.94-.84,1-.54,1.94-1.21,3-1.68a11.23,11.23,0,0,0,5.35-4.88,107.18,107.18,0,0,0,9.26-22.57c.95-3.3,1.6-6.69,2.37-10C430.91,267.8,430.84,260.87,431.76,258.39Z" transform="translate(-27.34 -1.19)" fill="url(#linear-gradient-4)"/><path d="M399.57,185.06c1.62.07,2.67,1.19,2.69,3.18l-1.65-1.53-.6.23c.29,1,.58,1.95.89,3a5.3,5.3,0,0,0-1.88.3c-2.31,1.37-4.47,3-7.39,2.83-.32,0-.94.41-.95.65a1.91,1.91,0,0,0,.57,1.26c.62.61,1.64,1,2,1.68.45.92.84,2.79.48,3-1.54,1-.85,2.1-.6,3.25a8,8,0,0,0-1.85-.09c-3.54.73-4.35,0-4-3.55,0-.06-.17-.14-.37-.31-.18.34-.49.65-.46.94.21,2.45.44,4.9.76,7.33a1.86,1.86,0,0,0,.84,1.16,11.63,11.63,0,0,0,6.51,1.71,2.39,2.39,0,0,0,2.49-1.82,12,12,0,0,1,1.47-2.78,27,27,0,0,1,2-2.32c1.08-.07,2.39.18,3.35-.28,1.3-.64,1.91-.27,2.71.66a36.27,36.27,0,0,0,3.08,3c1.11,1,2.31,1.94,3.36,3a5.58,5.58,0,0,1,.71,1.82l-2.45.1c-.08.19-.17.38-.25.56.68.42,1.74,1.35,2,1.18a31.54,31.54,0,0,0,3.24-3.15l-8-7.5.34-.35c5.63,3.14,9.4,8.19,13.17,13.39,1.53-1.77-.36-2.57-.66-4h4.45c-.64-1.88-1.09-3.62-1.79-5.24a89.29,89.29,0,0,0-13-21.71c-2.17-2.6-5.21-4.49-8-6.56a2.32,2.32,0,0,0-3.42.2c-.79.95-1.59,1.75-3,1.56-.28,0-.94.67-.95,1.05C395.36,182.72,397.67,185,399.57,185.06Z" transform="translate(-27.34 -1.19)" fill="url(#linear-gradient-5)"/><path d="M370.94,161.75a12.9,12.9,0,0,1-1-1.15c2.94-.61,3.56-1,3.39-2.94-.14-1.63.47-1.6,1.62-1.08a4.36,4.36,0,0,0,1,.21l.07-.33a14,14,0,0,1-2.12-1.16c-4.68-3.74-10.1-5.56-15.95-6.46-2.4-.36-4.71-1.26-7.1-1.78a12.66,12.66,0,0,0-3.87-.32c-2.43.24-4.84.7-7.25,1.12-.45.08-1.15.29-1.21.56a1.45,1.45,0,0,0,.51,1.29,13.5,13.5,0,0,0,3.8,1.5c3.24.49,6.26,4.75,4.77,7.6-1.19,2.28-.92,4.6-1.32,6.89-.28,1.68,2.76,5.13,4.47,5.09a3.42,3.42,0,0,0,2-.82,7.77,7.77,0,0,0,1.43-2,4.48,4.48,0,0,1,4.14-2.47,7,7,0,0,0,3.14-1,5,5,0,0,1,4.22-.64c2,.59,4.48,1.32,6.49-1.21A13.48,13.48,0,0,1,370.94,161.75Z" transform="translate(-27.34 -1.19)" fill="url(#linear-gradient-6)"/><path d="M320.35,156.94c1.77,0,3.54-.24,5.31-.36a1,1,0,0,1,.71.16c1.31,1.38,2.59,2.79,4.09,4.43-1.51.08-2.77-.22-3.43.28a5.54,5.54,0,0,1-3.58,1.34,5,5,0,0,0-1.65.61c0,.17.05.35.08.52.27.1.62.36.8.27,2.16-1,3.08.42,4.24,1.83a3.24,3.24,0,0,0,4.17.79l-1.35-2,2.64,1v-4.05a10.32,10.32,0,0,0,2.18.83,2.43,2.43,0,0,0,1.73-.43c.22-.2,0-1.08-.21-1.55-.41-.84-1.12-1.55-1.48-2.41a6,6,0,0,0-4.58-3.46c-2.31-.29-4-2.14-6.68-1.76-1.58.23-3,.17-4.1,1.38a2.15,2.15,0,0,0-.55,1.79A2.06,2.06,0,0,0,320.35,156.94Z" transform="translate(-27.34 -1.19)" fill="url(#linear-gradient-7)"/><path d="M297.84,233.22a20.26,20.26,0,0,0-8.36-4.48,6.26,6.26,0,0,0-3,.09,10.18,10.18,0,0,0-2.42,1.47l.48.68,1.37-.48c1.61-.57,5.13.49,5.83,1.74C293,234.44,295.64,235,297.84,233.22Z" transform="translate(-27.34 -1.19)" fill="url(#linear-gradient-8)"/><path d="M389.38,185.22c.92.46,1.6,1,.5,2.16-.33.34-.13,1.26-.08,1.91a11.34,11.34,0,0,0,.45,1.68c1.18.12,2.54.32,3.91.36.37,0,.84-.45,1.08-.81a1.1,1.1,0,0,0-.16-1q-2.73-3.5-5.57-6.91a8.59,8.59,0,0,0-1.77-1.21C387.57,183.32,387.92,184.48,389.38,185.22Z" transform="translate(-27.34 -1.19)" fill="url(#linear-gradient-9)"/><path d="M337,187.14c.13-.33-.32-1-.67-1.35-.81-.8-1.72-1.49-3-2.53a8,8,0,0,0-3.89,4.88c2.26.12,4.25.32,6.23.28C336.18,188.41,336.81,187.67,337,187.14Z" transform="translate(-27.34 -1.19)" fill="url(#linear-gradient-10)"/><path d="M338.4,147c.12.12.49,0,.74,0,1.44-.16,2.89-.28,4.32-.51a18.19,18.19,0,0,0,2.37-.67c-3.2-1.68-13.34-1.9-15-.84.09.09.17.21.27.24C333.48,145.92,336.32,144.87,338.4,147Z" transform="translate(-27.34 -1.19)" fill="url(#linear-gradient-11)"/><path d="M325.38,148.62l0,.53c1.88.42,3.85,1.39,5.62,1.1,2-.32,3.77-1.78,5.64-2.75l-.19-.51c-2-.22-3.95-.46-5.92-.67-.18,0-.46,0-.53.14A4.39,4.39,0,0,1,325.38,148.62Z" transform="translate(-27.34 -1.19)" fill="url(#linear-gradient-12)"/><path d="M299.73,237.06c1.53-.08,3.07-.07,4.59-.26a1.4,1.4,0,0,0,.8-1.12c-.35-1.36-5.45-2.5-5.79-1.31-.48,1.68-1.79,1.43-2.82,1.89,0,.22-.07.44-.1.66.64.1,1.28.23,1.93.27A13.31,13.31,0,0,0,299.73,237.06Z" transform="translate(-27.34 -1.19)" fill="url(#linear-gradient-13)"/><path d="M376.34,169.29a6.08,6.08,0,0,0-2.74-.54c-.57,0-1.14.53-1.7.82.31.48.52,1.13,1,1.39a28.25,28.25,0,0,0,3.25,1.4l2.31-1.26A11,11,0,0,0,376.34,169.29Z" transform="translate(-27.34 -1.19)" fill="url(#linear-gradient-14)"/><path d="M387.76,187.76c0-3.93-.87-4.71-3.66-3.15C384.66,188.87,384.66,188.87,387.76,187.76Z" transform="translate(-27.34 -1.19)" fill="url(#linear-gradient-15)"/><path d="M329.2,151.15c-2.52-.35-5-.74-7.49-1-.41,0-.88.59-1.61,1.12C325,152.46,328.32,152.39,329.2,151.15Z" transform="translate(-27.34 -1.19)" fill="url(#linear-gradient-16)"/><path d="M295.78,222c-.57-.15-1.24-.55-1.67-.37s-.7.92-.95,1.46a3.16,3.16,0,0,0-.25,1.15c0,.73,0,1.47,0,2.21l.51-.2c.61-.83,1.28-1.62,1.81-2.49A7.86,7.86,0,0,0,295.78,222Z" transform="translate(-27.34 -1.19)" fill="url(#linear-gradient-17)"/><path d="M313.19,165.58l4.38-.27c.26-1.25-.17-2-1.59-2.22S313.4,163.89,313.19,165.58Z" transform="translate(-27.34 -1.19)" fill="url(#linear-gradient-18)"/><path d="M292.88,289.17l3.85,4.95C297.89,291.41,297,290.44,292.88,289.17Z" transform="translate(-27.34 -1.19)" fill="url(#linear-gradient-19)"/><path d="M316.66,241.15c-.47-.91-.89-2.13-3-1.75,3.17,2,2,4.42,1.3,6.85C315.76,244.53,317.75,243.26,316.66,241.15Z" transform="translate(-27.34 -1.19)" fill="url(#linear-gradient-20)"/><path d="M311.34,156a17.05,17.05,0,0,0,3-2l-.57-.79-4.43,1.87-.09.46C309.94,155.7,310.8,156.24,311.34,156Z" transform="translate(-27.34 -1.19)" fill="url(#linear-gradient-21)"/><path d="M328.34,146.47c-1.62-1.53-3.56-1.61-4.28-.58-.18.27.34,1.42.44,1.4C325.63,147.14,326.75,146.84,328.34,146.47Z" transform="translate(-27.34 -1.19)" fill="url(#linear-gradient-22)"/><path d="M427.52,217.58c.1-3.36-1-5-3-4.65Z" transform="translate(-27.34 -1.19)" fill="url(#linear-gradient-23)"/><path d="M308.77,237.64c.28.11.82-.47,1.24-.73l-1.92-1.8-1.54,1.16A13.3,13.3,0,0,0,308.77,237.64Z" transform="translate(-27.34 -1.19)" fill="url(#linear-gradient-24)"/><path d="M391.25,200.64c-.45-.33-1-1-1.34-.92a2.2,2.2,0,0,0-1.33,1.21c-.1.25.57.82,1.16,1.61Z" transform="translate(-27.34 -1.19)" fill="url(#linear-gradient-25)"/><path d="M330.05,269.39c.35.44.71.87,1.3,1.59.62-.7,1.25-1.12,1.34-1.63.06-.3-.8-1.09-1.18-1.05S330.53,269,330.05,269.39Z" transform="translate(-27.34 -1.19)" fill="url(#linear-gradient-26)"/><path d="M405.57,207.2a12.32,12.32,0,0,0,1.36,2s.57-.36,1.21-.77l-1.93-2.1C406,206.64,405.5,207.06,405.57,207.2Z" transform="translate(-27.34 -1.19)" fill="url(#linear-gradient-27)"/><path d="M291.14,237.11l2.52.7c.1-.38.19-.76.29-1.14-.79-.16-1.58-.36-2.38-.44C291.45,236.22,291.28,236.8,291.14,237.11Z" transform="translate(-27.34 -1.19)" fill="url(#linear-gradient-28)"/><path d="M318,153.25c-1.6-.8-2.56-.33-3.14.89l.31.44Z" transform="translate(-27.34 -1.19)" fill="url(#linear-gradient-29)"/><path d="M423.63,217.94l2.81.95.29-.81-2.8-1Z" transform="translate(-27.34 -1.19)" fill="url(#linear-gradient-30)"/><path d="M409.09,376a3.48,3.48,0,0,0,1.15.79,2.88,2.88,0,0,0,2.46-.4c2.58-1.62,2.72-5.56,1.11-8.15C407.66,358.45,403.2,370.47,409.09,376Z" transform="translate(-27.34 -1.19)" fill="#1f6c08"/><path d="M348.43,392.19c-.17,1.3-.13,2.86,1,3.59a2.39,2.39,0,0,0,2.62-.18,4.5,4.5,0,0,0,1.53-2.28c.55-1.64.75-6.83-1.53-7.56C349,384.8,348.66,390.36,348.43,392.19Z" transform="translate(-27.34 -1.19)" fill="#1f6c08"/><path d="M300.93,401.29a8.12,8.12,0,0,0-.92,5,5.4,5.4,0,0,0,3.76,3.69,4.76,4.76,0,0,0,3.14,0c2-.81,2.81-3.13,3.07-5.25s.39-10.66-2.3-11.71C304.33,391.65,301.79,399.3,300.93,401.29Z" transform="translate(-27.34 -1.19)" fill="#1f6c08"/><path d="M263.43,373.82c.61,1.15,1.72,2.34,3,2.07s1.73-1.52,2.13-2.63l1.34-3.77a4.15,4.15,0,0,0,.3-1.25c0-2.85-4.05-6.05-6.66-4.3C260.71,365.85,262.16,371.42,263.43,373.82Z" transform="translate(-27.34 -1.19)" fill="#1f6c08"/><ellipse cx="306.28" cy="441.56" rx="143.64" ry="15.3" fill="#1f6c08" opacity="0.53" style="isolation:isolate"/></svg>